<?xml version="1.0" encoding="utf-8" standalone="no"?>
<!DOCTYPE svg PUBLIC "-//W3C//DTD SVG 1.1//EN"
  "http://www.w3.org/Graphics/SVG/1.1/DTD/svg11.dtd">
<!-- Created with matplotlib (https://matplotlib.org/) -->
<svg height="345.6pt" version="1.1" viewBox="0 0 460.8 345.6" width="460.8pt" xmlns="http://www.w3.org/2000/svg" xmlns:xlink="http://www.w3.org/1999/xlink">
 <metadata>
  <rdf:RDF xmlns:cc="http://creativecommons.org/ns#" xmlns:dc="http://purl.org/dc/elements/1.1/" xmlns:rdf="http://www.w3.org/1999/02/22-rdf-syntax-ns#">
   <cc:Work>
    <dc:type rdf:resource="http://purl.org/dc/dcmitype/StillImage"/>
    <dc:date>2021-01-15T15:46:40.673568</dc:date>
    <dc:format>image/svg+xml</dc:format>
    <dc:creator>
     <cc:Agent>
      <dc:title>Matplotlib v3.3.2, https://matplotlib.org/</dc:title>
     </cc:Agent>
    </dc:creator>
   </cc:Work>
  </rdf:RDF>
 </metadata>
 <defs>
  <style type="text/css">*{stroke-linecap:butt;stroke-linejoin:round;}</style>
 </defs>
 <g id="figure_1">
  <g id="patch_1">
   <path d="M 0 345.6 
L 460.8 345.6 
L 460.8 0 
L 0 0 
z
" style="fill:#ffffff;"/>
  </g>
  <g id="axes_1">
   <g id="patch_2">
    <path d="M 55.1 301.48 
L 450 301.48 
L 450 27.96 
L 55.1 27.96 
z
" style="fill:#ffffff;"/>
   </g>
   <g id="matplotlib.axis_1">
    <g id="xtick_1">
     <g id="line2d_1">
      <path clip-path="url(#pcffbb7d148)" d="M 70.682345 301.48 
L 70.682345 27.96 
" style="fill:none;stroke:#b0b0b0;stroke-linecap:square;stroke-width:0.8;"/>
     </g>
     <g id="line2d_2">
      <defs>
       <path d="M 0 0 
L 0 3.5 
" id="m308d3c3976" style="stroke:#000000;stroke-width:0.8;"/>
      </defs>
      <g>
       <use style="stroke:#000000;stroke-width:0.8;" x="70.682345" xlink:href="#m308d3c3976" y="301.48"/>
      </g>
     </g>
     <g id="text_1">
      <!-- −20 -->
      <g transform="translate(60.130001 316.078437)scale(0.1 -0.1)">
       <defs>
        <path d="M 10.59375 35.296875 
L 73.1875 35.296875 
L 73.1875 27.390625 
L 10.59375 27.390625 
z
" id="DejaVuSerif-8722"/>
        <path d="M 12.796875 55.515625 
L 7.328125 55.515625 
L 7.328125 68.5 
Q 12.546875 71.296875 17.84375 72.75 
Q 23.140625 74.21875 28.21875 74.21875 
Q 39.59375 74.21875 46.1875 68.703125 
Q 52.78125 63.1875 52.78125 53.71875 
Q 52.78125 43.015625 37.84375 28.125 
Q 36.671875 27 36.078125 26.421875 
L 17.671875 8.015625 
L 48.09375 8.015625 
L 48.09375 17 
L 53.8125 17 
L 53.8125 0 
L 6.78125 0 
L 6.78125 5.328125 
L 28.90625 27.390625 
Q 36.234375 34.71875 39.359375 40.84375 
Q 42.484375 46.96875 42.484375 53.71875 
Q 42.484375 61.078125 38.640625 65.234375 
Q 34.8125 69.390625 28.078125 69.390625 
Q 21.09375 69.390625 17.28125 65.921875 
Q 13.484375 62.453125 12.796875 55.515625 
z
" id="DejaVuSerif-50"/>
        <path d="M 31.78125 3.421875 
Q 39.265625 3.421875 42.96875 11.625 
Q 46.6875 19.828125 46.6875 36.375 
Q 46.6875 52.984375 42.96875 61.1875 
Q 39.265625 69.390625 31.78125 69.390625 
Q 24.3125 69.390625 20.59375 61.1875 
Q 16.890625 52.984375 16.890625 36.375 
Q 16.890625 19.828125 20.59375 11.625 
Q 24.3125 3.421875 31.78125 3.421875 
z
M 31.78125 -1.421875 
Q 19.921875 -1.421875 13.25 8.53125 
Q 6.59375 18.5 6.59375 36.375 
Q 6.59375 54.296875 13.25 64.25 
Q 19.921875 74.21875 31.78125 74.21875 
Q 43.703125 74.21875 50.34375 64.25 
Q 56.984375 54.296875 56.984375 36.375 
Q 56.984375 18.5 50.34375 8.53125 
Q 43.703125 -1.421875 31.78125 -1.421875 
z
" id="DejaVuSerif-48"/>
       </defs>
       <use xlink:href="#DejaVuSerif-8722"/>
       <use x="83.789062" xlink:href="#DejaVuSerif-50"/>
       <use x="147.412109" xlink:href="#DejaVuSerif-48"/>
      </g>
     </g>
    </g>
    <g id="xtick_2">
     <g id="line2d_3">
      <path clip-path="url(#pcffbb7d148)" d="M 135.841723 301.48 
L 135.841723 27.96 
" style="fill:none;stroke:#b0b0b0;stroke-linecap:square;stroke-width:0.8;"/>
     </g>
     <g id="line2d_4">
      <g>
       <use style="stroke:#000000;stroke-width:0.8;" x="135.841723" xlink:href="#m308d3c3976" y="301.48"/>
      </g>
     </g>
     <g id="text_2">
      <!-- −19 -->
      <g transform="translate(125.289379 316.078437)scale(0.1 -0.1)">
       <defs>
        <path d="M 14.203125 0 
L 14.203125 5.171875 
L 26.90625 5.171875 
L 26.90625 65.828125 
L 12.203125 56.296875 
L 12.203125 62.703125 
L 29.984375 74.21875 
L 36.71875 74.21875 
L 36.71875 5.171875 
L 49.421875 5.171875 
L 49.421875 0 
z
" id="DejaVuSerif-49"/>
        <path d="M 46.78125 32.671875 
Q 43.5 29 39.25 27.1875 
Q 35.015625 25.390625 29.6875 25.390625 
Q 18.84375 25.390625 12.5625 31.9375 
Q 6.296875 38.484375 6.296875 49.8125 
Q 6.296875 60.890625 13.109375 67.546875 
Q 19.921875 74.21875 31.296875 74.21875 
Q 43.65625 74.21875 50.265625 65.015625 
Q 56.890625 55.8125 56.890625 38.71875 
Q 56.890625 19.578125 49.015625 9.078125 
Q 41.15625 -1.421875 26.90625 -1.421875 
Q 23.046875 -1.421875 18.796875 -0.6875 
Q 14.546875 0.046875 10.109375 1.515625 
L 10.109375 13.625 
L 15.578125 13.625 
Q 16.21875 8.6875 19.390625 6.046875 
Q 22.5625 3.421875 27.875 3.421875 
Q 37.359375 3.421875 41.984375 10.5625 
Q 46.625 17.71875 46.78125 32.671875 
z
M 30.90625 69.390625 
Q 23.96875 69.390625 20.28125 64.328125 
Q 16.609375 59.28125 16.609375 49.8125 
Q 16.609375 40.328125 20.28125 35.25 
Q 23.96875 30.171875 30.90625 30.171875 
Q 37.84375 30.171875 41.53125 35.078125 
Q 45.21875 39.984375 45.21875 49.21875 
Q 45.21875 58.9375 41.5 64.15625 
Q 37.796875 69.390625 30.90625 69.390625 
z
" id="DejaVuSerif-57"/>
       </defs>
       <use xlink:href="#DejaVuSerif-8722"/>
       <use x="83.789062" xlink:href="#DejaVuSerif-49"/>
       <use x="147.412109" xlink:href="#DejaVuSerif-57"/>
      </g>
     </g>
    </g>
    <g id="xtick_3">
     <g id="line2d_5">
      <path clip-path="url(#pcffbb7d148)" d="M 201.001101 301.48 
L 201.001101 27.96 
" style="fill:none;stroke:#b0b0b0;stroke-linecap:square;stroke-width:0.8;"/>
     </g>
     <g id="line2d_6">
      <g>
       <use style="stroke:#000000;stroke-width:0.8;" x="201.001101" xlink:href="#m308d3c3976" y="301.48"/>
      </g>
     </g>
     <g id="text_3">
      <!-- −18 -->
      <g transform="translate(190.448757 316.078437)scale(0.1 -0.1)">
       <defs>
        <path d="M 46.578125 19.921875 
Q 46.578125 27.734375 42.6875 32.046875 
Q 38.8125 36.375 31.78125 36.375 
Q 24.75 36.375 20.875 32.046875 
Q 17 27.734375 17 19.921875 
Q 17 12.0625 20.875 7.734375 
Q 24.75 3.421875 31.78125 3.421875 
Q 38.8125 3.421875 42.6875 7.734375 
Q 46.578125 12.0625 46.578125 19.921875 
z
M 44.578125 55.328125 
Q 44.578125 61.96875 41.203125 65.671875 
Q 37.84375 69.390625 31.78125 69.390625 
Q 25.78125 69.390625 22.390625 65.671875 
Q 19 61.96875 19 55.328125 
Q 19 48.640625 22.390625 44.921875 
Q 25.78125 41.21875 31.78125 41.21875 
Q 37.84375 41.21875 41.203125 44.921875 
Q 44.578125 48.640625 44.578125 55.328125 
z
M 39.3125 38.8125 
Q 47.609375 37.703125 52.25 32.6875 
Q 56.890625 27.6875 56.890625 19.921875 
Q 56.890625 9.671875 50.390625 4.125 
Q 43.890625 -1.421875 31.78125 -1.421875 
Q 19.734375 -1.421875 13.203125 4.125 
Q 6.6875 9.671875 6.6875 19.921875 
Q 6.6875 27.6875 11.328125 32.6875 
Q 15.96875 37.703125 24.3125 38.8125 
Q 16.9375 40.140625 13 44.40625 
Q 9.078125 48.6875 9.078125 55.328125 
Q 9.078125 64.109375 15.125 69.15625 
Q 21.1875 74.21875 31.78125 74.21875 
Q 42.390625 74.21875 48.4375 69.15625 
Q 54.5 64.109375 54.5 55.328125 
Q 54.5 48.6875 50.5625 44.40625 
Q 46.625 40.140625 39.3125 38.8125 
z
" id="DejaVuSerif-56"/>
       </defs>
       <use xlink:href="#DejaVuSerif-8722"/>
       <use x="83.789062" xlink:href="#DejaVuSerif-49"/>
       <use x="147.412109" xlink:href="#DejaVuSerif-56"/>
      </g>
     </g>
    </g>
    <g id="xtick_4">
     <g id="line2d_7">
      <path clip-path="url(#pcffbb7d148)" d="M 266.160479 301.48 
L 266.160479 27.96 
" style="fill:none;stroke:#b0b0b0;stroke-linecap:square;stroke-width:0.8;"/>
     </g>
     <g id="line2d_8">
      <g>
       <use style="stroke:#000000;stroke-width:0.8;" x="266.160479" xlink:href="#m308d3c3976" y="301.48"/>
      </g>
     </g>
     <g id="text_4">
      <!-- −17 -->
      <g transform="translate(255.608135 316.078437)scale(0.1 -0.1)">
       <defs>
        <path d="M 56.390625 67.921875 
L 27.875 0 
L 20.609375 0 
L 47.796875 64.890625 
L 14.109375 64.890625 
L 14.109375 55.90625 
L 8.40625 55.90625 
L 8.40625 72.90625 
L 56.390625 72.90625 
z
" id="DejaVuSerif-55"/>
       </defs>
       <use xlink:href="#DejaVuSerif-8722"/>
       <use x="83.789062" xlink:href="#DejaVuSerif-49"/>
       <use x="147.412109" xlink:href="#DejaVuSerif-55"/>
      </g>
     </g>
    </g>
    <g id="xtick_5">
     <g id="line2d_9">
      <path clip-path="url(#pcffbb7d148)" d="M 331.319857 301.48 
L 331.319857 27.96 
" style="fill:none;stroke:#b0b0b0;stroke-linecap:square;stroke-width:0.8;"/>
     </g>
     <g id="line2d_10">
      <g>
       <use style="stroke:#000000;stroke-width:0.8;" x="331.319857" xlink:href="#m308d3c3976" y="301.48"/>
      </g>
     </g>
     <g id="text_5">
      <!-- −16 -->
      <g transform="translate(320.767513 316.078437)scale(0.1 -0.1)">
       <defs>
        <path d="M 32.71875 3.421875 
Q 39.59375 3.421875 43.296875 8.46875 
Q 47.015625 13.53125 47.015625 23 
Q 47.015625 32.46875 43.296875 37.515625 
Q 39.59375 42.578125 32.71875 42.578125 
Q 25.734375 42.578125 22.0625 37.6875 
Q 18.40625 32.8125 18.40625 23.578125 
Q 18.40625 13.875 22.109375 8.640625 
Q 25.828125 3.421875 32.71875 3.421875 
z
M 16.796875 40.140625 
Q 20.125 43.796875 24.3125 45.59375 
Q 28.515625 47.40625 33.796875 47.40625 
Q 44.671875 47.40625 51 40.859375 
Q 57.328125 34.328125 57.328125 23 
Q 57.328125 11.921875 50.515625 5.25 
Q 43.703125 -1.421875 32.328125 -1.421875 
Q 19.96875 -1.421875 13.328125 7.78125 
Q 6.6875 17 6.6875 34.078125 
Q 6.6875 53.21875 14.546875 63.71875 
Q 22.40625 74.21875 36.71875 74.21875 
Q 40.578125 74.21875 44.828125 73.484375 
Q 49.078125 72.75 53.515625 71.296875 
L 53.515625 59.28125 
L 48 59.28125 
Q 47.40625 64.203125 44.234375 66.796875 
Q 41.0625 69.390625 35.6875 69.390625 
Q 26.21875 69.390625 21.578125 62.203125 
Q 16.9375 55.03125 16.796875 40.140625 
z
" id="DejaVuSerif-54"/>
       </defs>
       <use xlink:href="#DejaVuSerif-8722"/>
       <use x="83.789062" xlink:href="#DejaVuSerif-49"/>
       <use x="147.412109" xlink:href="#DejaVuSerif-54"/>
      </g>
     </g>
    </g>
    <g id="xtick_6">
     <g id="line2d_11">
      <path clip-path="url(#pcffbb7d148)" d="M 396.479235 301.48 
L 396.479235 27.96 
" style="fill:none;stroke:#b0b0b0;stroke-linecap:square;stroke-width:0.8;"/>
     </g>
     <g id="line2d_12">
      <g>
       <use style="stroke:#000000;stroke-width:0.8;" x="396.479235" xlink:href="#m308d3c3976" y="301.48"/>
      </g>
     </g>
     <g id="text_6">
      <!-- −15 -->
      <g transform="translate(385.926892 316.078437)scale(0.1 -0.1)">
       <defs>
        <path d="M 50.296875 72.90625 
L 50.296875 64.890625 
L 16.890625 64.890625 
L 16.890625 44 
Q 19.4375 45.75 22.828125 46.625 
Q 26.21875 47.515625 30.421875 47.515625 
Q 42.234375 47.515625 49.0625 40.96875 
Q 55.90625 34.421875 55.90625 23.09375 
Q 55.90625 11.53125 49 5.046875 
Q 42.09375 -1.421875 29.59375 -1.421875 
Q 24.5625 -1.421875 19.28125 -0.1875 
Q 14.015625 1.03125 8.5 3.515625 
L 8.5 17.671875 
L 14.015625 17.671875 
Q 14.453125 10.75 18.421875 7.078125 
Q 22.40625 3.421875 29.59375 3.421875 
Q 37.3125 3.421875 41.453125 8.5 
Q 45.609375 13.578125 45.609375 23.09375 
Q 45.609375 32.5625 41.484375 37.609375 
Q 37.359375 42.671875 29.59375 42.671875 
Q 25.203125 42.671875 21.84375 41.109375 
Q 18.5 39.546875 15.921875 36.28125 
L 11.71875 36.28125 
L 11.71875 72.90625 
z
" id="DejaVuSerif-53"/>
       </defs>
       <use xlink:href="#DejaVuSerif-8722"/>
       <use x="83.789062" xlink:href="#DejaVuSerif-49"/>
       <use x="147.412109" xlink:href="#DejaVuSerif-53"/>
      </g>
     </g>
    </g>
    <g id="text_7">
     <!-- f1 -->
     <g transform="translate(246.511563 331.27625)scale(0.12 -0.12)">
      <defs>
       <path d="M 43.015625 63.71875 
L 38.28125 63.71875 
Q 38.234375 67.390625 36.203125 69.28125 
Q 34.1875 71.1875 30.328125 71.1875 
Q 25.296875 71.1875 23.234375 68.421875 
Q 21.1875 65.671875 21.1875 58.59375 
L 21.1875 51.90625 
L 35.6875 51.90625 
L 35.6875 46.6875 
L 21.1875 46.6875 
L 21.1875 5.171875 
L 32.71875 5.171875 
L 32.71875 0 
L 3.609375 0 
L 3.609375 5.171875 
L 12.203125 5.171875 
L 12.203125 46.6875 
L 3.609375 46.6875 
L 3.609375 51.90625 
L 12.203125 51.90625 
L 12.203125 58.40625 
Q 12.203125 67.09375 16.71875 71.53125 
Q 21.234375 75.984375 29.984375 75.984375 
Q 33.25 75.984375 36.515625 75.390625 
Q 39.796875 74.8125 43.015625 73.578125 
z
" id="DejaVuSerif-102"/>
      </defs>
      <use xlink:href="#DejaVuSerif-102"/>
      <use x="37.011719" xlink:href="#DejaVuSerif-49"/>
     </g>
    </g>
   </g>
   <g id="matplotlib.axis_2">
    <g id="ytick_1">
     <g id="line2d_13">
      <path clip-path="url(#pcffbb7d148)" d="M 55.1 297.855295 
L 450 297.855295 
" style="fill:none;stroke:#b0b0b0;stroke-linecap:square;stroke-width:0.8;"/>
     </g>
     <g id="line2d_14">
      <defs>
       <path d="M 0 0 
L -3.5 0 
" id="mf95c9e3617" style="stroke:#000000;stroke-width:0.8;"/>
      </defs>
      <g>
       <use style="stroke:#000000;stroke-width:0.8;" x="55.1" xlink:href="#mf95c9e3617" y="297.855295"/>
      </g>
     </g>
     <g id="text_8">
      <!-- −12 -->
      <g transform="translate(26.995313 301.654514)scale(0.1 -0.1)">
       <use xlink:href="#DejaVuSerif-8722"/>
       <use x="83.789062" xlink:href="#DejaVuSerif-49"/>
       <use x="147.412109" xlink:href="#DejaVuSerif-50"/>
      </g>
     </g>
    </g>
    <g id="ytick_2">
     <g id="line2d_15">
      <path clip-path="url(#pcffbb7d148)" d="M 55.1 255.131298 
L 450 255.131298 
" style="fill:none;stroke:#b0b0b0;stroke-linecap:square;stroke-width:0.8;"/>
     </g>
     <g id="line2d_16">
      <g>
       <use style="stroke:#000000;stroke-width:0.8;" x="55.1" xlink:href="#mf95c9e3617" y="255.131298"/>
      </g>
     </g>
     <g id="text_9">
      <!-- −10 -->
      <g transform="translate(26.995313 258.930517)scale(0.1 -0.1)">
       <use xlink:href="#DejaVuSerif-8722"/>
       <use x="83.789062" xlink:href="#DejaVuSerif-49"/>
       <use x="147.412109" xlink:href="#DejaVuSerif-48"/>
      </g>
     </g>
    </g>
    <g id="ytick_3">
     <g id="line2d_17">
      <path clip-path="url(#pcffbb7d148)" d="M 55.1 212.407301 
L 450 212.407301 
" style="fill:none;stroke:#b0b0b0;stroke-linecap:square;stroke-width:0.8;"/>
     </g>
     <g id="line2d_18">
      <g>
       <use style="stroke:#000000;stroke-width:0.8;" x="55.1" xlink:href="#mf95c9e3617" y="212.407301"/>
      </g>
     </g>
     <g id="text_10">
      <!-- −8 -->
      <g transform="translate(33.357813 216.20652)scale(0.1 -0.1)">
       <use xlink:href="#DejaVuSerif-8722"/>
       <use x="83.789062" xlink:href="#DejaVuSerif-56"/>
      </g>
     </g>
    </g>
    <g id="ytick_4">
     <g id="line2d_19">
      <path clip-path="url(#pcffbb7d148)" d="M 55.1 169.683304 
L 450 169.683304 
" style="fill:none;stroke:#b0b0b0;stroke-linecap:square;stroke-width:0.8;"/>
     </g>
     <g id="line2d_20">
      <g>
       <use style="stroke:#000000;stroke-width:0.8;" x="55.1" xlink:href="#mf95c9e3617" y="169.683304"/>
      </g>
     </g>
     <g id="text_11">
      <!-- −6 -->
      <g transform="translate(33.357813 173.482523)scale(0.1 -0.1)">
       <use xlink:href="#DejaVuSerif-8722"/>
       <use x="83.789062" xlink:href="#DejaVuSerif-54"/>
      </g>
     </g>
    </g>
    <g id="ytick_5">
     <g id="line2d_21">
      <path clip-path="url(#pcffbb7d148)" d="M 55.1 126.959307 
L 450 126.959307 
" style="fill:none;stroke:#b0b0b0;stroke-linecap:square;stroke-width:0.8;"/>
     </g>
     <g id="line2d_22">
      <g>
       <use style="stroke:#000000;stroke-width:0.8;" x="55.1" xlink:href="#mf95c9e3617" y="126.959307"/>
      </g>
     </g>
     <g id="text_12">
      <!-- −4 -->
      <g transform="translate(33.357813 130.758526)scale(0.1 -0.1)">
       <defs>
        <path d="M 34.90625 24.703125 
L 34.90625 63.484375 
L 10.015625 24.703125 
z
M 56.390625 0 
L 23.1875 0 
L 23.1875 5.171875 
L 34.90625 5.171875 
L 34.90625 19.484375 
L 3.078125 19.484375 
L 3.078125 24.8125 
L 35.015625 74.21875 
L 44.671875 74.21875 
L 44.671875 24.703125 
L 58.59375 24.703125 
L 58.59375 19.484375 
L 44.671875 19.484375 
L 44.671875 5.171875 
L 56.390625 5.171875 
z
" id="DejaVuSerif-52"/>
       </defs>
       <use xlink:href="#DejaVuSerif-8722"/>
       <use x="83.789062" xlink:href="#DejaVuSerif-52"/>
      </g>
     </g>
    </g>
    <g id="ytick_6">
     <g id="line2d_23">
      <path clip-path="url(#pcffbb7d148)" d="M 55.1 84.23531 
L 450 84.23531 
" style="fill:none;stroke:#b0b0b0;stroke-linecap:square;stroke-width:0.8;"/>
     </g>
     <g id="line2d_24">
      <g>
       <use style="stroke:#000000;stroke-width:0.8;" x="55.1" xlink:href="#mf95c9e3617" y="84.23531"/>
      </g>
     </g>
     <g id="text_13">
      <!-- −2 -->
      <g transform="translate(33.357813 88.034529)scale(0.1 -0.1)">
       <use xlink:href="#DejaVuSerif-8722"/>
       <use x="83.789062" xlink:href="#DejaVuSerif-50"/>
      </g>
     </g>
    </g>
    <g id="ytick_7">
     <g id="line2d_25">
      <path clip-path="url(#pcffbb7d148)" d="M 55.1 41.511313 
L 450 41.511313 
" style="fill:none;stroke:#b0b0b0;stroke-linecap:square;stroke-width:0.8;"/>
     </g>
     <g id="line2d_26">
      <g>
       <use style="stroke:#000000;stroke-width:0.8;" x="55.1" xlink:href="#mf95c9e3617" y="41.511313"/>
      </g>
     </g>
     <g id="text_14">
      <!-- 0 -->
      <g transform="translate(41.7375 45.310532)scale(0.1 -0.1)">
       <use xlink:href="#DejaVuSerif-48"/>
      </g>
     </g>
    </g>
    <g id="text_15">
     <!-- f2 -->
     <g transform="translate(20.499688 170.758437)rotate(-90)scale(0.12 -0.12)">
      <use xlink:href="#DejaVuSerif-102"/>
      <use x="37.011719" xlink:href="#DejaVuSerif-50"/>
     </g>
    </g>
   </g>
   <g id="line2d_27">
    <defs>
     <path d="M 0 3 
C 0.795609 3 1.55874 2.683901 2.12132 2.12132 
C 2.683901 1.55874 3 0.795609 3 0 
C 3 -0.795609 2.683901 -1.55874 2.12132 -2.12132 
C 1.55874 -2.683901 0.795609 -3 0 -3 
C -0.795609 -3 -1.55874 -2.683901 -2.12132 -2.12132 
C -2.683901 -1.55874 -3 -0.795609 -3 0 
C -3 0.795609 -2.683901 1.55874 -2.12132 2.12132 
C -1.55874 2.683901 -0.795609 3 0 3 
z
" id="mbf690b27cb" style="stroke:#000000;"/>
    </defs>
    <g clip-path="url(#pcffbb7d148)">
     <use style="fill:#ff0000;stroke:#000000;" x="432.05" xlink:href="#mbf690b27cb" y="289.047273"/>
     <use style="fill:#ff0000;stroke:#000000;" x="149.021486" xlink:href="#mbf690b27cb" y="52.139069"/>
     <use style="fill:#ff0000;stroke:#000000;" x="154.830098" xlink:href="#mbf690b27cb" y="56.259651"/>
     <use style="fill:#ff0000;stroke:#000000;" x="164.505965" xlink:href="#mbf690b27cb" y="68.010131"/>
     <use style="fill:#ff0000;stroke:#000000;" x="173.770233" xlink:href="#mbf690b27cb" y="84.062411"/>
     <use style="fill:#ff0000;stroke:#000000;" x="181.290401" xlink:href="#mbf690b27cb" y="93.99827"/>
     <use style="fill:#ff0000;stroke:#000000;" x="182.245761" xlink:href="#mbf690b27cb" y="96.443359"/>
     <use style="fill:#ff0000;stroke:#000000;" x="183.364812" xlink:href="#mbf690b27cb" y="97.187358"/>
     <use style="fill:#ff0000;stroke:#000000;" x="179.019842" xlink:href="#mbf690b27cb" y="90.711758"/>
     <use style="fill:#ff0000;stroke:#000000;" x="194.331967" xlink:href="#mbf690b27cb" y="114.593449"/>
     <use style="fill:#ff0000;stroke:#000000;" x="188.756785" xlink:href="#mbf690b27cb" y="104.367587"/>
     <use style="fill:#ff0000;stroke:#000000;" x="193.570433" xlink:href="#mbf690b27cb" y="113.123934"/>
     <use style="fill:#ff0000;stroke:#000000;" x="197.795695" xlink:href="#mbf690b27cb" y="119.358272"/>
     <use style="fill:#ff0000;stroke:#000000;" x="278.311782" xlink:href="#mbf690b27cb" y="135.115681"/>
     <use style="fill:#ff0000;stroke:#000000;" x="280.969764" xlink:href="#mbf690b27cb" y="138.480104"/>
     <use style="fill:#ff0000;stroke:#000000;" x="426.716866" xlink:href="#mbf690b27cb" y="287.098116"/>
     <use style="fill:#ff0000;stroke:#000000;" x="420.86646" xlink:href="#mbf690b27cb" y="284.933533"/>
     <use style="fill:#ff0000;stroke:#000000;" x="414.254494" xlink:href="#mbf690b27cb" y="279.898405"/>
     <use style="fill:#ff0000;stroke:#000000;" x="406.378236" xlink:href="#mbf690b27cb" y="270.43301"/>
     <use style="fill:#ff0000;stroke:#000000;" x="408.960258" xlink:href="#mbf690b27cb" y="274.389881"/>
     <use style="fill:#ff0000;stroke:#000000;" x="402.336083" xlink:href="#mbf690b27cb" y="265.190634"/>
     <use style="fill:#ff0000;stroke:#000000;" x="404.834868" xlink:href="#mbf690b27cb" y="269.795848"/>
     <use style="fill:#ff0000;stroke:#000000;" x="400.127505" xlink:href="#mbf690b27cb" y="264.316137"/>
     <use style="fill:#ff0000;stroke:#000000;" x="400.899425" xlink:href="#mbf690b27cb" y="264.628939"/>
     <use style="fill:#ff0000;stroke:#000000;" x="400.019763" xlink:href="#mbf690b27cb" y="263.938732"/>
     <use style="fill:#ff0000;stroke:#000000;" x="393.450173" xlink:href="#mbf690b27cb" y="255.054654"/>
     <use style="fill:#ff0000;stroke:#000000;" x="398.377321" xlink:href="#mbf690b27cb" y="261.437959"/>
     <use style="fill:#ff0000;stroke:#000000;" x="376.466726" xlink:href="#mbf690b27cb" y="232.089281"/>
     <use style="fill:#ff0000;stroke:#000000;" x="379.16038" xlink:href="#mbf690b27cb" y="235.546956"/>
     <use style="fill:#ff0000;stroke:#000000;" x="377.169839" xlink:href="#mbf690b27cb" y="232.471014"/>
     <use style="fill:#ff0000;stroke:#000000;" x="373.116185" xlink:href="#mbf690b27cb" y="227.36474"/>
     <use style="fill:#ff0000;stroke:#000000;" x="361.835076" xlink:href="#mbf690b27cb" y="213.896295"/>
     <use style="fill:#ff0000;stroke:#000000;" x="341.416425" xlink:href="#mbf690b27cb" y="206.346158"/>
     <use style="fill:#ff0000;stroke:#000000;" x="274.942068" xlink:href="#mbf690b27cb" y="131.919165"/>
     <use style="fill:#ff0000;stroke:#000000;" x="137.15645" xlink:href="#mbf690b27cb" y="42.859103"/>
     <use style="fill:#ff0000;stroke:#000000;" x="151.560425" xlink:href="#mbf690b27cb" y="55.272272"/>
     <use style="fill:#ff0000;stroke:#000000;" x="162.745424" xlink:href="#mbf690b27cb" y="66.69603"/>
     <use style="fill:#ff0000;stroke:#000000;" x="160.81442" xlink:href="#mbf690b27cb" y="65.030275"/>
     <use style="fill:#ff0000;stroke:#000000;" x="168.635198" xlink:href="#mbf690b27cb" y="75.306501"/>
     <use style="fill:#ff0000;stroke:#000000;" x="188.733654" xlink:href="#mbf690b27cb" y="104.109379"/>
     <use style="fill:#ff0000;stroke:#000000;" x="197.732925" xlink:href="#mbf690b27cb" y="118.075429"/>
     <use style="fill:#ff0000;stroke:#000000;" x="193.714699" xlink:href="#mbf690b27cb" y="113.565189"/>
     <use style="fill:#ff0000;stroke:#000000;" x="199.511415" xlink:href="#mbf690b27cb" y="119.800188"/>
     <use style="fill:#ff0000;stroke:#000000;" x="197.045007" xlink:href="#mbf690b27cb" y="117.575685"/>
     <use style="fill:#ff0000;stroke:#000000;" x="198.120688" xlink:href="#mbf690b27cb" y="119.378829"/>
     <use style="fill:#ff0000;stroke:#000000;" x="204.307563" xlink:href="#mbf690b27cb" y="123.131539"/>
     <use style="fill:#ff0000;stroke:#000000;" x="265.719093" xlink:href="#mbf690b27cb" y="124.717163"/>
     <use style="fill:#ff0000;stroke:#000000;" x="271.013273" xlink:href="#mbf690b27cb" y="128.708924"/>
     <use style="fill:#ff0000;stroke:#000000;" x="286.558393" xlink:href="#mbf690b27cb" y="145.293498"/>
     <use style="fill:#ff0000;stroke:#000000;" x="289.119901" xlink:href="#mbf690b27cb" y="150.180618"/>
     <use style="fill:#ff0000;stroke:#000000;" x="291.317444" xlink:href="#mbf690b27cb" y="153.606567"/>
     <use style="fill:#ff0000;stroke:#000000;" x="290.958664" xlink:href="#mbf690b27cb" y="152.876199"/>
     <use style="fill:#ff0000;stroke:#000000;" x="294.418891" xlink:href="#mbf690b27cb" y="158.871279"/>
     <use style="fill:#ff0000;stroke:#000000;" x="419.565746" xlink:href="#mbf690b27cb" y="284.5355"/>
     <use style="fill:#ff0000;stroke:#000000;" x="402.763563" xlink:href="#mbf690b27cb" y="267.673263"/>
     <use style="fill:#ff0000;stroke:#000000;" x="395.362282" xlink:href="#mbf690b27cb" y="257.176212"/>
     <use style="fill:#ff0000;stroke:#000000;" x="392.912507" xlink:href="#mbf690b27cb" y="253.24124"/>
     <use style="fill:#ff0000;stroke:#000000;" x="364.1143" xlink:href="#mbf690b27cb" y="215.819199"/>
     <use style="fill:#ff0000;stroke:#000000;" x="361.042431" xlink:href="#mbf690b27cb" y="213.248514"/>
     <use style="fill:#ff0000;stroke:#000000;" x="360.040299" xlink:href="#mbf690b27cb" y="212.14598"/>
     <use style="fill:#ff0000;stroke:#000000;" x="332.625403" xlink:href="#mbf690b27cb" y="205.211996"/>
     <use style="fill:#ff0000;stroke:#000000;" x="326.697929" xlink:href="#mbf690b27cb" y="199.900617"/>
     <use style="fill:#ff0000;stroke:#000000;" x="172.993039" xlink:href="#mbf690b27cb" y="83.743689"/>
     <use style="fill:#ff0000;stroke:#000000;" x="172.968631" xlink:href="#mbf690b27cb" y="79.518388"/>
     <use style="fill:#ff0000;stroke:#000000;" x="277.099205" xlink:href="#mbf690b27cb" y="133.997971"/>
     <use style="fill:#ff0000;stroke:#000000;" x="285.880142" xlink:href="#mbf690b27cb" y="144.866427"/>
     <use style="fill:#ff0000;stroke:#000000;" x="288.148915" xlink:href="#mbf690b27cb" y="148.98032"/>
     <use style="fill:#ff0000;stroke:#000000;" x="289.901016" xlink:href="#mbf690b27cb" y="151.358808"/>
     <use style="fill:#ff0000;stroke:#000000;" x="297.310356" xlink:href="#mbf690b27cb" y="161.295717"/>
     <use style="fill:#ff0000;stroke:#000000;" x="320.732187" xlink:href="#mbf690b27cb" y="195.186368"/>
     <use style="fill:#ff0000;stroke:#000000;" x="418.153147" xlink:href="#mbf690b27cb" y="282.873688"/>
     <use style="fill:#ff0000;stroke:#000000;" x="429.872904" xlink:href="#mbf690b27cb" y="288.788482"/>
     <use style="fill:#ff0000;stroke:#000000;" x="415.477466" xlink:href="#mbf690b27cb" y="281.276105"/>
     <use style="fill:#ff0000;stroke:#000000;" x="410.779066" xlink:href="#mbf690b27cb" y="276.199492"/>
     <use style="fill:#ff0000;stroke:#000000;" x="390.374897" xlink:href="#mbf690b27cb" y="250.834821"/>
     <use style="fill:#ff0000;stroke:#000000;" x="384.665399" xlink:href="#mbf690b27cb" y="243.009676"/>
     <use style="fill:#ff0000;stroke:#000000;" x="380.919601" xlink:href="#mbf690b27cb" y="236.740974"/>
     <use style="fill:#ff0000;stroke:#000000;" x="374.504845" xlink:href="#mbf690b27cb" y="228.743801"/>
     <use style="fill:#ff0000;stroke:#000000;" x="353.911493" xlink:href="#mbf690b27cb" y="206.429006"/>
     <use style="fill:#ff0000;stroke:#000000;" x="156.32015" xlink:href="#mbf690b27cb" y="61.598769"/>
     <use style="fill:#ff0000;stroke:#000000;" x="161.147621" xlink:href="#mbf690b27cb" y="65.648245"/>
     <use style="fill:#ff0000;stroke:#000000;" x="280.390905" xlink:href="#mbf690b27cb" y="136.949412"/>
     <use style="fill:#ff0000;stroke:#000000;" x="284.204265" xlink:href="#mbf690b27cb" y="142.679529"/>
     <use style="fill:#ff0000;stroke:#000000;" x="283.427641" xlink:href="#mbf690b27cb" y="141.809125"/>
     <use style="fill:#ff0000;stroke:#000000;" x="292.484561" xlink:href="#mbf690b27cb" y="153.947439"/>
     <use style="fill:#ff0000;stroke:#000000;" x="300.063805" xlink:href="#mbf690b27cb" y="167.549171"/>
     <use style="fill:#ff0000;stroke:#000000;" x="412.836508" xlink:href="#mbf690b27cb" y="278.677184"/>
     <use style="fill:#ff0000;stroke:#000000;" x="408.766329" xlink:href="#mbf690b27cb" y="273.867979"/>
     <use style="fill:#ff0000;stroke:#000000;" x="389.369279" xlink:href="#mbf690b27cb" y="249.705444"/>
     <use style="fill:#ff0000;stroke:#000000;" x="358.767336" xlink:href="#mbf690b27cb" y="209.253068"/>
     <use style="fill:#ff0000;stroke:#000000;" x="314.552025" xlink:href="#mbf690b27cb" y="187.611794"/>
     <use style="fill:#ff0000;stroke:#000000;" x="308.207812" xlink:href="#mbf690b27cb" y="179.46978"/>
     <use style="fill:#ff0000;stroke:#000000;" x="146.369014" xlink:href="#mbf690b27cb" y="49.527906"/>
     <use style="fill:#ff0000;stroke:#000000;" x="153.811194" xlink:href="#mbf690b27cb" y="56.09603"/>
     <use style="fill:#ff0000;stroke:#000000;" x="172.238812" xlink:href="#mbf690b27cb" y="79.430055"/>
     <use style="fill:#ff0000;stroke:#000000;" x="190.41355" xlink:href="#mbf690b27cb" y="110.097673"/>
     <use style="fill:#ff0000;stroke:#000000;" x="192.153015" xlink:href="#mbf690b27cb" y="112.011278"/>
     <use style="fill:#ff0000;stroke:#000000;" x="203.906651" xlink:href="#mbf690b27cb" y="121.915092"/>
     <use style="fill:#ff0000;stroke:#000000;" x="282.570067" xlink:href="#mbf690b27cb" y="140.678451"/>
     <use style="fill:#ff0000;stroke:#000000;" x="298.775279" xlink:href="#mbf690b27cb" y="164.873943"/>
     <use style="fill:#ff0000;stroke:#000000;" x="419.398028" xlink:href="#mbf690b27cb" y="284.394321"/>
     <use style="fill:#ff0000;stroke:#000000;" x="410.253051" xlink:href="#mbf690b27cb" y="274.524297"/>
     <use style="fill:#ff0000;stroke:#000000;" x="407.38232" xlink:href="#mbf690b27cb" y="272.36114"/>
     <use style="fill:#ff0000;stroke:#000000;" x="368.326086" xlink:href="#mbf690b27cb" y="220.5798"/>
     <use style="fill:#ff0000;stroke:#000000;" x="321.430163" xlink:href="#mbf690b27cb" y="195.749788"/>
     <use style="fill:#ff0000;stroke:#000000;" x="73.05" xlink:href="#mbf690b27cb" y="40.392727"/>
     <use style="fill:#ff0000;stroke:#000000;" x="143.745904" xlink:href="#mbf690b27cb" y="46.995369"/>
     <use style="fill:#ff0000;stroke:#000000;" x="133.71634" xlink:href="#mbf690b27cb" y="42.002542"/>
     <use style="fill:#ff0000;stroke:#000000;" x="139.814203" xlink:href="#mbf690b27cb" y="44.815061"/>
     <use style="fill:#ff0000;stroke:#000000;" x="144.971935" xlink:href="#mbf690b27cb" y="49.196781"/>
     <use style="fill:#ff0000;stroke:#000000;" x="165.444457" xlink:href="#mbf690b27cb" y="71.496228"/>
     <use style="fill:#ff0000;stroke:#000000;" x="170.234204" xlink:href="#mbf690b27cb" y="79.137435"/>
     <use style="fill:#ff0000;stroke:#000000;" x="196.104041" xlink:href="#mbf690b27cb" y="116.224943"/>
     <use style="fill:#ff0000;stroke:#000000;" x="265.340117" xlink:href="#mbf690b27cb" y="124.319572"/>
     <use style="fill:#ff0000;stroke:#000000;" x="266.696317" xlink:href="#mbf690b27cb" y="124.769907"/>
     <use style="fill:#ff0000;stroke:#000000;" x="272.077707" xlink:href="#mbf690b27cb" y="129.979972"/>
     <use style="fill:#ff0000;stroke:#000000;" x="276.118293" xlink:href="#mbf690b27cb" y="132.513411"/>
     <use style="fill:#ff0000;stroke:#000000;" x="277.206365" xlink:href="#mbf690b27cb" y="134.281037"/>
     <use style="fill:#ff0000;stroke:#000000;" x="279.181619" xlink:href="#mbf690b27cb" y="136.06012"/>
     <use style="fill:#ff0000;stroke:#000000;" x="282.343373" xlink:href="#mbf690b27cb" y="140.392089"/>
     <use style="fill:#ff0000;stroke:#000000;" x="285.193233" xlink:href="#mbf690b27cb" y="143.707451"/>
     <use style="fill:#ff0000;stroke:#000000;" x="289.287001" xlink:href="#mbf690b27cb" y="150.188129"/>
     <use style="fill:#ff0000;stroke:#000000;" x="323.015212" xlink:href="#mbf690b27cb" y="198.469942"/>
     <use style="fill:#ff0000;stroke:#000000;" x="298.494017" xlink:href="#mbf690b27cb" y="164.356526"/>
     <use style="fill:#ff0000;stroke:#000000;" x="301.774686" xlink:href="#mbf690b27cb" y="168.509895"/>
     <use style="fill:#ff0000;stroke:#000000;" x="303.285432" xlink:href="#mbf690b27cb" y="172.175673"/>
     <use style="fill:#ff0000;stroke:#000000;" x="307.83535" xlink:href="#mbf690b27cb" y="178.844589"/>
     <use style="fill:#ff0000;stroke:#000000;" x="308.258872" xlink:href="#mbf690b27cb" y="180.219644"/>
     <use style="fill:#ff0000;stroke:#000000;" x="312.598479" xlink:href="#mbf690b27cb" y="185.59984"/>
     <use style="fill:#ff0000;stroke:#000000;" x="312.306163" xlink:href="#mbf690b27cb" y="184.087647"/>
     <use style="fill:#ff0000;stroke:#000000;" x="314.070506" xlink:href="#mbf690b27cb" y="187.182487"/>
     <use style="fill:#ff0000;stroke:#000000;" x="317.48545" xlink:href="#mbf690b27cb" y="191.491958"/>
     <use style="fill:#ff0000;stroke:#000000;" x="316.068768" xlink:href="#mbf690b27cb" y="189.856269"/>
     <use style="fill:#ff0000;stroke:#000000;" x="319.21545" xlink:href="#mbf690b27cb" y="193.161637"/>
     <use style="fill:#ff0000;stroke:#000000;" x="320.14531" xlink:href="#mbf690b27cb" y="194.161038"/>
     <use style="fill:#ff0000;stroke:#000000;" x="321.798361" xlink:href="#mbf690b27cb" y="196.222436"/>
     <use style="fill:#ff0000;stroke:#000000;" x="328.536919" xlink:href="#mbf690b27cb" y="202.661789"/>
     <use style="fill:#ff0000;stroke:#000000;" x="327.818157" xlink:href="#mbf690b27cb" y="201.618904"/>
     <use style="fill:#ff0000;stroke:#000000;" x="330.729244" xlink:href="#mbf690b27cb" y="204.50029"/>
     <use style="fill:#ff0000;stroke:#000000;" x="336.227991" xlink:href="#mbf690b27cb" y="205.30692"/>
     <use style="fill:#ff0000;stroke:#000000;" x="354.417382" xlink:href="#mbf690b27cb" y="206.832648"/>
     <use style="fill:#ff0000;stroke:#000000;" x="358.597161" xlink:href="#mbf690b27cb" y="208.915385"/>
     <use style="fill:#ff0000;stroke:#000000;" x="356.435657" xlink:href="#mbf690b27cb" y="208.648049"/>
     <use style="fill:#ff0000;stroke:#000000;" x="359.951985" xlink:href="#mbf690b27cb" y="210.090551"/>
     <use style="fill:#ff0000;stroke:#000000;" x="360.934893" xlink:href="#mbf690b27cb" y="212.158243"/>
     <use style="fill:#ff0000;stroke:#000000;" x="366.315753" xlink:href="#mbf690b27cb" y="218.291479"/>
     <use style="fill:#ff0000;stroke:#000000;" x="369.099586" xlink:href="#mbf690b27cb" y="220.580119"/>
     <use style="fill:#ff0000;stroke:#000000;" x="380.369007" xlink:href="#mbf690b27cb" y="236.557731"/>
     <use style="fill:#ff0000;stroke:#000000;" x="378.353398" xlink:href="#mbf690b27cb" y="234.526073"/>
     <use style="fill:#ff0000;stroke:#000000;" x="379.52692" xlink:href="#mbf690b27cb" y="235.932211"/>
     <use style="fill:#ff0000;stroke:#000000;" x="380.556561" xlink:href="#mbf690b27cb" y="236.654561"/>
     <use style="fill:#ff0000;stroke:#000000;" x="381.002593" xlink:href="#mbf690b27cb" y="236.988822"/>
     <use style="fill:#ff0000;stroke:#000000;" x="382.18029" xlink:href="#mbf690b27cb" y="239.033767"/>
     <use style="fill:#ff0000;stroke:#000000;" x="383.491881" xlink:href="#mbf690b27cb" y="241.073598"/>
     <use style="fill:#ff0000;stroke:#000000;" x="386.115802" xlink:href="#mbf690b27cb" y="245.369981"/>
     <use style="fill:#ff0000;stroke:#000000;" x="385.773313" xlink:href="#mbf690b27cb" y="244.380757"/>
     <use style="fill:#ff0000;stroke:#000000;" x="386.797823" xlink:href="#mbf690b27cb" y="246.039616"/>
     <use style="fill:#ff0000;stroke:#000000;" x="388.625088" xlink:href="#mbf690b27cb" y="247.895733"/>
     <use style="fill:#ff0000;stroke:#000000;" x="391.674426" xlink:href="#mbf690b27cb" y="253.148253"/>
     <use style="fill:#ff0000;stroke:#000000;" x="391.537025" xlink:href="#mbf690b27cb" y="252.697814"/>
     <use style="fill:#ff0000;stroke:#000000;" x="397.787964" xlink:href="#mbf690b27cb" y="260.601814"/>
     <use style="fill:#ff0000;stroke:#000000;" x="416.362026" xlink:href="#mbf690b27cb" y="281.814832"/>
     <use style="fill:#ff0000;stroke:#000000;" x="424.699435" xlink:href="#mbf690b27cb" y="285.917589"/>
     <use style="fill:#ff0000;stroke:#000000;" x="417.604486" xlink:href="#mbf690b27cb" y="282.355615"/>
     <use style="fill:#ff0000;stroke:#000000;" x="419.250144" xlink:href="#mbf690b27cb" y="284.121451"/>
     <use style="fill:#ff0000;stroke:#000000;" x="407.114582" xlink:href="#mbf690b27cb" y="271.095615"/>
     <use style="fill:#ff0000;stroke:#000000;" x="405.520968" xlink:href="#mbf690b27cb" y="270.224839"/>
     <use style="fill:#ff0000;stroke:#000000;" x="397.844666" xlink:href="#mbf690b27cb" y="261.322883"/>
     <use style="fill:#ff0000;stroke:#000000;" x="398.45364" xlink:href="#mbf690b27cb" y="261.732031"/>
     <use style="fill:#ff0000;stroke:#000000;" x="396.997326" xlink:href="#mbf690b27cb" y="257.995706"/>
     <use style="fill:#ff0000;stroke:#000000;" x="393.559161" xlink:href="#mbf690b27cb" y="255.363667"/>
     <use style="fill:#ff0000;stroke:#000000;" x="388.038392" xlink:href="#mbf690b27cb" y="247.867882"/>
     <use style="fill:#ff0000;stroke:#000000;" x="382.916431" xlink:href="#mbf690b27cb" y="239.2871"/>
     <use style="fill:#ff0000;stroke:#000000;" x="381.122391" xlink:href="#mbf690b27cb" y="237.90385"/>
     <use style="fill:#ff0000;stroke:#000000;" x="376.133203" xlink:href="#mbf690b27cb" y="231.283558"/>
     <use style="fill:#ff0000;stroke:#000000;" x="373.991617" xlink:href="#mbf690b27cb" y="228.116705"/>
     <use style="fill:#ff0000;stroke:#000000;" x="370.731326" xlink:href="#mbf690b27cb" y="223.888537"/>
     <use style="fill:#ff0000;stroke:#000000;" x="370.117696" xlink:href="#mbf690b27cb" y="222.819111"/>
     <use style="fill:#ff0000;stroke:#000000;" x="339.586727" xlink:href="#mbf690b27cb" y="206.227419"/>
     <use style="fill:#ff0000;stroke:#000000;" x="336.290061" xlink:href="#mbf690b27cb" y="205.983205"/>
     <use style="fill:#ff0000;stroke:#000000;" x="336.231543" xlink:href="#mbf690b27cb" y="205.548495"/>
     <use style="fill:#ff0000;stroke:#000000;" x="337.964229" xlink:href="#mbf690b27cb" y="206.056506"/>
     <use style="fill:#ff0000;stroke:#000000;" x="332.554" xlink:href="#mbf690b27cb" y="204.525314"/>
     <use style="fill:#ff0000;stroke:#000000;" x="326.374917" xlink:href="#mbf690b27cb" y="198.900232"/>
     <use style="fill:#ff0000;stroke:#000000;" x="315.178068" xlink:href="#mbf690b27cb" y="189.31197"/>
     <use style="fill:#ff0000;stroke:#000000;" x="313.222324" xlink:href="#mbf690b27cb" y="186.107738"/>
     <use style="fill:#ff0000;stroke:#000000;" x="310.151595" xlink:href="#mbf690b27cb" y="182.654707"/>
     <use style="fill:#ff0000;stroke:#000000;" x="306.62751" xlink:href="#mbf690b27cb" y="177.104102"/>
     <use style="fill:#ff0000;stroke:#000000;" x="302.550296" xlink:href="#mbf690b27cb" y="170.852593"/>
     <use style="fill:#ff0000;stroke:#000000;" x="299.953923" xlink:href="#mbf690b27cb" y="166.189888"/>
     <use style="fill:#ff0000;stroke:#000000;" x="299.865235" xlink:href="#mbf690b27cb" y="165.775703"/>
     <use style="fill:#ff0000;stroke:#000000;" x="295.250527" xlink:href="#mbf690b27cb" y="159.595115"/>
     <use style="fill:#ff0000;stroke:#000000;" x="293.752181" xlink:href="#mbf690b27cb" y="156.637823"/>
     <use style="fill:#ff0000;stroke:#000000;" x="292.877633" xlink:href="#mbf690b27cb" y="156.02324"/>
     <use style="fill:#ff0000;stroke:#000000;" x="287.937711" xlink:href="#mbf690b27cb" y="148.050739"/>
     <use style="fill:#ff0000;stroke:#000000;" x="287.232401" xlink:href="#mbf690b27cb" y="146.099851"/>
     <use style="fill:#ff0000;stroke:#000000;" x="281.298215" xlink:href="#mbf690b27cb" y="139.196246"/>
     <use style="fill:#ff0000;stroke:#000000;" x="273.294312" xlink:href="#mbf690b27cb" y="130.212491"/>
     <use style="fill:#ff0000;stroke:#000000;" x="273.858982" xlink:href="#mbf690b27cb" y="130.627247"/>
     <use style="fill:#ff0000;stroke:#000000;" x="266.724172" xlink:href="#mbf690b27cb" y="126.107281"/>
     <use style="fill:#ff0000;stroke:#000000;" x="200.41874" xlink:href="#mbf690b27cb" y="121.501768"/>
     <use style="fill:#ff0000;stroke:#000000;" x="204.400089" xlink:href="#mbf690b27cb" y="123.182179"/>
     <use style="fill:#ff0000;stroke:#000000;" x="203.628109" xlink:href="#mbf690b27cb" y="121.542964"/>
     <use style="fill:#ff0000;stroke:#000000;" x="204.992875" xlink:href="#mbf690b27cb" y="123.633286"/>
     <use style="fill:#ff0000;stroke:#000000;" x="188.820109" xlink:href="#mbf690b27cb" y="107.286582"/>
     <use style="fill:#ff0000;stroke:#000000;" x="188.783402" xlink:href="#mbf690b27cb" y="107.147487"/>
     <use style="fill:#ff0000;stroke:#000000;" x="184.02747" xlink:href="#mbf690b27cb" y="102.514206"/>
     <use style="fill:#ff0000;stroke:#000000;" x="183.984531" xlink:href="#mbf690b27cb" y="101.235744"/>
     <use style="fill:#ff0000;stroke:#000000;" x="179.033779" xlink:href="#mbf690b27cb" y="91.52865"/>
     <use style="fill:#ff0000;stroke:#000000;" x="177.262262" xlink:href="#mbf690b27cb" y="86.530413"/>
     <use style="fill:#ff0000;stroke:#000000;" x="176.2472" xlink:href="#mbf690b27cb" y="84.518498"/>
     <use style="fill:#ff0000;stroke:#000000;" x="168.157695" xlink:href="#mbf690b27cb" y="72.904791"/>
     <use style="fill:#ff0000;stroke:#000000;" x="159.059067" xlink:href="#mbf690b27cb" y="61.693321"/>
     <use style="fill:#ff0000;stroke:#000000;" x="155.929329" xlink:href="#mbf690b27cb" y="56.614708"/>
     <use style="fill:#ff0000;stroke:#000000;" x="149.124792" xlink:href="#mbf690b27cb" y="53.911946"/>
     <use style="fill:#ff0000;stroke:#000000;" x="148.713097" xlink:href="#mbf690b27cb" y="50.237477"/>
     <use style="fill:#ff0000;stroke:#000000;" x="142.079244" xlink:href="#mbf690b27cb" y="46.11819"/>
     <use style="fill:#ff0000;stroke:#000000;" x="134.572498" xlink:href="#mbf690b27cb" y="42.191521"/>
     <use style="fill:#ff0000;stroke:#000000;" x="73.54637" xlink:href="#mbf690b27cb" y="40.435649"/>
     <use style="fill:#ff0000;stroke:#000000;" x="137.15645" xlink:href="#mbf690b27cb" y="42.859103"/>
     <use style="fill:#ff0000;stroke:#000000;" x="151.560425" xlink:href="#mbf690b27cb" y="55.272272"/>
     <use style="fill:#ff0000;stroke:#000000;" x="162.745424" xlink:href="#mbf690b27cb" y="66.69603"/>
     <use style="fill:#ff0000;stroke:#000000;" x="160.81442" xlink:href="#mbf690b27cb" y="65.030275"/>
     <use style="fill:#ff0000;stroke:#000000;" x="168.635198" xlink:href="#mbf690b27cb" y="75.306501"/>
     <use style="fill:#ff0000;stroke:#000000;" x="188.733654" xlink:href="#mbf690b27cb" y="104.109379"/>
     <use style="fill:#ff0000;stroke:#000000;" x="197.732925" xlink:href="#mbf690b27cb" y="118.075429"/>
     <use style="fill:#ff0000;stroke:#000000;" x="193.714699" xlink:href="#mbf690b27cb" y="113.565189"/>
     <use style="fill:#ff0000;stroke:#000000;" x="199.511415" xlink:href="#mbf690b27cb" y="119.800188"/>
     <use style="fill:#ff0000;stroke:#000000;" x="197.045007" xlink:href="#mbf690b27cb" y="117.575685"/>
     <use style="fill:#ff0000;stroke:#000000;" x="198.120688" xlink:href="#mbf690b27cb" y="119.378829"/>
     <use style="fill:#ff0000;stroke:#000000;" x="204.307563" xlink:href="#mbf690b27cb" y="123.131539"/>
     <use style="fill:#ff0000;stroke:#000000;" x="265.719093" xlink:href="#mbf690b27cb" y="124.717163"/>
     <use style="fill:#ff0000;stroke:#000000;" x="271.013273" xlink:href="#mbf690b27cb" y="128.708924"/>
     <use style="fill:#ff0000;stroke:#000000;" x="286.558393" xlink:href="#mbf690b27cb" y="145.293498"/>
     <use style="fill:#ff0000;stroke:#000000;" x="289.119901" xlink:href="#mbf690b27cb" y="150.180618"/>
     <use style="fill:#ff0000;stroke:#000000;" x="291.317444" xlink:href="#mbf690b27cb" y="153.606567"/>
     <use style="fill:#ff0000;stroke:#000000;" x="290.958664" xlink:href="#mbf690b27cb" y="152.876199"/>
     <use style="fill:#ff0000;stroke:#000000;" x="294.418891" xlink:href="#mbf690b27cb" y="158.871279"/>
     <use style="fill:#ff0000;stroke:#000000;" x="419.565746" xlink:href="#mbf690b27cb" y="284.5355"/>
     <use style="fill:#ff0000;stroke:#000000;" x="402.763563" xlink:href="#mbf690b27cb" y="267.673263"/>
     <use style="fill:#ff0000;stroke:#000000;" x="395.362282" xlink:href="#mbf690b27cb" y="257.176212"/>
     <use style="fill:#ff0000;stroke:#000000;" x="392.912507" xlink:href="#mbf690b27cb" y="253.24124"/>
     <use style="fill:#ff0000;stroke:#000000;" x="364.1143" xlink:href="#mbf690b27cb" y="215.819199"/>
     <use style="fill:#ff0000;stroke:#000000;" x="361.042431" xlink:href="#mbf690b27cb" y="213.248514"/>
     <use style="fill:#ff0000;stroke:#000000;" x="360.040299" xlink:href="#mbf690b27cb" y="212.14598"/>
     <use style="fill:#ff0000;stroke:#000000;" x="332.625403" xlink:href="#mbf690b27cb" y="205.211996"/>
     <use style="fill:#ff0000;stroke:#000000;" x="326.697929" xlink:href="#mbf690b27cb" y="199.900617"/>
     <use style="fill:#ff0000;stroke:#000000;" x="172.993039" xlink:href="#mbf690b27cb" y="83.743689"/>
     <use style="fill:#ff0000;stroke:#000000;" x="172.968631" xlink:href="#mbf690b27cb" y="79.518388"/>
     <use style="fill:#ff0000;stroke:#000000;" x="277.099205" xlink:href="#mbf690b27cb" y="133.997971"/>
     <use style="fill:#ff0000;stroke:#000000;" x="285.880142" xlink:href="#mbf690b27cb" y="144.866427"/>
     <use style="fill:#ff0000;stroke:#000000;" x="288.148915" xlink:href="#mbf690b27cb" y="148.98032"/>
     <use style="fill:#ff0000;stroke:#000000;" x="289.901016" xlink:href="#mbf690b27cb" y="151.358808"/>
     <use style="fill:#ff0000;stroke:#000000;" x="297.310356" xlink:href="#mbf690b27cb" y="161.295717"/>
     <use style="fill:#ff0000;stroke:#000000;" x="320.732187" xlink:href="#mbf690b27cb" y="195.186368"/>
     <use style="fill:#ff0000;stroke:#000000;" x="418.153147" xlink:href="#mbf690b27cb" y="282.873688"/>
     <use style="fill:#ff0000;stroke:#000000;" x="429.872904" xlink:href="#mbf690b27cb" y="288.788482"/>
     <use style="fill:#ff0000;stroke:#000000;" x="415.477466" xlink:href="#mbf690b27cb" y="281.276105"/>
     <use style="fill:#ff0000;stroke:#000000;" x="410.779066" xlink:href="#mbf690b27cb" y="276.199492"/>
     <use style="fill:#ff0000;stroke:#000000;" x="390.374897" xlink:href="#mbf690b27cb" y="250.834821"/>
     <use style="fill:#ff0000;stroke:#000000;" x="384.665399" xlink:href="#mbf690b27cb" y="243.009676"/>
     <use style="fill:#ff0000;stroke:#000000;" x="380.919601" xlink:href="#mbf690b27cb" y="236.740974"/>
     <use style="fill:#ff0000;stroke:#000000;" x="374.504845" xlink:href="#mbf690b27cb" y="228.743801"/>
     <use style="fill:#ff0000;stroke:#000000;" x="353.911493" xlink:href="#mbf690b27cb" y="206.429006"/>
     <use style="fill:#ff0000;stroke:#000000;" x="156.32015" xlink:href="#mbf690b27cb" y="61.598769"/>
     <use style="fill:#ff0000;stroke:#000000;" x="161.147621" xlink:href="#mbf690b27cb" y="65.648245"/>
     <use style="fill:#ff0000;stroke:#000000;" x="280.390905" xlink:href="#mbf690b27cb" y="136.949412"/>
     <use style="fill:#ff0000;stroke:#000000;" x="284.204265" xlink:href="#mbf690b27cb" y="142.679529"/>
     <use style="fill:#ff0000;stroke:#000000;" x="283.427641" xlink:href="#mbf690b27cb" y="141.809125"/>
     <use style="fill:#ff0000;stroke:#000000;" x="292.484561" xlink:href="#mbf690b27cb" y="153.947439"/>
     <use style="fill:#ff0000;stroke:#000000;" x="300.063805" xlink:href="#mbf690b27cb" y="167.549171"/>
     <use style="fill:#ff0000;stroke:#000000;" x="412.836508" xlink:href="#mbf690b27cb" y="278.677184"/>
     <use style="fill:#ff0000;stroke:#000000;" x="408.766329" xlink:href="#mbf690b27cb" y="273.867979"/>
     <use style="fill:#ff0000;stroke:#000000;" x="389.369279" xlink:href="#mbf690b27cb" y="249.705444"/>
     <use style="fill:#ff0000;stroke:#000000;" x="358.767336" xlink:href="#mbf690b27cb" y="209.253068"/>
     <use style="fill:#ff0000;stroke:#000000;" x="314.552025" xlink:href="#mbf690b27cb" y="187.611794"/>
     <use style="fill:#ff0000;stroke:#000000;" x="308.207812" xlink:href="#mbf690b27cb" y="179.46978"/>
     <use style="fill:#ff0000;stroke:#000000;" x="146.369014" xlink:href="#mbf690b27cb" y="49.527906"/>
     <use style="fill:#ff0000;stroke:#000000;" x="153.811194" xlink:href="#mbf690b27cb" y="56.09603"/>
     <use style="fill:#ff0000;stroke:#000000;" x="172.238812" xlink:href="#mbf690b27cb" y="79.430055"/>
     <use style="fill:#ff0000;stroke:#000000;" x="190.41355" xlink:href="#mbf690b27cb" y="110.097673"/>
     <use style="fill:#ff0000;stroke:#000000;" x="192.153015" xlink:href="#mbf690b27cb" y="112.011278"/>
     <use style="fill:#ff0000;stroke:#000000;" x="203.906651" xlink:href="#mbf690b27cb" y="121.915092"/>
     <use style="fill:#ff0000;stroke:#000000;" x="282.570067" xlink:href="#mbf690b27cb" y="140.678451"/>
     <use style="fill:#ff0000;stroke:#000000;" x="298.775279" xlink:href="#mbf690b27cb" y="164.873943"/>
     <use style="fill:#ff0000;stroke:#000000;" x="419.398028" xlink:href="#mbf690b27cb" y="284.394321"/>
     <use style="fill:#ff0000;stroke:#000000;" x="410.253051" xlink:href="#mbf690b27cb" y="274.524297"/>
     <use style="fill:#ff0000;stroke:#000000;" x="407.38232" xlink:href="#mbf690b27cb" y="272.36114"/>
     <use style="fill:#ff0000;stroke:#000000;" x="368.326086" xlink:href="#mbf690b27cb" y="220.5798"/>
     <use style="fill:#ff0000;stroke:#000000;" x="321.430163" xlink:href="#mbf690b27cb" y="195.749788"/>
    </g>
   </g>
   <g id="patch_3">
    <path d="M 55.1 301.48 
L 55.1 27.96 
" style="fill:none;stroke:#000000;stroke-linecap:square;stroke-linejoin:miter;stroke-width:0.8;"/>
   </g>
   <g id="patch_4">
    <path d="M 450 301.48 
L 450 27.96 
" style="fill:none;stroke:#000000;stroke-linecap:square;stroke-linejoin:miter;stroke-width:0.8;"/>
   </g>
   <g id="patch_5">
    <path d="M 55.1 301.48 
L 450 301.48 
" style="fill:none;stroke:#000000;stroke-linecap:square;stroke-linejoin:miter;stroke-width:0.8;"/>
   </g>
   <g id="patch_6">
    <path d="M 55.1 27.96 
L 450 27.96 
" style="fill:none;stroke:#000000;stroke-linecap:square;stroke-linejoin:miter;stroke-width:0.8;"/>
   </g>
   <g id="text_16">
    <!-- Optimisation bi-critères : Epsilon contrainte -->
    <g transform="translate(95.914062 21.96)scale(0.14 -0.14)">
     <defs>
      <path d="M 41.015625 3.8125 
Q 52.984375 3.8125 59.078125 12.03125 
Q 65.1875 20.265625 65.1875 36.375 
Q 65.1875 52.546875 59.078125 60.765625 
Q 52.984375 69 41.015625 69 
Q 29 69 22.890625 60.765625 
Q 16.796875 52.546875 16.796875 36.375 
Q 16.796875 20.265625 22.890625 12.03125 
Q 29 3.8125 41.015625 3.8125 
z
M 41.015625 -1.421875 
Q 33.59375 -1.421875 27.359375 1.015625 
Q 21.140625 3.46875 16.40625 8.203125 
Q 10.9375 13.671875 8.265625 20.609375 
Q 5.609375 27.546875 5.609375 36.375 
Q 5.609375 45.21875 8.265625 52.171875 
Q 10.9375 59.125 16.40625 64.59375 
Q 21.1875 69.390625 27.34375 71.796875 
Q 33.5 74.21875 41.015625 74.21875 
Q 56.890625 74.21875 66.65625 63.8125 
Q 76.421875 53.421875 76.421875 36.375 
Q 76.421875 27.640625 73.734375 20.625 
Q 71.046875 13.625 65.578125 8.203125 
Q 60.796875 3.421875 54.640625 1 
Q 48.484375 -1.421875 41.015625 -1.421875 
z
" id="DejaVuSerif-79"/>
      <path d="M 20.515625 28.515625 
L 20.515625 23.390625 
Q 20.515625 14.015625 24.09375 9.109375 
Q 27.6875 4.203125 34.515625 4.203125 
Q 41.40625 4.203125 44.9375 9.71875 
Q 48.484375 15.234375 48.484375 25.984375 
Q 48.484375 36.765625 44.9375 42.234375 
Q 41.40625 47.703125 34.515625 47.703125 
Q 27.6875 47.703125 24.09375 42.765625 
Q 20.515625 37.84375 20.515625 28.515625 
z
M 11.53125 46.6875 
L 2.875 46.6875 
L 2.875 51.90625 
L 20.515625 51.90625 
L 20.515625 43.796875 
Q 23.140625 48.6875 27.21875 51 
Q 31.296875 53.328125 37.3125 53.328125 
Q 46.875 53.328125 52.921875 45.75 
Q 58.984375 38.1875 58.984375 25.984375 
Q 58.984375 13.765625 52.921875 6.171875 
Q 46.875 -1.421875 37.3125 -1.421875 
Q 31.296875 -1.421875 27.21875 0.890625 
Q 23.140625 3.21875 20.515625 8.109375 
L 20.515625 -15.578125 
L 29 -15.578125 
L 29 -20.796875 
L 2.875 -20.796875 
L 2.875 -15.578125 
L 11.53125 -15.578125 
z
" id="DejaVuSerif-112"/>
      <path d="M 10.796875 46.6875 
L 2.875 46.6875 
L 2.875 51.90625 
L 10.796875 51.90625 
L 10.796875 68.015625 
L 19.828125 68.015625 
L 19.828125 51.90625 
L 36.71875 51.90625 
L 36.71875 46.6875 
L 19.828125 46.6875 
L 19.828125 13.71875 
Q 19.828125 7.125 21.09375 5.265625 
Q 22.359375 3.421875 25.78125 3.421875 
Q 29.296875 3.421875 30.90625 5.484375 
Q 32.515625 7.5625 32.625 12.203125 
L 39.40625 12.203125 
Q 39.015625 5.125 35.546875 1.84375 
Q 32.078125 -1.421875 25 -1.421875 
Q 17.234375 -1.421875 14.015625 2.015625 
Q 10.796875 5.46875 10.796875 13.71875 
z
" id="DejaVuSerif-116"/>
      <path d="M 9.71875 68.015625 
Q 9.71875 70.265625 11.34375 71.921875 
Q 12.984375 73.578125 15.28125 73.578125 
Q 17.53125 73.578125 19.15625 71.921875 
Q 20.796875 70.265625 20.796875 68.015625 
Q 20.796875 65.71875 19.1875 64.109375 
Q 17.578125 62.5 15.28125 62.5 
Q 12.984375 62.5 11.34375 64.109375 
Q 9.71875 65.71875 9.71875 68.015625 
z
M 21.1875 5.171875 
L 29.6875 5.171875 
L 29.6875 0 
L 3.609375 0 
L 3.609375 5.171875 
L 12.203125 5.171875 
L 12.203125 46.6875 
L 3.609375 46.6875 
L 3.609375 51.90625 
L 21.1875 51.90625 
z
" id="DejaVuSerif-105"/>
      <path d="M 51.8125 41.796875 
Q 54.390625 47.515625 58.421875 50.421875 
Q 62.453125 53.328125 67.828125 53.328125 
Q 75.984375 53.328125 79.984375 48.265625 
Q 83.984375 43.21875 83.984375 33.015625 
L 83.984375 5.171875 
L 92.09375 5.171875 
L 92.09375 0 
L 67.1875 0 
L 67.1875 5.171875 
L 75 5.171875 
L 75 31.984375 
Q 75 39.9375 72.65625 43.3125 
Q 70.3125 46.6875 64.890625 46.6875 
Q 58.890625 46.6875 55.734375 42.140625 
Q 52.59375 37.59375 52.59375 28.90625 
L 52.59375 5.171875 
L 60.40625 5.171875 
L 60.40625 0 
L 35.796875 0 
L 35.796875 5.171875 
L 43.609375 5.171875 
L 43.609375 32.328125 
Q 43.609375 40.09375 41.265625 43.390625 
Q 38.921875 46.6875 33.5 46.6875 
Q 27.484375 46.6875 24.328125 42.140625 
Q 21.1875 37.59375 21.1875 28.90625 
L 21.1875 5.171875 
L 29 5.171875 
L 29 0 
L 4.109375 0 
L 4.109375 5.171875 
L 12.203125 5.171875 
L 12.203125 46.78125 
L 3.609375 46.78125 
L 3.609375 51.90625 
L 21.1875 51.90625 
L 21.1875 42.671875 
Q 23.6875 47.859375 27.53125 50.59375 
Q 31.390625 53.328125 36.28125 53.328125 
Q 42.328125 53.328125 46.375 50.3125 
Q 50.4375 47.3125 51.8125 41.796875 
z
" id="DejaVuSerif-109"/>
      <path d="M 5.609375 2.875 
L 5.609375 14.984375 
L 10.796875 14.984375 
Q 10.984375 9.1875 14.421875 6.296875 
Q 17.875 3.421875 24.609375 3.421875 
Q 30.671875 3.421875 33.84375 5.6875 
Q 37.015625 7.953125 37.015625 12.3125 
Q 37.015625 15.71875 34.6875 17.8125 
Q 32.375 19.921875 24.90625 22.3125 
L 18.40625 24.515625 
Q 11.71875 26.65625 8.71875 29.875 
Q 5.71875 33.109375 5.71875 38.09375 
Q 5.71875 45.21875 10.9375 49.265625 
Q 16.15625 53.328125 25.390625 53.328125 
Q 29.5 53.328125 34.03125 52.25 
Q 38.578125 51.171875 43.40625 49.125 
L 43.40625 37.796875 
L 38.234375 37.796875 
Q 38.03125 42.828125 34.703125 45.65625 
Q 31.390625 48.484375 25.6875 48.484375 
Q 20.015625 48.484375 17.109375 46.484375 
Q 14.203125 44.484375 14.203125 40.484375 
Q 14.203125 37.203125 16.40625 35.21875 
Q 18.609375 33.25 25.203125 31.203125 
L 32.328125 29 
Q 39.703125 26.703125 42.9375 23.265625 
Q 46.1875 19.828125 46.1875 14.40625 
Q 46.1875 7.03125 40.546875 2.796875 
Q 34.90625 -1.421875 25 -1.421875 
Q 19.96875 -1.421875 15.1875 -0.34375 
Q 10.40625 0.734375 5.609375 2.875 
z
" id="DejaVuSerif-115"/>
      <path d="M 39.796875 16.3125 
L 39.796875 27.296875 
L 28.21875 27.296875 
Q 21.53125 27.296875 18.25 24.40625 
Q 14.984375 21.53125 14.984375 15.578125 
Q 14.984375 10.15625 18.296875 6.984375 
Q 21.625 3.8125 27.296875 3.8125 
Q 32.90625 3.8125 36.34375 7.28125 
Q 39.796875 10.75 39.796875 16.3125 
z
M 48.78125 32.421875 
L 48.78125 5.171875 
L 56.78125 5.171875 
L 56.78125 0 
L 39.796875 0 
L 39.796875 5.609375 
Q 36.8125 2 32.90625 0.28125 
Q 29 -1.421875 23.78125 -1.421875 
Q 15.140625 -1.421875 10.0625 3.171875 
Q 4.984375 7.765625 4.984375 15.578125 
Q 4.984375 23.640625 10.796875 28.078125 
Q 16.609375 32.515625 27.203125 32.515625 
L 39.796875 32.515625 
L 39.796875 36.078125 
Q 39.796875 42 36.203125 45.234375 
Q 32.625 48.484375 26.125 48.484375 
Q 20.75 48.484375 17.578125 46.046875 
Q 14.40625 43.609375 13.625 38.8125 
L 8.984375 38.8125 
L 8.984375 49.3125 
Q 13.671875 51.3125 18.09375 52.3125 
Q 22.515625 53.328125 26.703125 53.328125 
Q 37.5 53.328125 43.140625 47.96875 
Q 48.78125 42.625 48.78125 32.421875 
z
" id="DejaVuSerif-97"/>
      <path d="M 30.078125 3.421875 
Q 37.3125 3.421875 40.984375 9.125 
Q 44.671875 14.84375 44.671875 25.984375 
Q 44.671875 37.109375 40.984375 42.796875 
Q 37.3125 48.484375 30.078125 48.484375 
Q 22.859375 48.484375 19.171875 42.796875 
Q 15.484375 37.109375 15.484375 25.984375 
Q 15.484375 14.84375 19.1875 9.125 
Q 22.90625 3.421875 30.078125 3.421875 
z
M 30.078125 -1.421875 
Q 18.75 -1.421875 11.859375 6.078125 
Q 4.984375 13.578125 4.984375 25.984375 
Q 4.984375 38.375 11.84375 45.84375 
Q 18.703125 53.328125 30.078125 53.328125 
Q 41.453125 53.328125 48.3125 45.84375 
Q 55.171875 38.375 55.171875 25.984375 
Q 55.171875 13.578125 48.3125 6.078125 
Q 41.453125 -1.421875 30.078125 -1.421875 
z
" id="DejaVuSerif-111"/>
      <path d="M 4.109375 0 
L 4.109375 5.171875 
L 12.203125 5.171875 
L 12.203125 46.6875 
L 3.609375 46.6875 
L 3.609375 51.90625 
L 21.1875 51.90625 
L 21.1875 42.671875 
Q 23.6875 47.953125 27.65625 50.640625 
Q 31.640625 53.328125 36.921875 53.328125 
Q 45.515625 53.328125 49.5625 48.390625 
Q 53.609375 43.453125 53.609375 33.015625 
L 53.609375 5.171875 
L 61.625 5.171875 
L 61.625 0 
L 36.8125 0 
L 36.8125 5.171875 
L 44.578125 5.171875 
L 44.578125 30.171875 
Q 44.578125 39.703125 42.234375 43.234375 
Q 39.890625 46.78125 33.984375 46.78125 
Q 27.734375 46.78125 24.453125 42.203125 
Q 21.1875 37.640625 21.1875 28.90625 
L 21.1875 5.171875 
L 29 5.171875 
L 29 0 
z
" id="DejaVuSerif-110"/>
      <path id="DejaVuSerif-32"/>
      <path d="M 11.53125 5.171875 
L 11.53125 70.796875 
L 2.875 70.796875 
L 2.875 75.984375 
L 20.515625 75.984375 
L 20.515625 43.796875 
Q 23.140625 48.6875 27.21875 51 
Q 31.296875 53.328125 37.3125 53.328125 
Q 46.875 53.328125 52.921875 45.75 
Q 58.984375 38.1875 58.984375 25.984375 
Q 58.984375 13.765625 52.921875 6.171875 
Q 46.875 -1.421875 37.3125 -1.421875 
Q 31.296875 -1.421875 27.21875 0.890625 
Q 23.140625 3.21875 20.515625 8.109375 
L 20.515625 0 
L 2.875 0 
L 2.875 5.171875 
z
M 20.515625 23.390625 
Q 20.515625 14.015625 24.09375 9.109375 
Q 27.6875 4.203125 34.515625 4.203125 
Q 41.40625 4.203125 44.9375 9.71875 
Q 48.484375 15.234375 48.484375 25.984375 
Q 48.484375 36.765625 44.9375 42.234375 
Q 41.40625 47.703125 34.515625 47.703125 
Q 27.6875 47.703125 24.09375 42.765625 
Q 20.515625 37.84375 20.515625 28.515625 
z
" id="DejaVuSerif-98"/>
      <path d="M 4.390625 30.609375 
L 29.390625 30.609375 
L 29.390625 23 
L 4.390625 23 
z
" id="DejaVuSerif-45"/>
      <path d="M 51.421875 15.578125 
Q 49.515625 7.28125 44.09375 2.921875 
Q 38.671875 -1.421875 30.078125 -1.421875 
Q 18.75 -1.421875 11.859375 6.078125 
Q 4.984375 13.578125 4.984375 25.984375 
Q 4.984375 38.421875 11.859375 45.875 
Q 18.75 53.328125 30.078125 53.328125 
Q 35.015625 53.328125 39.890625 52.171875 
Q 44.78125 51.03125 49.703125 48.6875 
L 49.703125 35.40625 
L 44.484375 35.40625 
Q 43.453125 42.234375 40.015625 45.359375 
Q 36.578125 48.484375 30.171875 48.484375 
Q 22.90625 48.484375 19.1875 42.84375 
Q 15.484375 37.203125 15.484375 25.984375 
Q 15.484375 14.75 19.171875 9.078125 
Q 22.859375 3.421875 30.171875 3.421875 
Q 35.984375 3.421875 39.453125 6.4375 
Q 42.921875 9.46875 44.1875 15.578125 
z
" id="DejaVuSerif-99"/>
      <path d="M 47.796875 52 
L 47.796875 39.015625 
L 42.625 39.015625 
Q 42.390625 42.875 40.484375 44.78125 
Q 38.578125 46.6875 34.90625 46.6875 
Q 28.265625 46.6875 24.71875 42.09375 
Q 21.1875 37.5 21.1875 28.90625 
L 21.1875 5.171875 
L 31.59375 5.171875 
L 31.59375 0 
L 4.109375 0 
L 4.109375 5.171875 
L 12.203125 5.171875 
L 12.203125 46.78125 
L 3.609375 46.78125 
L 3.609375 51.90625 
L 21.1875 51.90625 
L 21.1875 42.671875 
Q 23.828125 48.09375 27.96875 50.703125 
Q 32.125 53.328125 38.09375 53.328125 
Q 40.28125 53.328125 42.703125 52.984375 
Q 45.125 52.640625 47.796875 52 
z
" id="DejaVuSerif-114"/>
      <path d="M 54.203125 25 
L 15.484375 25 
L 15.484375 24.609375 
Q 15.484375 14.109375 19.4375 8.765625 
Q 23.390625 3.421875 31.109375 3.421875 
Q 37.015625 3.421875 40.796875 6.515625 
Q 44.578125 9.625 46.09375 15.71875 
L 53.328125 15.71875 
Q 51.171875 7.171875 45.375 2.875 
Q 39.59375 -1.421875 30.171875 -1.421875 
Q 18.796875 -1.421875 11.890625 6.078125 
Q 4.984375 13.578125 4.984375 25.984375 
Q 4.984375 38.28125 11.765625 45.796875 
Q 18.5625 53.328125 29.59375 53.328125 
Q 41.359375 53.328125 47.65625 46.0625 
Q 53.953125 38.8125 54.203125 25 
z
M 43.609375 30.171875 
Q 43.3125 39.265625 39.765625 43.875 
Q 36.234375 48.484375 29.59375 48.484375 
Q 23.390625 48.484375 19.828125 43.84375 
Q 16.265625 39.203125 15.484375 30.171875 
z
M 22.546875 79.890625 
L 35.234375 61.53125 
L 29.53125 61.53125 
L 12.921875 79.890625 
z
" id="DejaVuSerif-232"/>
      <path d="M 54.203125 25 
L 15.484375 25 
L 15.484375 24.609375 
Q 15.484375 14.109375 19.4375 8.765625 
Q 23.390625 3.421875 31.109375 3.421875 
Q 37.015625 3.421875 40.796875 6.515625 
Q 44.578125 9.625 46.09375 15.71875 
L 53.328125 15.71875 
Q 51.171875 7.171875 45.375 2.875 
Q 39.59375 -1.421875 30.171875 -1.421875 
Q 18.796875 -1.421875 11.890625 6.078125 
Q 4.984375 13.578125 4.984375 25.984375 
Q 4.984375 38.28125 11.765625 45.796875 
Q 18.5625 53.328125 29.59375 53.328125 
Q 41.359375 53.328125 47.65625 46.0625 
Q 53.953125 38.8125 54.203125 25 
z
M 43.609375 30.171875 
Q 43.3125 39.265625 39.765625 43.875 
Q 36.234375 48.484375 29.59375 48.484375 
Q 23.390625 48.484375 19.828125 43.84375 
Q 16.265625 39.203125 15.484375 30.171875 
z
" id="DejaVuSerif-101"/>
      <path d="M 10.40625 5.078125 
Q 10.40625 7.8125 12.28125 9.71875 
Q 14.15625 11.625 16.890625 11.625 
Q 19.625 11.625 21.5 9.71875 
Q 23.390625 7.8125 23.390625 5.078125 
Q 23.390625 2.34375 21.53125 0.453125 
Q 19.671875 -1.421875 16.890625 -1.421875 
Q 14.109375 -1.421875 12.25 0.453125 
Q 10.40625 2.34375 10.40625 5.078125 
z
M 10.40625 36.921875 
Q 10.40625 39.65625 12.28125 41.53125 
Q 14.15625 43.40625 16.890625 43.40625 
Q 19.671875 43.40625 21.53125 41.546875 
Q 23.390625 39.703125 23.390625 36.921875 
Q 23.390625 34.125 21.53125 32.265625 
Q 19.671875 30.421875 16.890625 30.421875 
Q 14.15625 30.421875 12.28125 32.296875 
Q 10.40625 34.1875 10.40625 36.921875 
z
" id="DejaVuSerif-58"/>
      <path d="M 5.515625 0 
L 5.515625 5.171875 
L 14.796875 5.171875 
L 14.796875 67.671875 
L 5.515625 67.671875 
L 5.515625 72.90625 
L 64.203125 72.90625 
L 64.203125 56.6875 
L 58.203125 56.6875 
L 58.203125 66.890625 
L 24.703125 66.890625 
L 24.703125 42.484375 
L 48.578125 42.484375 
L 48.578125 51.609375 
L 54.59375 51.609375 
L 54.59375 27.390625 
L 48.578125 27.390625 
L 48.578125 36.53125 
L 24.703125 36.53125 
L 24.703125 6 
L 58.984375 6 
L 58.984375 16.21875 
L 64.984375 16.21875 
L 64.984375 0 
z
" id="DejaVuSerif-69"/>
      <path d="M 20.515625 5.171875 
L 29 5.171875 
L 29 0 
L 2.875 0 
L 2.875 5.171875 
L 11.53125 5.171875 
L 11.53125 70.796875 
L 2.875 70.796875 
L 2.875 75.984375 
L 20.515625 75.984375 
z
" id="DejaVuSerif-108"/>
     </defs>
     <use xlink:href="#DejaVuSerif-79"/>
     <use x="81.982422" xlink:href="#DejaVuSerif-112"/>
     <use x="145.996094" xlink:href="#DejaVuSerif-116"/>
     <use x="186.181641" xlink:href="#DejaVuSerif-105"/>
     <use x="218.164062" xlink:href="#DejaVuSerif-109"/>
     <use x="312.988281" xlink:href="#DejaVuSerif-105"/>
     <use x="344.970703" xlink:href="#DejaVuSerif-115"/>
     <use x="396.289062" xlink:href="#DejaVuSerif-97"/>
     <use x="455.908203" xlink:href="#DejaVuSerif-116"/>
     <use x="496.09375" xlink:href="#DejaVuSerif-105"/>
     <use x="528.076172" xlink:href="#DejaVuSerif-111"/>
     <use x="588.28125" xlink:href="#DejaVuSerif-110"/>
     <use x="652.685547" xlink:href="#DejaVuSerif-32"/>
     <use x="684.472656" xlink:href="#DejaVuSerif-98"/>
     <use x="748.486328" xlink:href="#DejaVuSerif-105"/>
     <use x="780.46875" xlink:href="#DejaVuSerif-45"/>
     <use x="814.257812" xlink:href="#DejaVuSerif-99"/>
     <use x="870.263672" xlink:href="#DejaVuSerif-114"/>
     <use x="918.066406" xlink:href="#DejaVuSerif-105"/>
     <use x="950.048828" xlink:href="#DejaVuSerif-116"/>
     <use x="990.234375" xlink:href="#DejaVuSerif-232"/>
     <use x="1049.414062" xlink:href="#DejaVuSerif-114"/>
     <use x="1097.216797" xlink:href="#DejaVuSerif-101"/>
     <use x="1156.396484" xlink:href="#DejaVuSerif-115"/>
     <use x="1207.714844" xlink:href="#DejaVuSerif-32"/>
     <use x="1239.501953" xlink:href="#DejaVuSerif-58"/>
     <use x="1273.193359" xlink:href="#DejaVuSerif-32"/>
     <use x="1304.980469" xlink:href="#DejaVuSerif-69"/>
     <use x="1377.978516" xlink:href="#DejaVuSerif-112"/>
     <use x="1441.992188" xlink:href="#DejaVuSerif-115"/>
     <use x="1493.310547" xlink:href="#DejaVuSerif-105"/>
     <use x="1525.292969" xlink:href="#DejaVuSerif-108"/>
     <use x="1557.275391" xlink:href="#DejaVuSerif-111"/>
     <use x="1617.480469" xlink:href="#DejaVuSerif-110"/>
     <use x="1681.884766" xlink:href="#DejaVuSerif-32"/>
     <use x="1713.671875" xlink:href="#DejaVuSerif-99"/>
     <use x="1769.677734" xlink:href="#DejaVuSerif-111"/>
     <use x="1829.882812" xlink:href="#DejaVuSerif-110"/>
     <use x="1894.287109" xlink:href="#DejaVuSerif-116"/>
     <use x="1934.472656" xlink:href="#DejaVuSerif-114"/>
     <use x="1982.275391" xlink:href="#DejaVuSerif-97"/>
     <use x="2041.894531" xlink:href="#DejaVuSerif-105"/>
     <use x="2073.876953" xlink:href="#DejaVuSerif-110"/>
     <use x="2138.28125" xlink:href="#DejaVuSerif-116"/>
     <use x="2178.466797" xlink:href="#DejaVuSerif-101"/>
    </g>
   </g>
  </g>
 </g>
 <defs>
  <clipPath id="pcffbb7d148">
   <rect height="273.52" width="394.9" x="55.1" y="27.96"/>
  </clipPath>
 </defs>
</svg>
