<?xml version="1.0" encoding="utf-8" standalone="no"?>
<!DOCTYPE svg PUBLIC "-//W3C//DTD SVG 1.1//EN"
  "http://www.w3.org/Graphics/SVG/1.1/DTD/svg11.dtd">
<!-- Created with matplotlib (https://matplotlib.org/) -->
<svg height="345.6pt" version="1.1" viewBox="0 0 460.8 345.6" width="460.8pt" xmlns="http://www.w3.org/2000/svg" xmlns:xlink="http://www.w3.org/1999/xlink">
 <metadata>
  <rdf:RDF xmlns:cc="http://creativecommons.org/ns#" xmlns:dc="http://purl.org/dc/elements/1.1/" xmlns:rdf="http://www.w3.org/1999/02/22-rdf-syntax-ns#">
   <cc:Work>
    <dc:type rdf:resource="http://purl.org/dc/dcmitype/StillImage"/>
    <dc:date>2021-01-15T15:26:29.396380</dc:date>
    <dc:format>image/svg+xml</dc:format>
    <dc:creator>
     <cc:Agent>
      <dc:title>Matplotlib v3.3.2, https://matplotlib.org/</dc:title>
     </cc:Agent>
    </dc:creator>
   </cc:Work>
  </rdf:RDF>
 </metadata>
 <defs>
  <style type="text/css">*{stroke-linecap:butt;stroke-linejoin:round;}</style>
 </defs>
 <g id="figure_1">
  <g id="patch_1">
   <path d="M 0 345.6 
L 460.8 345.6 
L 460.8 0 
L 0 0 
z
" style="fill:#ffffff;"/>
  </g>
  <g id="axes_1">
   <g id="patch_2">
    <path d="M 46.73 301.48 
L 450 301.48 
L 450 27.96 
L 46.73 27.96 
z
" style="fill:#ffffff;"/>
   </g>
   <g id="matplotlib.axis_1">
    <g id="xtick_1">
     <g id="line2d_1">
      <path clip-path="url(#pd3214b06a8)" d="M 65.060415 301.48 
L 65.060415 27.96 
" style="fill:none;stroke:#b0b0b0;stroke-linecap:square;stroke-width:0.8;"/>
     </g>
     <g id="line2d_2">
      <defs>
       <path d="M 0 0 
L 0 3.5 
" id="m490d6ca9ad" style="stroke:#000000;stroke-width:0.8;"/>
      </defs>
      <g>
       <use style="stroke:#000000;stroke-width:0.8;" x="65.060415" xlink:href="#m490d6ca9ad" y="301.48"/>
      </g>
     </g>
     <g id="text_1">
      <!-- −10 -->
      <g transform="translate(54.508071 316.078437)scale(0.1 -0.1)">
       <defs>
        <path d="M 10.59375 35.296875 
L 73.1875 35.296875 
L 73.1875 27.390625 
L 10.59375 27.390625 
z
" id="DejaVuSerif-8722"/>
        <path d="M 14.203125 0 
L 14.203125 5.171875 
L 26.90625 5.171875 
L 26.90625 65.828125 
L 12.203125 56.296875 
L 12.203125 62.703125 
L 29.984375 74.21875 
L 36.71875 74.21875 
L 36.71875 5.171875 
L 49.421875 5.171875 
L 49.421875 0 
z
" id="DejaVuSerif-49"/>
        <path d="M 31.78125 3.421875 
Q 39.265625 3.421875 42.96875 11.625 
Q 46.6875 19.828125 46.6875 36.375 
Q 46.6875 52.984375 42.96875 61.1875 
Q 39.265625 69.390625 31.78125 69.390625 
Q 24.3125 69.390625 20.59375 61.1875 
Q 16.890625 52.984375 16.890625 36.375 
Q 16.890625 19.828125 20.59375 11.625 
Q 24.3125 3.421875 31.78125 3.421875 
z
M 31.78125 -1.421875 
Q 19.921875 -1.421875 13.25 8.53125 
Q 6.59375 18.5 6.59375 36.375 
Q 6.59375 54.296875 13.25 64.25 
Q 19.921875 74.21875 31.78125 74.21875 
Q 43.703125 74.21875 50.34375 64.25 
Q 56.984375 54.296875 56.984375 36.375 
Q 56.984375 18.5 50.34375 8.53125 
Q 43.703125 -1.421875 31.78125 -1.421875 
z
" id="DejaVuSerif-48"/>
       </defs>
       <use xlink:href="#DejaVuSerif-8722"/>
       <use x="83.789062" xlink:href="#DejaVuSerif-49"/>
       <use x="147.412109" xlink:href="#DejaVuSerif-48"/>
      </g>
     </g>
    </g>
    <g id="xtick_2">
     <g id="line2d_3">
      <path clip-path="url(#pd3214b06a8)" d="M 111.056027 301.48 
L 111.056027 27.96 
" style="fill:none;stroke:#b0b0b0;stroke-linecap:square;stroke-width:0.8;"/>
     </g>
     <g id="line2d_4">
      <g>
       <use style="stroke:#000000;stroke-width:0.8;" x="111.056027" xlink:href="#m490d6ca9ad" y="301.48"/>
      </g>
     </g>
     <g id="text_2">
      <!-- −8 -->
      <g transform="translate(103.684933 316.078437)scale(0.1 -0.1)">
       <defs>
        <path d="M 46.578125 19.921875 
Q 46.578125 27.734375 42.6875 32.046875 
Q 38.8125 36.375 31.78125 36.375 
Q 24.75 36.375 20.875 32.046875 
Q 17 27.734375 17 19.921875 
Q 17 12.0625 20.875 7.734375 
Q 24.75 3.421875 31.78125 3.421875 
Q 38.8125 3.421875 42.6875 7.734375 
Q 46.578125 12.0625 46.578125 19.921875 
z
M 44.578125 55.328125 
Q 44.578125 61.96875 41.203125 65.671875 
Q 37.84375 69.390625 31.78125 69.390625 
Q 25.78125 69.390625 22.390625 65.671875 
Q 19 61.96875 19 55.328125 
Q 19 48.640625 22.390625 44.921875 
Q 25.78125 41.21875 31.78125 41.21875 
Q 37.84375 41.21875 41.203125 44.921875 
Q 44.578125 48.640625 44.578125 55.328125 
z
M 39.3125 38.8125 
Q 47.609375 37.703125 52.25 32.6875 
Q 56.890625 27.6875 56.890625 19.921875 
Q 56.890625 9.671875 50.390625 4.125 
Q 43.890625 -1.421875 31.78125 -1.421875 
Q 19.734375 -1.421875 13.203125 4.125 
Q 6.6875 9.671875 6.6875 19.921875 
Q 6.6875 27.6875 11.328125 32.6875 
Q 15.96875 37.703125 24.3125 38.8125 
Q 16.9375 40.140625 13 44.40625 
Q 9.078125 48.6875 9.078125 55.328125 
Q 9.078125 64.109375 15.125 69.15625 
Q 21.1875 74.21875 31.78125 74.21875 
Q 42.390625 74.21875 48.4375 69.15625 
Q 54.5 64.109375 54.5 55.328125 
Q 54.5 48.6875 50.5625 44.40625 
Q 46.625 40.140625 39.3125 38.8125 
z
" id="DejaVuSerif-56"/>
       </defs>
       <use xlink:href="#DejaVuSerif-8722"/>
       <use x="83.789062" xlink:href="#DejaVuSerif-56"/>
      </g>
     </g>
    </g>
    <g id="xtick_3">
     <g id="line2d_5">
      <path clip-path="url(#pd3214b06a8)" d="M 157.051639 301.48 
L 157.051639 27.96 
" style="fill:none;stroke:#b0b0b0;stroke-linecap:square;stroke-width:0.8;"/>
     </g>
     <g id="line2d_6">
      <g>
       <use style="stroke:#000000;stroke-width:0.8;" x="157.051639" xlink:href="#m490d6ca9ad" y="301.48"/>
      </g>
     </g>
     <g id="text_3">
      <!-- −6 -->
      <g transform="translate(149.680545 316.078437)scale(0.1 -0.1)">
       <defs>
        <path d="M 32.71875 3.421875 
Q 39.59375 3.421875 43.296875 8.46875 
Q 47.015625 13.53125 47.015625 23 
Q 47.015625 32.46875 43.296875 37.515625 
Q 39.59375 42.578125 32.71875 42.578125 
Q 25.734375 42.578125 22.0625 37.6875 
Q 18.40625 32.8125 18.40625 23.578125 
Q 18.40625 13.875 22.109375 8.640625 
Q 25.828125 3.421875 32.71875 3.421875 
z
M 16.796875 40.140625 
Q 20.125 43.796875 24.3125 45.59375 
Q 28.515625 47.40625 33.796875 47.40625 
Q 44.671875 47.40625 51 40.859375 
Q 57.328125 34.328125 57.328125 23 
Q 57.328125 11.921875 50.515625 5.25 
Q 43.703125 -1.421875 32.328125 -1.421875 
Q 19.96875 -1.421875 13.328125 7.78125 
Q 6.6875 17 6.6875 34.078125 
Q 6.6875 53.21875 14.546875 63.71875 
Q 22.40625 74.21875 36.71875 74.21875 
Q 40.578125 74.21875 44.828125 73.484375 
Q 49.078125 72.75 53.515625 71.296875 
L 53.515625 59.28125 
L 48 59.28125 
Q 47.40625 64.203125 44.234375 66.796875 
Q 41.0625 69.390625 35.6875 69.390625 
Q 26.21875 69.390625 21.578125 62.203125 
Q 16.9375 55.03125 16.796875 40.140625 
z
" id="DejaVuSerif-54"/>
       </defs>
       <use xlink:href="#DejaVuSerif-8722"/>
       <use x="83.789062" xlink:href="#DejaVuSerif-54"/>
      </g>
     </g>
    </g>
    <g id="xtick_4">
     <g id="line2d_7">
      <path clip-path="url(#pd3214b06a8)" d="M 203.047251 301.48 
L 203.047251 27.96 
" style="fill:none;stroke:#b0b0b0;stroke-linecap:square;stroke-width:0.8;"/>
     </g>
     <g id="line2d_8">
      <g>
       <use style="stroke:#000000;stroke-width:0.8;" x="203.047251" xlink:href="#m490d6ca9ad" y="301.48"/>
      </g>
     </g>
     <g id="text_4">
      <!-- −4 -->
      <g transform="translate(195.676158 316.078437)scale(0.1 -0.1)">
       <defs>
        <path d="M 34.90625 24.703125 
L 34.90625 63.484375 
L 10.015625 24.703125 
z
M 56.390625 0 
L 23.1875 0 
L 23.1875 5.171875 
L 34.90625 5.171875 
L 34.90625 19.484375 
L 3.078125 19.484375 
L 3.078125 24.8125 
L 35.015625 74.21875 
L 44.671875 74.21875 
L 44.671875 24.703125 
L 58.59375 24.703125 
L 58.59375 19.484375 
L 44.671875 19.484375 
L 44.671875 5.171875 
L 56.390625 5.171875 
z
" id="DejaVuSerif-52"/>
       </defs>
       <use xlink:href="#DejaVuSerif-8722"/>
       <use x="83.789062" xlink:href="#DejaVuSerif-52"/>
      </g>
     </g>
    </g>
    <g id="xtick_5">
     <g id="line2d_9">
      <path clip-path="url(#pd3214b06a8)" d="M 249.042864 301.48 
L 249.042864 27.96 
" style="fill:none;stroke:#b0b0b0;stroke-linecap:square;stroke-width:0.8;"/>
     </g>
     <g id="line2d_10">
      <g>
       <use style="stroke:#000000;stroke-width:0.8;" x="249.042864" xlink:href="#m490d6ca9ad" y="301.48"/>
      </g>
     </g>
     <g id="text_5">
      <!-- −2 -->
      <g transform="translate(241.67177 316.078437)scale(0.1 -0.1)">
       <defs>
        <path d="M 12.796875 55.515625 
L 7.328125 55.515625 
L 7.328125 68.5 
Q 12.546875 71.296875 17.84375 72.75 
Q 23.140625 74.21875 28.21875 74.21875 
Q 39.59375 74.21875 46.1875 68.703125 
Q 52.78125 63.1875 52.78125 53.71875 
Q 52.78125 43.015625 37.84375 28.125 
Q 36.671875 27 36.078125 26.421875 
L 17.671875 8.015625 
L 48.09375 8.015625 
L 48.09375 17 
L 53.8125 17 
L 53.8125 0 
L 6.78125 0 
L 6.78125 5.328125 
L 28.90625 27.390625 
Q 36.234375 34.71875 39.359375 40.84375 
Q 42.484375 46.96875 42.484375 53.71875 
Q 42.484375 61.078125 38.640625 65.234375 
Q 34.8125 69.390625 28.078125 69.390625 
Q 21.09375 69.390625 17.28125 65.921875 
Q 13.484375 62.453125 12.796875 55.515625 
z
" id="DejaVuSerif-50"/>
       </defs>
       <use xlink:href="#DejaVuSerif-8722"/>
       <use x="83.789062" xlink:href="#DejaVuSerif-50"/>
      </g>
     </g>
    </g>
    <g id="xtick_6">
     <g id="line2d_11">
      <path clip-path="url(#pd3214b06a8)" d="M 295.038476 301.48 
L 295.038476 27.96 
" style="fill:none;stroke:#b0b0b0;stroke-linecap:square;stroke-width:0.8;"/>
     </g>
     <g id="line2d_12">
      <g>
       <use style="stroke:#000000;stroke-width:0.8;" x="295.038476" xlink:href="#m490d6ca9ad" y="301.48"/>
      </g>
     </g>
     <g id="text_6">
      <!-- 0 -->
      <g transform="translate(291.857226 316.078437)scale(0.1 -0.1)">
       <use xlink:href="#DejaVuSerif-48"/>
      </g>
     </g>
    </g>
    <g id="xtick_7">
     <g id="line2d_13">
      <path clip-path="url(#pd3214b06a8)" d="M 341.034088 301.48 
L 341.034088 27.96 
" style="fill:none;stroke:#b0b0b0;stroke-linecap:square;stroke-width:0.8;"/>
     </g>
     <g id="line2d_14">
      <g>
       <use style="stroke:#000000;stroke-width:0.8;" x="341.034088" xlink:href="#m490d6ca9ad" y="301.48"/>
      </g>
     </g>
     <g id="text_7">
      <!-- 2 -->
      <g transform="translate(337.852838 316.078437)scale(0.1 -0.1)">
       <use xlink:href="#DejaVuSerif-50"/>
      </g>
     </g>
    </g>
    <g id="xtick_8">
     <g id="line2d_15">
      <path clip-path="url(#pd3214b06a8)" d="M 387.0297 301.48 
L 387.0297 27.96 
" style="fill:none;stroke:#b0b0b0;stroke-linecap:square;stroke-width:0.8;"/>
     </g>
     <g id="line2d_16">
      <g>
       <use style="stroke:#000000;stroke-width:0.8;" x="387.0297" xlink:href="#m490d6ca9ad" y="301.48"/>
      </g>
     </g>
     <g id="text_8">
      <!-- 4 -->
      <g transform="translate(383.84845 316.078437)scale(0.1 -0.1)">
       <use xlink:href="#DejaVuSerif-52"/>
      </g>
     </g>
    </g>
    <g id="xtick_9">
     <g id="line2d_17">
      <path clip-path="url(#pd3214b06a8)" d="M 433.025312 301.48 
L 433.025312 27.96 
" style="fill:none;stroke:#b0b0b0;stroke-linecap:square;stroke-width:0.8;"/>
     </g>
     <g id="line2d_18">
      <g>
       <use style="stroke:#000000;stroke-width:0.8;" x="433.025312" xlink:href="#m490d6ca9ad" y="301.48"/>
      </g>
     </g>
     <g id="text_9">
      <!-- 6 -->
      <g transform="translate(429.844062 316.078437)scale(0.1 -0.1)">
       <use xlink:href="#DejaVuSerif-54"/>
      </g>
     </g>
    </g>
    <g id="text_10">
     <!-- f1 -->
     <g transform="translate(242.326563 331.27625)scale(0.12 -0.12)">
      <defs>
       <path d="M 43.015625 63.71875 
L 38.28125 63.71875 
Q 38.234375 67.390625 36.203125 69.28125 
Q 34.1875 71.1875 30.328125 71.1875 
Q 25.296875 71.1875 23.234375 68.421875 
Q 21.1875 65.671875 21.1875 58.59375 
L 21.1875 51.90625 
L 35.6875 51.90625 
L 35.6875 46.6875 
L 21.1875 46.6875 
L 21.1875 5.171875 
L 32.71875 5.171875 
L 32.71875 0 
L 3.609375 0 
L 3.609375 5.171875 
L 12.203125 5.171875 
L 12.203125 46.6875 
L 3.609375 46.6875 
L 3.609375 51.90625 
L 12.203125 51.90625 
L 12.203125 58.40625 
Q 12.203125 67.09375 16.71875 71.53125 
Q 21.234375 75.984375 29.984375 75.984375 
Q 33.25 75.984375 36.515625 75.390625 
Q 39.796875 74.8125 43.015625 73.578125 
z
" id="DejaVuSerif-102"/>
      </defs>
      <use xlink:href="#DejaVuSerif-102"/>
      <use x="37.011719" xlink:href="#DejaVuSerif-49"/>
     </g>
    </g>
   </g>
   <g id="matplotlib.axis_2">
    <g id="ytick_1">
     <g id="line2d_19">
      <path clip-path="url(#pd3214b06a8)" d="M 46.73 289.048119 
L 450 289.048119 
" style="fill:none;stroke:#b0b0b0;stroke-linecap:square;stroke-width:0.8;"/>
     </g>
     <g id="line2d_20">
      <defs>
       <path d="M 0 0 
L -3.5 0 
" id="mf53dfd5bcd" style="stroke:#000000;stroke-width:0.8;"/>
      </defs>
      <g>
       <use style="stroke:#000000;stroke-width:0.8;" x="46.73" xlink:href="#mf53dfd5bcd" y="289.048119"/>
      </g>
     </g>
     <g id="text_11">
      <!-- 20 -->
      <g transform="translate(27.005 292.847337)scale(0.1 -0.1)">
       <use xlink:href="#DejaVuSerif-50"/>
       <use x="63.623047" xlink:href="#DejaVuSerif-48"/>
      </g>
     </g>
    </g>
    <g id="ytick_2">
     <g id="line2d_21">
      <path clip-path="url(#pd3214b06a8)" d="M 46.73 257.945771 
L 450 257.945771 
" style="fill:none;stroke:#b0b0b0;stroke-linecap:square;stroke-width:0.8;"/>
     </g>
     <g id="line2d_22">
      <g>
       <use style="stroke:#000000;stroke-width:0.8;" x="46.73" xlink:href="#mf53dfd5bcd" y="257.945771"/>
      </g>
     </g>
     <g id="text_12">
      <!-- 22 -->
      <g transform="translate(27.005 261.74499)scale(0.1 -0.1)">
       <use xlink:href="#DejaVuSerif-50"/>
       <use x="63.623047" xlink:href="#DejaVuSerif-50"/>
      </g>
     </g>
    </g>
    <g id="ytick_3">
     <g id="line2d_23">
      <path clip-path="url(#pd3214b06a8)" d="M 46.73 226.843423 
L 450 226.843423 
" style="fill:none;stroke:#b0b0b0;stroke-linecap:square;stroke-width:0.8;"/>
     </g>
     <g id="line2d_24">
      <g>
       <use style="stroke:#000000;stroke-width:0.8;" x="46.73" xlink:href="#mf53dfd5bcd" y="226.843423"/>
      </g>
     </g>
     <g id="text_13">
      <!-- 24 -->
      <g transform="translate(27.005 230.642642)scale(0.1 -0.1)">
       <use xlink:href="#DejaVuSerif-50"/>
       <use x="63.623047" xlink:href="#DejaVuSerif-52"/>
      </g>
     </g>
    </g>
    <g id="ytick_4">
     <g id="line2d_25">
      <path clip-path="url(#pd3214b06a8)" d="M 46.73 195.741075 
L 450 195.741075 
" style="fill:none;stroke:#b0b0b0;stroke-linecap:square;stroke-width:0.8;"/>
     </g>
     <g id="line2d_26">
      <g>
       <use style="stroke:#000000;stroke-width:0.8;" x="46.73" xlink:href="#mf53dfd5bcd" y="195.741075"/>
      </g>
     </g>
     <g id="text_14">
      <!-- 26 -->
      <g transform="translate(27.005 199.540294)scale(0.1 -0.1)">
       <use xlink:href="#DejaVuSerif-50"/>
       <use x="63.623047" xlink:href="#DejaVuSerif-54"/>
      </g>
     </g>
    </g>
    <g id="ytick_5">
     <g id="line2d_27">
      <path clip-path="url(#pd3214b06a8)" d="M 46.73 164.638727 
L 450 164.638727 
" style="fill:none;stroke:#b0b0b0;stroke-linecap:square;stroke-width:0.8;"/>
     </g>
     <g id="line2d_28">
      <g>
       <use style="stroke:#000000;stroke-width:0.8;" x="46.73" xlink:href="#mf53dfd5bcd" y="164.638727"/>
      </g>
     </g>
     <g id="text_15">
      <!-- 28 -->
      <g transform="translate(27.005 168.437946)scale(0.1 -0.1)">
       <use xlink:href="#DejaVuSerif-50"/>
       <use x="63.623047" xlink:href="#DejaVuSerif-56"/>
      </g>
     </g>
    </g>
    <g id="ytick_6">
     <g id="line2d_29">
      <path clip-path="url(#pd3214b06a8)" d="M 46.73 133.536379 
L 450 133.536379 
" style="fill:none;stroke:#b0b0b0;stroke-linecap:square;stroke-width:0.8;"/>
     </g>
     <g id="line2d_30">
      <g>
       <use style="stroke:#000000;stroke-width:0.8;" x="46.73" xlink:href="#mf53dfd5bcd" y="133.536379"/>
      </g>
     </g>
     <g id="text_16">
      <!-- 30 -->
      <g transform="translate(27.005 137.335598)scale(0.1 -0.1)">
       <defs>
        <path d="M 9.71875 69.828125 
Q 15.4375 71.96875 20.671875 73.09375 
Q 25.921875 74.21875 30.515625 74.21875 
Q 41.21875 74.21875 47.21875 69.59375 
Q 53.21875 64.984375 53.21875 56.78125 
Q 53.21875 50.203125 49.0625 45.78125 
Q 44.921875 41.359375 37.3125 39.796875 
Q 46.296875 38.53125 51.25 33.28125 
Q 56.203125 28.03125 56.203125 19.671875 
Q 56.203125 9.46875 49.34375 4.015625 
Q 42.484375 -1.421875 29.59375 -1.421875 
Q 23.875 -1.421875 18.421875 -0.1875 
Q 12.984375 1.03125 7.625 3.515625 
L 7.625 17.671875 
L 13.09375 17.671875 
Q 13.578125 10.640625 17.828125 7.03125 
Q 22.078125 3.421875 29.78125 3.421875 
Q 37.25 3.421875 41.578125 7.734375 
Q 45.90625 12.0625 45.90625 19.578125 
Q 45.90625 28.171875 41.453125 32.59375 
Q 37.015625 37.015625 28.421875 37.015625 
L 23.78125 37.015625 
L 23.78125 42 
L 26.21875 42 
Q 34.765625 42 39.03125 45.53125 
Q 43.3125 49.078125 43.3125 56.203125 
Q 43.3125 62.59375 39.796875 65.984375 
Q 36.28125 69.390625 29.6875 69.390625 
Q 23.09375 69.390625 19.453125 66.265625 
Q 15.828125 63.140625 15.1875 56.984375 
L 9.71875 56.984375 
z
" id="DejaVuSerif-51"/>
       </defs>
       <use xlink:href="#DejaVuSerif-51"/>
       <use x="63.623047" xlink:href="#DejaVuSerif-48"/>
      </g>
     </g>
    </g>
    <g id="ytick_7">
     <g id="line2d_31">
      <path clip-path="url(#pd3214b06a8)" d="M 46.73 102.434031 
L 450 102.434031 
" style="fill:none;stroke:#b0b0b0;stroke-linecap:square;stroke-width:0.8;"/>
     </g>
     <g id="line2d_32">
      <g>
       <use style="stroke:#000000;stroke-width:0.8;" x="46.73" xlink:href="#mf53dfd5bcd" y="102.434031"/>
      </g>
     </g>
     <g id="text_17">
      <!-- 32 -->
      <g transform="translate(27.005 106.23325)scale(0.1 -0.1)">
       <use xlink:href="#DejaVuSerif-51"/>
       <use x="63.623047" xlink:href="#DejaVuSerif-50"/>
      </g>
     </g>
    </g>
    <g id="ytick_8">
     <g id="line2d_33">
      <path clip-path="url(#pd3214b06a8)" d="M 46.73 71.331683 
L 450 71.331683 
" style="fill:none;stroke:#b0b0b0;stroke-linecap:square;stroke-width:0.8;"/>
     </g>
     <g id="line2d_34">
      <g>
       <use style="stroke:#000000;stroke-width:0.8;" x="46.73" xlink:href="#mf53dfd5bcd" y="71.331683"/>
      </g>
     </g>
     <g id="text_18">
      <!-- 34 -->
      <g transform="translate(27.005 75.130902)scale(0.1 -0.1)">
       <use xlink:href="#DejaVuSerif-51"/>
       <use x="63.623047" xlink:href="#DejaVuSerif-52"/>
      </g>
     </g>
    </g>
    <g id="ytick_9">
     <g id="line2d_35">
      <path clip-path="url(#pd3214b06a8)" d="M 46.73 40.229335 
L 450 40.229335 
" style="fill:none;stroke:#b0b0b0;stroke-linecap:square;stroke-width:0.8;"/>
     </g>
     <g id="line2d_36">
      <g>
       <use style="stroke:#000000;stroke-width:0.8;" x="46.73" xlink:href="#mf53dfd5bcd" y="40.229335"/>
      </g>
     </g>
     <g id="text_19">
      <!-- 36 -->
      <g transform="translate(27.005 44.028554)scale(0.1 -0.1)">
       <use xlink:href="#DejaVuSerif-51"/>
       <use x="63.623047" xlink:href="#DejaVuSerif-54"/>
      </g>
     </g>
    </g>
    <g id="text_20">
     <!-- f2 -->
     <g transform="translate(20.509375 170.758437)rotate(-90)scale(0.12 -0.12)">
      <use xlink:href="#DejaVuSerif-102"/>
      <use x="37.011719" xlink:href="#DejaVuSerif-50"/>
     </g>
    </g>
   </g>
   <g id="line2d_37">
    <defs>
     <path d="M 0 3 
C 0.795609 3 1.55874 2.683901 2.12132 2.12132 
C 2.683901 1.55874 3 0.795609 3 0 
C 3 -0.795609 2.683901 -1.55874 2.12132 -2.12132 
C 1.55874 -2.683901 0.795609 -3 0 -3 
C -0.795609 -3 -1.55874 -2.683901 -2.12132 -2.12132 
C -2.683901 -1.55874 -3 -0.795609 -3 0 
C -3 0.795609 -2.683901 1.55874 -2.12132 2.12132 
C -1.55874 2.683901 -0.795609 3 0 3 
z
" id="m4607cdbbff" style="stroke:#000000;"/>
    </defs>
    <g clip-path="url(#pd3214b06a8)">
     <use style="fill:#ff0000;stroke:#000000;" x="65.060455" xlink:href="#m4607cdbbff" y="40.392727"/>
     <use style="fill:#ff0000;stroke:#000000;" x="431.669545" xlink:href="#m4607cdbbff" y="289.047273"/>
     <use style="fill:#ff0000;stroke:#000000;" x="65.138554" xlink:href="#m4607cdbbff" y="47.428259"/>
     <use style="fill:#ff0000;stroke:#000000;" x="65.481573" xlink:href="#m4607cdbbff" y="56.780294"/>
     <use style="fill:#ff0000;stroke:#000000;" x="65.453139" xlink:href="#m4607cdbbff" y="56.221277"/>
     <use style="fill:#ff0000;stroke:#000000;" x="65.869718" xlink:href="#m4607cdbbff" y="63.020184"/>
     <use style="fill:#ff0000;stroke:#000000;" x="66.156257" xlink:href="#m4607cdbbff" y="66.645461"/>
     <use style="fill:#ff0000;stroke:#000000;" x="66.938126" xlink:href="#m4607cdbbff" y="74.508375"/>
     <use style="fill:#ff0000;stroke:#000000;" x="66.999328" xlink:href="#m4607cdbbff" y="75.041681"/>
     <use style="fill:#ff0000;stroke:#000000;" x="67.909607" xlink:href="#m4607cdbbff" y="82.092289"/>
     <use style="fill:#ff0000;stroke:#000000;" x="69.398084" xlink:href="#m4607cdbbff" y="91.326594"/>
     <use style="fill:#ff0000;stroke:#000000;" x="69.282736" xlink:href="#m4607cdbbff" y="90.681357"/>
     <use style="fill:#ff0000;stroke:#000000;" x="70.023136" xlink:href="#m4607cdbbff" y="94.665822"/>
     <use style="fill:#ff0000;stroke:#000000;" x="72.111314" xlink:href="#m4607cdbbff" y="104.347698"/>
     <use style="fill:#ff0000;stroke:#000000;" x="75.123054" xlink:href="#m4607cdbbff" y="115.718525"/>
     <use style="fill:#ff0000;stroke:#000000;" x="73.674865" xlink:href="#m4607cdbbff" y="110.546129"/>
     <use style="fill:#ff0000;stroke:#000000;" x="74.977355" xlink:href="#m4607cdbbff" y="115.219102"/>
     <use style="fill:#ff0000;stroke:#000000;" x="76.426489" xlink:href="#m4607cdbbff" y="120.004723"/>
     <use style="fill:#ff0000;stroke:#000000;" x="78.07797" xlink:href="#m4607cdbbff" y="125.02658"/>
     <use style="fill:#ff0000;stroke:#000000;" x="79.601004" xlink:href="#m4607cdbbff" y="129.320791"/>
     <use style="fill:#ff0000;stroke:#000000;" x="81.341896" xlink:href="#m4607cdbbff" y="133.898119"/>
     <use style="fill:#ff0000;stroke:#000000;" x="83.254587" xlink:href="#m4607cdbbff" y="138.582682"/>
     <use style="fill:#ff0000;stroke:#000000;" x="85.149811" xlink:href="#m4607cdbbff" y="142.921725"/>
     <use style="fill:#ff0000;stroke:#000000;" x="89.949194" xlink:href="#m4607cdbbff" y="152.82257"/>
     <use style="fill:#ff0000;stroke:#000000;" x="90.926426" xlink:href="#m4607cdbbff" y="154.678131"/>
     <use style="fill:#ff0000;stroke:#000000;" x="92.607601" xlink:href="#m4607cdbbff" y="157.761558"/>
     <use style="fill:#ff0000;stroke:#000000;" x="98.151094" xlink:href="#m4607cdbbff" y="167.085625"/>
     <use style="fill:#ff0000;stroke:#000000;" x="98.198829" xlink:href="#m4607cdbbff" y="167.160946"/>
     <use style="fill:#ff0000;stroke:#000000;" x="102.254247" xlink:href="#m4607cdbbff" y="173.292961"/>
     <use style="fill:#ff0000;stroke:#000000;" x="105.889324" xlink:href="#m4607cdbbff" y="178.386112"/>
     <use style="fill:#ff0000;stroke:#000000;" x="111.325775" xlink:href="#m4607cdbbff" y="185.401195"/>
     <use style="fill:#ff0000;stroke:#000000;" x="121.807993" xlink:href="#m4607cdbbff" y="197.28306"/>
     <use style="fill:#ff0000;stroke:#000000;" x="120.099038" xlink:href="#m4607cdbbff" y="195.473527"/>
     <use style="fill:#ff0000;stroke:#000000;" x="121.622821" xlink:href="#m4607cdbbff" y="197.089167"/>
     <use style="fill:#ff0000;stroke:#000000;" x="126.753989" xlink:href="#m4607cdbbff" y="202.277146"/>
     <use style="fill:#ff0000;stroke:#000000;" x="132.129493" xlink:href="#m4607cdbbff" y="207.3341"/>
     <use style="fill:#ff0000;stroke:#000000;" x="143.579435" xlink:href="#m4607cdbbff" y="217.012571"/>
     <use style="fill:#ff0000;stroke:#000000;" x="142.627032" xlink:href="#m4607cdbbff" y="216.258173"/>
     <use style="fill:#ff0000;stroke:#000000;" x="148.93086" xlink:href="#m4607cdbbff" y="221.098424"/>
     <use style="fill:#ff0000;stroke:#000000;" x="157.551915" xlink:href="#m4607cdbbff" y="227.180793"/>
     <use style="fill:#ff0000;stroke:#000000;" x="163.813818" xlink:href="#m4607cdbbff" y="231.253868"/>
     <use style="fill:#ff0000;stroke:#000000;" x="171.151499" xlink:href="#m4607cdbbff" y="235.698249"/>
     <use style="fill:#ff0000;stroke:#000000;" x="190.566512" xlink:href="#m4607cdbbff" y="245.993092"/>
     <use style="fill:#ff0000;stroke:#000000;" x="200.483552" xlink:href="#m4607cdbbff" y="250.551204"/>
     <use style="fill:#ff0000;stroke:#000000;" x="224.51224" xlink:href="#m4607cdbbff" y="259.993143"/>
     <use style="fill:#ff0000;stroke:#000000;" x="248.142101" xlink:href="#m4607cdbbff" y="267.449488"/>
     <use style="fill:#ff0000;stroke:#000000;" x="256.867279" xlink:href="#m4607cdbbff" y="269.816494"/>
     <use style="fill:#ff0000;stroke:#000000;" x="277.03657" xlink:href="#m4607cdbbff" y="274.596168"/>
     <use style="fill:#ff0000;stroke:#000000;" x="301.990297" xlink:href="#m4607cdbbff" y="279.335671"/>
     <use style="fill:#ff0000;stroke:#000000;" x="341.834686" xlink:href="#m4607cdbbff" y="284.66532"/>
     <use style="fill:#ff0000;stroke:#000000;" x="405.380429" xlink:href="#m4607cdbbff" y="288.683168"/>
     <use style="fill:#ff0000;stroke:#000000;" x="412.842699" xlink:href="#m4607cdbbff" y="288.855664"/>
     <use style="fill:#ff0000;stroke:#000000;" x="409.718978" xlink:href="#m4607cdbbff" y="288.790338"/>
     <use style="fill:#ff0000;stroke:#000000;" x="397.941837" xlink:href="#m4607cdbbff" y="288.453961"/>
     <use style="fill:#ff0000;stroke:#000000;" x="393.66975" xlink:href="#m4607cdbbff" y="288.295736"/>
     <use style="fill:#ff0000;stroke:#000000;" x="387.73761" xlink:href="#m4607cdbbff" y="288.042989"/>
     <use style="fill:#ff0000;stroke:#000000;" x="374.213501" xlink:href="#m4607cdbbff" y="287.317773"/>
     <use style="fill:#ff0000;stroke:#000000;" x="372.417728" xlink:href="#m4607cdbbff" y="287.205367"/>
     <use style="fill:#ff0000;stroke:#000000;" x="359.542818" xlink:href="#m4607cdbbff" y="286.28369"/>
     <use style="fill:#ff0000;stroke:#000000;" x="339.939857" xlink:href="#m4607cdbbff" y="284.466708"/>
     <use style="fill:#ff0000;stroke:#000000;" x="347.282014" xlink:href="#m4607cdbbff" y="285.208308"/>
     <use style="fill:#ff0000;stroke:#000000;" x="306.144433" xlink:href="#m4607cdbbff" y="280.01209"/>
     <use style="fill:#ff0000;stroke:#000000;" x="321.889759" xlink:href="#m4607cdbbff" y="282.310716"/>
     <use style="fill:#ff0000;stroke:#000000;" x="325.65116" xlink:href="#m4607cdbbff" y="282.80062"/>
     <use style="fill:#ff0000;stroke:#000000;" x="318.999927" xlink:href="#m4607cdbbff" y="281.919211"/>
     <use style="fill:#ff0000;stroke:#000000;" x="303.163211" xlink:href="#m4607cdbbff" y="279.529732"/>
     <use style="fill:#ff0000;stroke:#000000;" x="308.75849" xlink:href="#m4607cdbbff" y="280.42236"/>
     <use style="fill:#ff0000;stroke:#000000;" x="301.719733" xlink:href="#m4607cdbbff" y="279.29056"/>
     <use style="fill:#ff0000;stroke:#000000;" x="287.492496" xlink:href="#m4607cdbbff" y="276.729066"/>
     <use style="fill:#ff0000;stroke:#000000;" x="286.260863" xlink:href="#m4607cdbbff" y="276.489233"/>
     <use style="fill:#ff0000;stroke:#000000;" x="279.379327" xlink:href="#m4607cdbbff" y="275.093453"/>
     <use style="fill:#ff0000;stroke:#000000;" x="251.240046" xlink:href="#m4607cdbbff" y="268.312019"/>
     <use style="fill:#ff0000;stroke:#000000;" x="263.350742" xlink:href="#m4607cdbbff" y="271.454219"/>
     <use style="fill:#ff0000;stroke:#000000;" x="252.990835" xlink:href="#m4607cdbbff" y="268.788599"/>
     <use style="fill:#ff0000;stroke:#000000;" x="251.212573" xlink:href="#m4607cdbbff" y="268.304479"/>
     <use style="fill:#ff0000;stroke:#000000;" x="244.30229" xlink:href="#m4607cdbbff" y="266.345459"/>
     <use style="fill:#ff0000;stroke:#000000;" x="234.248579" xlink:href="#m4607cdbbff" y="263.262624"/>
     <use style="fill:#ff0000;stroke:#000000;" x="222.153605" xlink:href="#m4607cdbbff" y="259.156184"/>
     <use style="fill:#ff0000;stroke:#000000;" x="196.772559" xlink:href="#m4607cdbbff" y="248.895443"/>
     <use style="fill:#ff0000;stroke:#000000;" x="192.386589" xlink:href="#m4607cdbbff" y="246.86212"/>
     <use style="fill:#ff0000;stroke:#000000;" x="186.040526" xlink:href="#m4607cdbbff" y="243.765104"/>
     <use style="fill:#ff0000;stroke:#000000;" x="177.072252" xlink:href="#m4607cdbbff" y="239.049595"/>
     <use style="fill:#ff0000;stroke:#000000;" x="170.445091" xlink:href="#m4607cdbbff" y="235.284835"/>
     <use style="fill:#ff0000;stroke:#000000;" x="165.19316" xlink:href="#m4607cdbbff" y="232.115339"/>
     <use style="fill:#ff0000;stroke:#000000;" x="154.197447" xlink:href="#m4607cdbbff" y="224.882996"/>
     <use style="fill:#ff0000;stroke:#000000;" x="150.446943" xlink:href="#m4607cdbbff" y="222.210957"/>
     <use style="fill:#ff0000;stroke:#000000;" x="141.875973" xlink:href="#m4607cdbbff" y="215.657194"/>
     <use style="fill:#ff0000;stroke:#000000;" x="136.119615" xlink:href="#m4607cdbbff" y="210.864493"/>
     <use style="fill:#ff0000;stroke:#000000;" x="129.421165" xlink:href="#m4607cdbbff" y="204.831643"/>
     <use style="fill:#ff0000;stroke:#000000;" x="120.426794" xlink:href="#m4607cdbbff" y="195.824102"/>
     <use style="fill:#ff0000;stroke:#000000;" x="112.446664" xlink:href="#m4607cdbbff" y="186.767997"/>
     <use style="fill:#ff0000;stroke:#000000;" x="107.623506" xlink:href="#m4607cdbbff" y="180.697235"/>
     <use style="fill:#ff0000;stroke:#000000;" x="99.678624" xlink:href="#m4607cdbbff" y="169.458274"/>
     <use style="fill:#ff0000;stroke:#000000;" x="93.761503" xlink:href="#m4607cdbbff" y="159.803776"/>
     <use style="fill:#ff0000;stroke:#000000;" x="86.30296" xlink:href="#m4607cdbbff" y="145.432598"/>
     <use style="fill:#ff0000;stroke:#000000;" x="79.13333" xlink:href="#m4607cdbbff" y="128.033172"/>
     <use style="fill:#ff0000;stroke:#000000;" x="71.952168" xlink:href="#m4607cdbbff" y="103.673459"/>
    </g>
   </g>
   <g id="patch_3">
    <path d="M 46.73 301.48 
L 46.73 27.96 
" style="fill:none;stroke:#000000;stroke-linecap:square;stroke-linejoin:miter;stroke-width:0.8;"/>
   </g>
   <g id="patch_4">
    <path d="M 450 301.48 
L 450 27.96 
" style="fill:none;stroke:#000000;stroke-linecap:square;stroke-linejoin:miter;stroke-width:0.8;"/>
   </g>
   <g id="patch_5">
    <path d="M 46.73 301.48 
L 450 301.48 
" style="fill:none;stroke:#000000;stroke-linecap:square;stroke-linejoin:miter;stroke-width:0.8;"/>
   </g>
   <g id="patch_6">
    <path d="M 46.73 27.96 
L 450 27.96 
" style="fill:none;stroke:#000000;stroke-linecap:square;stroke-linejoin:miter;stroke-width:0.8;"/>
   </g>
   <g id="text_21">
    <!-- Optimisation bi-critères : Epsilon contrainte -->
    <g transform="translate(91.729062 21.96)scale(0.14 -0.14)">
     <defs>
      <path d="M 41.015625 3.8125 
Q 52.984375 3.8125 59.078125 12.03125 
Q 65.1875 20.265625 65.1875 36.375 
Q 65.1875 52.546875 59.078125 60.765625 
Q 52.984375 69 41.015625 69 
Q 29 69 22.890625 60.765625 
Q 16.796875 52.546875 16.796875 36.375 
Q 16.796875 20.265625 22.890625 12.03125 
Q 29 3.8125 41.015625 3.8125 
z
M 41.015625 -1.421875 
Q 33.59375 -1.421875 27.359375 1.015625 
Q 21.140625 3.46875 16.40625 8.203125 
Q 10.9375 13.671875 8.265625 20.609375 
Q 5.609375 27.546875 5.609375 36.375 
Q 5.609375 45.21875 8.265625 52.171875 
Q 10.9375 59.125 16.40625 64.59375 
Q 21.1875 69.390625 27.34375 71.796875 
Q 33.5 74.21875 41.015625 74.21875 
Q 56.890625 74.21875 66.65625 63.8125 
Q 76.421875 53.421875 76.421875 36.375 
Q 76.421875 27.640625 73.734375 20.625 
Q 71.046875 13.625 65.578125 8.203125 
Q 60.796875 3.421875 54.640625 1 
Q 48.484375 -1.421875 41.015625 -1.421875 
z
" id="DejaVuSerif-79"/>
      <path d="M 20.515625 28.515625 
L 20.515625 23.390625 
Q 20.515625 14.015625 24.09375 9.109375 
Q 27.6875 4.203125 34.515625 4.203125 
Q 41.40625 4.203125 44.9375 9.71875 
Q 48.484375 15.234375 48.484375 25.984375 
Q 48.484375 36.765625 44.9375 42.234375 
Q 41.40625 47.703125 34.515625 47.703125 
Q 27.6875 47.703125 24.09375 42.765625 
Q 20.515625 37.84375 20.515625 28.515625 
z
M 11.53125 46.6875 
L 2.875 46.6875 
L 2.875 51.90625 
L 20.515625 51.90625 
L 20.515625 43.796875 
Q 23.140625 48.6875 27.21875 51 
Q 31.296875 53.328125 37.3125 53.328125 
Q 46.875 53.328125 52.921875 45.75 
Q 58.984375 38.1875 58.984375 25.984375 
Q 58.984375 13.765625 52.921875 6.171875 
Q 46.875 -1.421875 37.3125 -1.421875 
Q 31.296875 -1.421875 27.21875 0.890625 
Q 23.140625 3.21875 20.515625 8.109375 
L 20.515625 -15.578125 
L 29 -15.578125 
L 29 -20.796875 
L 2.875 -20.796875 
L 2.875 -15.578125 
L 11.53125 -15.578125 
z
" id="DejaVuSerif-112"/>
      <path d="M 10.796875 46.6875 
L 2.875 46.6875 
L 2.875 51.90625 
L 10.796875 51.90625 
L 10.796875 68.015625 
L 19.828125 68.015625 
L 19.828125 51.90625 
L 36.71875 51.90625 
L 36.71875 46.6875 
L 19.828125 46.6875 
L 19.828125 13.71875 
Q 19.828125 7.125 21.09375 5.265625 
Q 22.359375 3.421875 25.78125 3.421875 
Q 29.296875 3.421875 30.90625 5.484375 
Q 32.515625 7.5625 32.625 12.203125 
L 39.40625 12.203125 
Q 39.015625 5.125 35.546875 1.84375 
Q 32.078125 -1.421875 25 -1.421875 
Q 17.234375 -1.421875 14.015625 2.015625 
Q 10.796875 5.46875 10.796875 13.71875 
z
" id="DejaVuSerif-116"/>
      <path d="M 9.71875 68.015625 
Q 9.71875 70.265625 11.34375 71.921875 
Q 12.984375 73.578125 15.28125 73.578125 
Q 17.53125 73.578125 19.15625 71.921875 
Q 20.796875 70.265625 20.796875 68.015625 
Q 20.796875 65.71875 19.1875 64.109375 
Q 17.578125 62.5 15.28125 62.5 
Q 12.984375 62.5 11.34375 64.109375 
Q 9.71875 65.71875 9.71875 68.015625 
z
M 21.1875 5.171875 
L 29.6875 5.171875 
L 29.6875 0 
L 3.609375 0 
L 3.609375 5.171875 
L 12.203125 5.171875 
L 12.203125 46.6875 
L 3.609375 46.6875 
L 3.609375 51.90625 
L 21.1875 51.90625 
z
" id="DejaVuSerif-105"/>
      <path d="M 51.8125 41.796875 
Q 54.390625 47.515625 58.421875 50.421875 
Q 62.453125 53.328125 67.828125 53.328125 
Q 75.984375 53.328125 79.984375 48.265625 
Q 83.984375 43.21875 83.984375 33.015625 
L 83.984375 5.171875 
L 92.09375 5.171875 
L 92.09375 0 
L 67.1875 0 
L 67.1875 5.171875 
L 75 5.171875 
L 75 31.984375 
Q 75 39.9375 72.65625 43.3125 
Q 70.3125 46.6875 64.890625 46.6875 
Q 58.890625 46.6875 55.734375 42.140625 
Q 52.59375 37.59375 52.59375 28.90625 
L 52.59375 5.171875 
L 60.40625 5.171875 
L 60.40625 0 
L 35.796875 0 
L 35.796875 5.171875 
L 43.609375 5.171875 
L 43.609375 32.328125 
Q 43.609375 40.09375 41.265625 43.390625 
Q 38.921875 46.6875 33.5 46.6875 
Q 27.484375 46.6875 24.328125 42.140625 
Q 21.1875 37.59375 21.1875 28.90625 
L 21.1875 5.171875 
L 29 5.171875 
L 29 0 
L 4.109375 0 
L 4.109375 5.171875 
L 12.203125 5.171875 
L 12.203125 46.78125 
L 3.609375 46.78125 
L 3.609375 51.90625 
L 21.1875 51.90625 
L 21.1875 42.671875 
Q 23.6875 47.859375 27.53125 50.59375 
Q 31.390625 53.328125 36.28125 53.328125 
Q 42.328125 53.328125 46.375 50.3125 
Q 50.4375 47.3125 51.8125 41.796875 
z
" id="DejaVuSerif-109"/>
      <path d="M 5.609375 2.875 
L 5.609375 14.984375 
L 10.796875 14.984375 
Q 10.984375 9.1875 14.421875 6.296875 
Q 17.875 3.421875 24.609375 3.421875 
Q 30.671875 3.421875 33.84375 5.6875 
Q 37.015625 7.953125 37.015625 12.3125 
Q 37.015625 15.71875 34.6875 17.8125 
Q 32.375 19.921875 24.90625 22.3125 
L 18.40625 24.515625 
Q 11.71875 26.65625 8.71875 29.875 
Q 5.71875 33.109375 5.71875 38.09375 
Q 5.71875 45.21875 10.9375 49.265625 
Q 16.15625 53.328125 25.390625 53.328125 
Q 29.5 53.328125 34.03125 52.25 
Q 38.578125 51.171875 43.40625 49.125 
L 43.40625 37.796875 
L 38.234375 37.796875 
Q 38.03125 42.828125 34.703125 45.65625 
Q 31.390625 48.484375 25.6875 48.484375 
Q 20.015625 48.484375 17.109375 46.484375 
Q 14.203125 44.484375 14.203125 40.484375 
Q 14.203125 37.203125 16.40625 35.21875 
Q 18.609375 33.25 25.203125 31.203125 
L 32.328125 29 
Q 39.703125 26.703125 42.9375 23.265625 
Q 46.1875 19.828125 46.1875 14.40625 
Q 46.1875 7.03125 40.546875 2.796875 
Q 34.90625 -1.421875 25 -1.421875 
Q 19.96875 -1.421875 15.1875 -0.34375 
Q 10.40625 0.734375 5.609375 2.875 
z
" id="DejaVuSerif-115"/>
      <path d="M 39.796875 16.3125 
L 39.796875 27.296875 
L 28.21875 27.296875 
Q 21.53125 27.296875 18.25 24.40625 
Q 14.984375 21.53125 14.984375 15.578125 
Q 14.984375 10.15625 18.296875 6.984375 
Q 21.625 3.8125 27.296875 3.8125 
Q 32.90625 3.8125 36.34375 7.28125 
Q 39.796875 10.75 39.796875 16.3125 
z
M 48.78125 32.421875 
L 48.78125 5.171875 
L 56.78125 5.171875 
L 56.78125 0 
L 39.796875 0 
L 39.796875 5.609375 
Q 36.8125 2 32.90625 0.28125 
Q 29 -1.421875 23.78125 -1.421875 
Q 15.140625 -1.421875 10.0625 3.171875 
Q 4.984375 7.765625 4.984375 15.578125 
Q 4.984375 23.640625 10.796875 28.078125 
Q 16.609375 32.515625 27.203125 32.515625 
L 39.796875 32.515625 
L 39.796875 36.078125 
Q 39.796875 42 36.203125 45.234375 
Q 32.625 48.484375 26.125 48.484375 
Q 20.75 48.484375 17.578125 46.046875 
Q 14.40625 43.609375 13.625 38.8125 
L 8.984375 38.8125 
L 8.984375 49.3125 
Q 13.671875 51.3125 18.09375 52.3125 
Q 22.515625 53.328125 26.703125 53.328125 
Q 37.5 53.328125 43.140625 47.96875 
Q 48.78125 42.625 48.78125 32.421875 
z
" id="DejaVuSerif-97"/>
      <path d="M 30.078125 3.421875 
Q 37.3125 3.421875 40.984375 9.125 
Q 44.671875 14.84375 44.671875 25.984375 
Q 44.671875 37.109375 40.984375 42.796875 
Q 37.3125 48.484375 30.078125 48.484375 
Q 22.859375 48.484375 19.171875 42.796875 
Q 15.484375 37.109375 15.484375 25.984375 
Q 15.484375 14.84375 19.1875 9.125 
Q 22.90625 3.421875 30.078125 3.421875 
z
M 30.078125 -1.421875 
Q 18.75 -1.421875 11.859375 6.078125 
Q 4.984375 13.578125 4.984375 25.984375 
Q 4.984375 38.375 11.84375 45.84375 
Q 18.703125 53.328125 30.078125 53.328125 
Q 41.453125 53.328125 48.3125 45.84375 
Q 55.171875 38.375 55.171875 25.984375 
Q 55.171875 13.578125 48.3125 6.078125 
Q 41.453125 -1.421875 30.078125 -1.421875 
z
" id="DejaVuSerif-111"/>
      <path d="M 4.109375 0 
L 4.109375 5.171875 
L 12.203125 5.171875 
L 12.203125 46.6875 
L 3.609375 46.6875 
L 3.609375 51.90625 
L 21.1875 51.90625 
L 21.1875 42.671875 
Q 23.6875 47.953125 27.65625 50.640625 
Q 31.640625 53.328125 36.921875 53.328125 
Q 45.515625 53.328125 49.5625 48.390625 
Q 53.609375 43.453125 53.609375 33.015625 
L 53.609375 5.171875 
L 61.625 5.171875 
L 61.625 0 
L 36.8125 0 
L 36.8125 5.171875 
L 44.578125 5.171875 
L 44.578125 30.171875 
Q 44.578125 39.703125 42.234375 43.234375 
Q 39.890625 46.78125 33.984375 46.78125 
Q 27.734375 46.78125 24.453125 42.203125 
Q 21.1875 37.640625 21.1875 28.90625 
L 21.1875 5.171875 
L 29 5.171875 
L 29 0 
z
" id="DejaVuSerif-110"/>
      <path id="DejaVuSerif-32"/>
      <path d="M 11.53125 5.171875 
L 11.53125 70.796875 
L 2.875 70.796875 
L 2.875 75.984375 
L 20.515625 75.984375 
L 20.515625 43.796875 
Q 23.140625 48.6875 27.21875 51 
Q 31.296875 53.328125 37.3125 53.328125 
Q 46.875 53.328125 52.921875 45.75 
Q 58.984375 38.1875 58.984375 25.984375 
Q 58.984375 13.765625 52.921875 6.171875 
Q 46.875 -1.421875 37.3125 -1.421875 
Q 31.296875 -1.421875 27.21875 0.890625 
Q 23.140625 3.21875 20.515625 8.109375 
L 20.515625 0 
L 2.875 0 
L 2.875 5.171875 
z
M 20.515625 23.390625 
Q 20.515625 14.015625 24.09375 9.109375 
Q 27.6875 4.203125 34.515625 4.203125 
Q 41.40625 4.203125 44.9375 9.71875 
Q 48.484375 15.234375 48.484375 25.984375 
Q 48.484375 36.765625 44.9375 42.234375 
Q 41.40625 47.703125 34.515625 47.703125 
Q 27.6875 47.703125 24.09375 42.765625 
Q 20.515625 37.84375 20.515625 28.515625 
z
" id="DejaVuSerif-98"/>
      <path d="M 4.390625 30.609375 
L 29.390625 30.609375 
L 29.390625 23 
L 4.390625 23 
z
" id="DejaVuSerif-45"/>
      <path d="M 51.421875 15.578125 
Q 49.515625 7.28125 44.09375 2.921875 
Q 38.671875 -1.421875 30.078125 -1.421875 
Q 18.75 -1.421875 11.859375 6.078125 
Q 4.984375 13.578125 4.984375 25.984375 
Q 4.984375 38.421875 11.859375 45.875 
Q 18.75 53.328125 30.078125 53.328125 
Q 35.015625 53.328125 39.890625 52.171875 
Q 44.78125 51.03125 49.703125 48.6875 
L 49.703125 35.40625 
L 44.484375 35.40625 
Q 43.453125 42.234375 40.015625 45.359375 
Q 36.578125 48.484375 30.171875 48.484375 
Q 22.90625 48.484375 19.1875 42.84375 
Q 15.484375 37.203125 15.484375 25.984375 
Q 15.484375 14.75 19.171875 9.078125 
Q 22.859375 3.421875 30.171875 3.421875 
Q 35.984375 3.421875 39.453125 6.4375 
Q 42.921875 9.46875 44.1875 15.578125 
z
" id="DejaVuSerif-99"/>
      <path d="M 47.796875 52 
L 47.796875 39.015625 
L 42.625 39.015625 
Q 42.390625 42.875 40.484375 44.78125 
Q 38.578125 46.6875 34.90625 46.6875 
Q 28.265625 46.6875 24.71875 42.09375 
Q 21.1875 37.5 21.1875 28.90625 
L 21.1875 5.171875 
L 31.59375 5.171875 
L 31.59375 0 
L 4.109375 0 
L 4.109375 5.171875 
L 12.203125 5.171875 
L 12.203125 46.78125 
L 3.609375 46.78125 
L 3.609375 51.90625 
L 21.1875 51.90625 
L 21.1875 42.671875 
Q 23.828125 48.09375 27.96875 50.703125 
Q 32.125 53.328125 38.09375 53.328125 
Q 40.28125 53.328125 42.703125 52.984375 
Q 45.125 52.640625 47.796875 52 
z
" id="DejaVuSerif-114"/>
      <path d="M 54.203125 25 
L 15.484375 25 
L 15.484375 24.609375 
Q 15.484375 14.109375 19.4375 8.765625 
Q 23.390625 3.421875 31.109375 3.421875 
Q 37.015625 3.421875 40.796875 6.515625 
Q 44.578125 9.625 46.09375 15.71875 
L 53.328125 15.71875 
Q 51.171875 7.171875 45.375 2.875 
Q 39.59375 -1.421875 30.171875 -1.421875 
Q 18.796875 -1.421875 11.890625 6.078125 
Q 4.984375 13.578125 4.984375 25.984375 
Q 4.984375 38.28125 11.765625 45.796875 
Q 18.5625 53.328125 29.59375 53.328125 
Q 41.359375 53.328125 47.65625 46.0625 
Q 53.953125 38.8125 54.203125 25 
z
M 43.609375 30.171875 
Q 43.3125 39.265625 39.765625 43.875 
Q 36.234375 48.484375 29.59375 48.484375 
Q 23.390625 48.484375 19.828125 43.84375 
Q 16.265625 39.203125 15.484375 30.171875 
z
M 22.546875 79.890625 
L 35.234375 61.53125 
L 29.53125 61.53125 
L 12.921875 79.890625 
z
" id="DejaVuSerif-232"/>
      <path d="M 54.203125 25 
L 15.484375 25 
L 15.484375 24.609375 
Q 15.484375 14.109375 19.4375 8.765625 
Q 23.390625 3.421875 31.109375 3.421875 
Q 37.015625 3.421875 40.796875 6.515625 
Q 44.578125 9.625 46.09375 15.71875 
L 53.328125 15.71875 
Q 51.171875 7.171875 45.375 2.875 
Q 39.59375 -1.421875 30.171875 -1.421875 
Q 18.796875 -1.421875 11.890625 6.078125 
Q 4.984375 13.578125 4.984375 25.984375 
Q 4.984375 38.28125 11.765625 45.796875 
Q 18.5625 53.328125 29.59375 53.328125 
Q 41.359375 53.328125 47.65625 46.0625 
Q 53.953125 38.8125 54.203125 25 
z
M 43.609375 30.171875 
Q 43.3125 39.265625 39.765625 43.875 
Q 36.234375 48.484375 29.59375 48.484375 
Q 23.390625 48.484375 19.828125 43.84375 
Q 16.265625 39.203125 15.484375 30.171875 
z
" id="DejaVuSerif-101"/>
      <path d="M 10.40625 5.078125 
Q 10.40625 7.8125 12.28125 9.71875 
Q 14.15625 11.625 16.890625 11.625 
Q 19.625 11.625 21.5 9.71875 
Q 23.390625 7.8125 23.390625 5.078125 
Q 23.390625 2.34375 21.53125 0.453125 
Q 19.671875 -1.421875 16.890625 -1.421875 
Q 14.109375 -1.421875 12.25 0.453125 
Q 10.40625 2.34375 10.40625 5.078125 
z
M 10.40625 36.921875 
Q 10.40625 39.65625 12.28125 41.53125 
Q 14.15625 43.40625 16.890625 43.40625 
Q 19.671875 43.40625 21.53125 41.546875 
Q 23.390625 39.703125 23.390625 36.921875 
Q 23.390625 34.125 21.53125 32.265625 
Q 19.671875 30.421875 16.890625 30.421875 
Q 14.15625 30.421875 12.28125 32.296875 
Q 10.40625 34.1875 10.40625 36.921875 
z
" id="DejaVuSerif-58"/>
      <path d="M 5.515625 0 
L 5.515625 5.171875 
L 14.796875 5.171875 
L 14.796875 67.671875 
L 5.515625 67.671875 
L 5.515625 72.90625 
L 64.203125 72.90625 
L 64.203125 56.6875 
L 58.203125 56.6875 
L 58.203125 66.890625 
L 24.703125 66.890625 
L 24.703125 42.484375 
L 48.578125 42.484375 
L 48.578125 51.609375 
L 54.59375 51.609375 
L 54.59375 27.390625 
L 48.578125 27.390625 
L 48.578125 36.53125 
L 24.703125 36.53125 
L 24.703125 6 
L 58.984375 6 
L 58.984375 16.21875 
L 64.984375 16.21875 
L 64.984375 0 
z
" id="DejaVuSerif-69"/>
      <path d="M 20.515625 5.171875 
L 29 5.171875 
L 29 0 
L 2.875 0 
L 2.875 5.171875 
L 11.53125 5.171875 
L 11.53125 70.796875 
L 2.875 70.796875 
L 2.875 75.984375 
L 20.515625 75.984375 
z
" id="DejaVuSerif-108"/>
     </defs>
     <use xlink:href="#DejaVuSerif-79"/>
     <use x="81.982422" xlink:href="#DejaVuSerif-112"/>
     <use x="145.996094" xlink:href="#DejaVuSerif-116"/>
     <use x="186.181641" xlink:href="#DejaVuSerif-105"/>
     <use x="218.164062" xlink:href="#DejaVuSerif-109"/>
     <use x="312.988281" xlink:href="#DejaVuSerif-105"/>
     <use x="344.970703" xlink:href="#DejaVuSerif-115"/>
     <use x="396.289062" xlink:href="#DejaVuSerif-97"/>
     <use x="455.908203" xlink:href="#DejaVuSerif-116"/>
     <use x="496.09375" xlink:href="#DejaVuSerif-105"/>
     <use x="528.076172" xlink:href="#DejaVuSerif-111"/>
     <use x="588.28125" xlink:href="#DejaVuSerif-110"/>
     <use x="652.685547" xlink:href="#DejaVuSerif-32"/>
     <use x="684.472656" xlink:href="#DejaVuSerif-98"/>
     <use x="748.486328" xlink:href="#DejaVuSerif-105"/>
     <use x="780.46875" xlink:href="#DejaVuSerif-45"/>
     <use x="814.257812" xlink:href="#DejaVuSerif-99"/>
     <use x="870.263672" xlink:href="#DejaVuSerif-114"/>
     <use x="918.066406" xlink:href="#DejaVuSerif-105"/>
     <use x="950.048828" xlink:href="#DejaVuSerif-116"/>
     <use x="990.234375" xlink:href="#DejaVuSerif-232"/>
     <use x="1049.414062" xlink:href="#DejaVuSerif-114"/>
     <use x="1097.216797" xlink:href="#DejaVuSerif-101"/>
     <use x="1156.396484" xlink:href="#DejaVuSerif-115"/>
     <use x="1207.714844" xlink:href="#DejaVuSerif-32"/>
     <use x="1239.501953" xlink:href="#DejaVuSerif-58"/>
     <use x="1273.193359" xlink:href="#DejaVuSerif-32"/>
     <use x="1304.980469" xlink:href="#DejaVuSerif-69"/>
     <use x="1377.978516" xlink:href="#DejaVuSerif-112"/>
     <use x="1441.992188" xlink:href="#DejaVuSerif-115"/>
     <use x="1493.310547" xlink:href="#DejaVuSerif-105"/>
     <use x="1525.292969" xlink:href="#DejaVuSerif-108"/>
     <use x="1557.275391" xlink:href="#DejaVuSerif-111"/>
     <use x="1617.480469" xlink:href="#DejaVuSerif-110"/>
     <use x="1681.884766" xlink:href="#DejaVuSerif-32"/>
     <use x="1713.671875" xlink:href="#DejaVuSerif-99"/>
     <use x="1769.677734" xlink:href="#DejaVuSerif-111"/>
     <use x="1829.882812" xlink:href="#DejaVuSerif-110"/>
     <use x="1894.287109" xlink:href="#DejaVuSerif-116"/>
     <use x="1934.472656" xlink:href="#DejaVuSerif-114"/>
     <use x="1982.275391" xlink:href="#DejaVuSerif-97"/>
     <use x="2041.894531" xlink:href="#DejaVuSerif-105"/>
     <use x="2073.876953" xlink:href="#DejaVuSerif-110"/>
     <use x="2138.28125" xlink:href="#DejaVuSerif-116"/>
     <use x="2178.466797" xlink:href="#DejaVuSerif-101"/>
    </g>
   </g>
  </g>
 </g>
 <defs>
  <clipPath id="pd3214b06a8">
   <rect height="273.52" width="403.27" x="46.73" y="27.96"/>
  </clipPath>
 </defs>
</svg>
