<?xml version="1.0" encoding="utf-8" standalone="no"?>
<!DOCTYPE svg PUBLIC "-//W3C//DTD SVG 1.1//EN"
  "http://www.w3.org/Graphics/SVG/1.1/DTD/svg11.dtd">
<!-- Created with matplotlib (https://matplotlib.org/) -->
<svg height="288pt" version="1.1" viewBox="0 0 576 288" width="576pt" xmlns="http://www.w3.org/2000/svg" xmlns:xlink="http://www.w3.org/1999/xlink">
 <metadata>
  <rdf:RDF xmlns:cc="http://creativecommons.org/ns#" xmlns:dc="http://purl.org/dc/elements/1.1/" xmlns:rdf="http://www.w3.org/1999/02/22-rdf-syntax-ns#">
   <cc:Work>
    <dc:type rdf:resource="http://purl.org/dc/dcmitype/StillImage"/>
    <dc:date>2021-03-11T12:13:14.845887</dc:date>
    <dc:format>image/svg+xml</dc:format>
    <dc:creator>
     <cc:Agent>
      <dc:title>Matplotlib v3.3.2, https://matplotlib.org/</dc:title>
     </cc:Agent>
    </dc:creator>
   </cc:Work>
  </rdf:RDF>
 </metadata>
 <defs>
  <style type="text/css">*{stroke-linecap:butt;stroke-linejoin:round;}</style>
 </defs>
 <g id="figure_1">
  <g id="patch_1">
   <path d="M 0 288 
L 576 288 
L 576 0 
L 0 0 
z
" style="fill:#ffffff;"/>
  </g>
  <g id="axes_1">
   <g id="patch_2">
    <path d="M 69.77 245.32 
L 565.2 245.32 
L 565.2 26.16 
L 69.77 26.16 
z
" style="fill:#ffffff;"/>
   </g>
   <g id="matplotlib.axis_1">
    <g id="xtick_1">
     <g id="line2d_1">
      <path clip-path="url(#p4937927573)" d="M 92.289545 245.32 
L 92.289545 26.16 
" style="fill:none;stroke:#b0b0b0;stroke-linecap:square;stroke-width:0.8;"/>
     </g>
     <g id="line2d_2">
      <defs>
       <path d="M 0 0 
L 0 3.5 
" id="m93b1570b7a" style="stroke:#000000;stroke-width:0.8;"/>
      </defs>
      <g>
       <use style="stroke:#000000;stroke-width:0.8;" x="92.289545" xlink:href="#m93b1570b7a" y="245.32"/>
      </g>
     </g>
     <g id="text_1">
      <!-- 0 -->
      <g transform="translate(89.108295 259.918437)scale(0.1 -0.1)">
       <defs>
        <path d="M 31.78125 3.421875 
Q 39.265625 3.421875 42.96875 11.625 
Q 46.6875 19.828125 46.6875 36.375 
Q 46.6875 52.984375 42.96875 61.1875 
Q 39.265625 69.390625 31.78125 69.390625 
Q 24.3125 69.390625 20.59375 61.1875 
Q 16.890625 52.984375 16.890625 36.375 
Q 16.890625 19.828125 20.59375 11.625 
Q 24.3125 3.421875 31.78125 3.421875 
z
M 31.78125 -1.421875 
Q 19.921875 -1.421875 13.25 8.53125 
Q 6.59375 18.5 6.59375 36.375 
Q 6.59375 54.296875 13.25 64.25 
Q 19.921875 74.21875 31.78125 74.21875 
Q 43.703125 74.21875 50.34375 64.25 
Q 56.984375 54.296875 56.984375 36.375 
Q 56.984375 18.5 50.34375 8.53125 
Q 43.703125 -1.421875 31.78125 -1.421875 
z
" id="DejaVuSerif-48"/>
       </defs>
       <use xlink:href="#DejaVuSerif-48"/>
      </g>
     </g>
    </g>
    <g id="xtick_2">
     <g id="line2d_3">
      <path clip-path="url(#p4937927573)" d="M 167.605751 245.32 
L 167.605751 26.16 
" style="fill:none;stroke:#b0b0b0;stroke-linecap:square;stroke-width:0.8;"/>
     </g>
     <g id="line2d_4">
      <g>
       <use style="stroke:#000000;stroke-width:0.8;" x="167.605751" xlink:href="#m93b1570b7a" y="245.32"/>
      </g>
     </g>
     <g id="text_2">
      <!-- 50 -->
      <g transform="translate(161.243251 259.918437)scale(0.1 -0.1)">
       <defs>
        <path d="M 50.296875 72.90625 
L 50.296875 64.890625 
L 16.890625 64.890625 
L 16.890625 44 
Q 19.4375 45.75 22.828125 46.625 
Q 26.21875 47.515625 30.421875 47.515625 
Q 42.234375 47.515625 49.0625 40.96875 
Q 55.90625 34.421875 55.90625 23.09375 
Q 55.90625 11.53125 49 5.046875 
Q 42.09375 -1.421875 29.59375 -1.421875 
Q 24.5625 -1.421875 19.28125 -0.1875 
Q 14.015625 1.03125 8.5 3.515625 
L 8.5 17.671875 
L 14.015625 17.671875 
Q 14.453125 10.75 18.421875 7.078125 
Q 22.40625 3.421875 29.59375 3.421875 
Q 37.3125 3.421875 41.453125 8.5 
Q 45.609375 13.578125 45.609375 23.09375 
Q 45.609375 32.5625 41.484375 37.609375 
Q 37.359375 42.671875 29.59375 42.671875 
Q 25.203125 42.671875 21.84375 41.109375 
Q 18.5 39.546875 15.921875 36.28125 
L 11.71875 36.28125 
L 11.71875 72.90625 
z
" id="DejaVuSerif-53"/>
       </defs>
       <use xlink:href="#DejaVuSerif-53"/>
       <use x="63.623047" xlink:href="#DejaVuSerif-48"/>
      </g>
     </g>
    </g>
    <g id="xtick_3">
     <g id="line2d_5">
      <path clip-path="url(#p4937927573)" d="M 242.921957 245.32 
L 242.921957 26.16 
" style="fill:none;stroke:#b0b0b0;stroke-linecap:square;stroke-width:0.8;"/>
     </g>
     <g id="line2d_6">
      <g>
       <use style="stroke:#000000;stroke-width:0.8;" x="242.921957" xlink:href="#m93b1570b7a" y="245.32"/>
      </g>
     </g>
     <g id="text_3">
      <!-- 100 -->
      <g transform="translate(233.378207 259.918437)scale(0.1 -0.1)">
       <defs>
        <path d="M 14.203125 0 
L 14.203125 5.171875 
L 26.90625 5.171875 
L 26.90625 65.828125 
L 12.203125 56.296875 
L 12.203125 62.703125 
L 29.984375 74.21875 
L 36.71875 74.21875 
L 36.71875 5.171875 
L 49.421875 5.171875 
L 49.421875 0 
z
" id="DejaVuSerif-49"/>
       </defs>
       <use xlink:href="#DejaVuSerif-49"/>
       <use x="63.623047" xlink:href="#DejaVuSerif-48"/>
       <use x="127.246094" xlink:href="#DejaVuSerif-48"/>
      </g>
     </g>
    </g>
    <g id="xtick_4">
     <g id="line2d_7">
      <path clip-path="url(#p4937927573)" d="M 318.238162 245.32 
L 318.238162 26.16 
" style="fill:none;stroke:#b0b0b0;stroke-linecap:square;stroke-width:0.8;"/>
     </g>
     <g id="line2d_8">
      <g>
       <use style="stroke:#000000;stroke-width:0.8;" x="318.238162" xlink:href="#m93b1570b7a" y="245.32"/>
      </g>
     </g>
     <g id="text_4">
      <!-- 150 -->
      <g transform="translate(308.694412 259.918437)scale(0.1 -0.1)">
       <use xlink:href="#DejaVuSerif-49"/>
       <use x="63.623047" xlink:href="#DejaVuSerif-53"/>
       <use x="127.246094" xlink:href="#DejaVuSerif-48"/>
      </g>
     </g>
    </g>
    <g id="xtick_5">
     <g id="line2d_9">
      <path clip-path="url(#p4937927573)" d="M 393.554368 245.32 
L 393.554368 26.16 
" style="fill:none;stroke:#b0b0b0;stroke-linecap:square;stroke-width:0.8;"/>
     </g>
     <g id="line2d_10">
      <g>
       <use style="stroke:#000000;stroke-width:0.8;" x="393.554368" xlink:href="#m93b1570b7a" y="245.32"/>
      </g>
     </g>
     <g id="text_5">
      <!-- 200 -->
      <g transform="translate(384.010618 259.918437)scale(0.1 -0.1)">
       <defs>
        <path d="M 12.796875 55.515625 
L 7.328125 55.515625 
L 7.328125 68.5 
Q 12.546875 71.296875 17.84375 72.75 
Q 23.140625 74.21875 28.21875 74.21875 
Q 39.59375 74.21875 46.1875 68.703125 
Q 52.78125 63.1875 52.78125 53.71875 
Q 52.78125 43.015625 37.84375 28.125 
Q 36.671875 27 36.078125 26.421875 
L 17.671875 8.015625 
L 48.09375 8.015625 
L 48.09375 17 
L 53.8125 17 
L 53.8125 0 
L 6.78125 0 
L 6.78125 5.328125 
L 28.90625 27.390625 
Q 36.234375 34.71875 39.359375 40.84375 
Q 42.484375 46.96875 42.484375 53.71875 
Q 42.484375 61.078125 38.640625 65.234375 
Q 34.8125 69.390625 28.078125 69.390625 
Q 21.09375 69.390625 17.28125 65.921875 
Q 13.484375 62.453125 12.796875 55.515625 
z
" id="DejaVuSerif-50"/>
       </defs>
       <use xlink:href="#DejaVuSerif-50"/>
       <use x="63.623047" xlink:href="#DejaVuSerif-48"/>
       <use x="127.246094" xlink:href="#DejaVuSerif-48"/>
      </g>
     </g>
    </g>
    <g id="xtick_6">
     <g id="line2d_11">
      <path clip-path="url(#p4937927573)" d="M 468.870573 245.32 
L 468.870573 26.16 
" style="fill:none;stroke:#b0b0b0;stroke-linecap:square;stroke-width:0.8;"/>
     </g>
     <g id="line2d_12">
      <g>
       <use style="stroke:#000000;stroke-width:0.8;" x="468.870573" xlink:href="#m93b1570b7a" y="245.32"/>
      </g>
     </g>
     <g id="text_6">
      <!-- 250 -->
      <g transform="translate(459.326823 259.918437)scale(0.1 -0.1)">
       <use xlink:href="#DejaVuSerif-50"/>
       <use x="63.623047" xlink:href="#DejaVuSerif-53"/>
       <use x="127.246094" xlink:href="#DejaVuSerif-48"/>
      </g>
     </g>
    </g>
    <g id="xtick_7">
     <g id="line2d_13">
      <path clip-path="url(#p4937927573)" d="M 544.186779 245.32 
L 544.186779 26.16 
" style="fill:none;stroke:#b0b0b0;stroke-linecap:square;stroke-width:0.8;"/>
     </g>
     <g id="line2d_14">
      <g>
       <use style="stroke:#000000;stroke-width:0.8;" x="544.186779" xlink:href="#m93b1570b7a" y="245.32"/>
      </g>
     </g>
     <g id="text_7">
      <!-- 300 -->
      <g transform="translate(534.643029 259.918437)scale(0.1 -0.1)">
       <defs>
        <path d="M 9.71875 69.828125 
Q 15.4375 71.96875 20.671875 73.09375 
Q 25.921875 74.21875 30.515625 74.21875 
Q 41.21875 74.21875 47.21875 69.59375 
Q 53.21875 64.984375 53.21875 56.78125 
Q 53.21875 50.203125 49.0625 45.78125 
Q 44.921875 41.359375 37.3125 39.796875 
Q 46.296875 38.53125 51.25 33.28125 
Q 56.203125 28.03125 56.203125 19.671875 
Q 56.203125 9.46875 49.34375 4.015625 
Q 42.484375 -1.421875 29.59375 -1.421875 
Q 23.875 -1.421875 18.421875 -0.1875 
Q 12.984375 1.03125 7.625 3.515625 
L 7.625 17.671875 
L 13.09375 17.671875 
Q 13.578125 10.640625 17.828125 7.03125 
Q 22.078125 3.421875 29.78125 3.421875 
Q 37.25 3.421875 41.578125 7.734375 
Q 45.90625 12.0625 45.90625 19.578125 
Q 45.90625 28.171875 41.453125 32.59375 
Q 37.015625 37.015625 28.421875 37.015625 
L 23.78125 37.015625 
L 23.78125 42 
L 26.21875 42 
Q 34.765625 42 39.03125 45.53125 
Q 43.3125 49.078125 43.3125 56.203125 
Q 43.3125 62.59375 39.796875 65.984375 
Q 36.28125 69.390625 29.6875 69.390625 
Q 23.09375 69.390625 19.453125 66.265625 
Q 15.828125 63.140625 15.1875 56.984375 
L 9.71875 56.984375 
z
" id="DejaVuSerif-51"/>
       </defs>
       <use xlink:href="#DejaVuSerif-51"/>
       <use x="63.623047" xlink:href="#DejaVuSerif-48"/>
       <use x="127.246094" xlink:href="#DejaVuSerif-48"/>
      </g>
     </g>
    </g>
    <g id="text_8">
     <!-- Nombre de générations -->
     <g transform="translate(257.354531 273.996562)scale(0.1 -0.1)">
      <defs>
       <path d="M 4.890625 0 
L 4.890625 5.171875 
L 14.703125 5.171875 
L 14.703125 67.671875 
L 4.890625 67.671875 
L 4.890625 72.90625 
L 23.578125 72.90625 
L 67.28125 15.375 
L 67.28125 67.671875 
L 57.515625 67.671875 
L 57.515625 72.90625 
L 83.109375 72.90625 
L 83.109375 67.671875 
L 73.296875 67.671875 
L 73.296875 -1.421875 
L 67.390625 -1.421875 
L 20.703125 60.015625 
L 20.703125 5.171875 
L 30.515625 5.171875 
L 30.515625 0 
z
" id="DejaVuSerif-78"/>
       <path d="M 30.078125 3.421875 
Q 37.3125 3.421875 40.984375 9.125 
Q 44.671875 14.84375 44.671875 25.984375 
Q 44.671875 37.109375 40.984375 42.796875 
Q 37.3125 48.484375 30.078125 48.484375 
Q 22.859375 48.484375 19.171875 42.796875 
Q 15.484375 37.109375 15.484375 25.984375 
Q 15.484375 14.84375 19.1875 9.125 
Q 22.90625 3.421875 30.078125 3.421875 
z
M 30.078125 -1.421875 
Q 18.75 -1.421875 11.859375 6.078125 
Q 4.984375 13.578125 4.984375 25.984375 
Q 4.984375 38.375 11.84375 45.84375 
Q 18.703125 53.328125 30.078125 53.328125 
Q 41.453125 53.328125 48.3125 45.84375 
Q 55.171875 38.375 55.171875 25.984375 
Q 55.171875 13.578125 48.3125 6.078125 
Q 41.453125 -1.421875 30.078125 -1.421875 
z
" id="DejaVuSerif-111"/>
       <path d="M 51.8125 41.796875 
Q 54.390625 47.515625 58.421875 50.421875 
Q 62.453125 53.328125 67.828125 53.328125 
Q 75.984375 53.328125 79.984375 48.265625 
Q 83.984375 43.21875 83.984375 33.015625 
L 83.984375 5.171875 
L 92.09375 5.171875 
L 92.09375 0 
L 67.1875 0 
L 67.1875 5.171875 
L 75 5.171875 
L 75 31.984375 
Q 75 39.9375 72.65625 43.3125 
Q 70.3125 46.6875 64.890625 46.6875 
Q 58.890625 46.6875 55.734375 42.140625 
Q 52.59375 37.59375 52.59375 28.90625 
L 52.59375 5.171875 
L 60.40625 5.171875 
L 60.40625 0 
L 35.796875 0 
L 35.796875 5.171875 
L 43.609375 5.171875 
L 43.609375 32.328125 
Q 43.609375 40.09375 41.265625 43.390625 
Q 38.921875 46.6875 33.5 46.6875 
Q 27.484375 46.6875 24.328125 42.140625 
Q 21.1875 37.59375 21.1875 28.90625 
L 21.1875 5.171875 
L 29 5.171875 
L 29 0 
L 4.109375 0 
L 4.109375 5.171875 
L 12.203125 5.171875 
L 12.203125 46.78125 
L 3.609375 46.78125 
L 3.609375 51.90625 
L 21.1875 51.90625 
L 21.1875 42.671875 
Q 23.6875 47.859375 27.53125 50.59375 
Q 31.390625 53.328125 36.28125 53.328125 
Q 42.328125 53.328125 46.375 50.3125 
Q 50.4375 47.3125 51.8125 41.796875 
z
" id="DejaVuSerif-109"/>
       <path d="M 11.53125 5.171875 
L 11.53125 70.796875 
L 2.875 70.796875 
L 2.875 75.984375 
L 20.515625 75.984375 
L 20.515625 43.796875 
Q 23.140625 48.6875 27.21875 51 
Q 31.296875 53.328125 37.3125 53.328125 
Q 46.875 53.328125 52.921875 45.75 
Q 58.984375 38.1875 58.984375 25.984375 
Q 58.984375 13.765625 52.921875 6.171875 
Q 46.875 -1.421875 37.3125 -1.421875 
Q 31.296875 -1.421875 27.21875 0.890625 
Q 23.140625 3.21875 20.515625 8.109375 
L 20.515625 0 
L 2.875 0 
L 2.875 5.171875 
z
M 20.515625 23.390625 
Q 20.515625 14.015625 24.09375 9.109375 
Q 27.6875 4.203125 34.515625 4.203125 
Q 41.40625 4.203125 44.9375 9.71875 
Q 48.484375 15.234375 48.484375 25.984375 
Q 48.484375 36.765625 44.9375 42.234375 
Q 41.40625 47.703125 34.515625 47.703125 
Q 27.6875 47.703125 24.09375 42.765625 
Q 20.515625 37.84375 20.515625 28.515625 
z
" id="DejaVuSerif-98"/>
       <path d="M 47.796875 52 
L 47.796875 39.015625 
L 42.625 39.015625 
Q 42.390625 42.875 40.484375 44.78125 
Q 38.578125 46.6875 34.90625 46.6875 
Q 28.265625 46.6875 24.71875 42.09375 
Q 21.1875 37.5 21.1875 28.90625 
L 21.1875 5.171875 
L 31.59375 5.171875 
L 31.59375 0 
L 4.109375 0 
L 4.109375 5.171875 
L 12.203125 5.171875 
L 12.203125 46.78125 
L 3.609375 46.78125 
L 3.609375 51.90625 
L 21.1875 51.90625 
L 21.1875 42.671875 
Q 23.828125 48.09375 27.96875 50.703125 
Q 32.125 53.328125 38.09375 53.328125 
Q 40.28125 53.328125 42.703125 52.984375 
Q 45.125 52.640625 47.796875 52 
z
" id="DejaVuSerif-114"/>
       <path d="M 54.203125 25 
L 15.484375 25 
L 15.484375 24.609375 
Q 15.484375 14.109375 19.4375 8.765625 
Q 23.390625 3.421875 31.109375 3.421875 
Q 37.015625 3.421875 40.796875 6.515625 
Q 44.578125 9.625 46.09375 15.71875 
L 53.328125 15.71875 
Q 51.171875 7.171875 45.375 2.875 
Q 39.59375 -1.421875 30.171875 -1.421875 
Q 18.796875 -1.421875 11.890625 6.078125 
Q 4.984375 13.578125 4.984375 25.984375 
Q 4.984375 38.28125 11.765625 45.796875 
Q 18.5625 53.328125 29.59375 53.328125 
Q 41.359375 53.328125 47.65625 46.0625 
Q 53.953125 38.8125 54.203125 25 
z
M 43.609375 30.171875 
Q 43.3125 39.265625 39.765625 43.875 
Q 36.234375 48.484375 29.59375 48.484375 
Q 23.390625 48.484375 19.828125 43.84375 
Q 16.265625 39.203125 15.484375 30.171875 
z
" id="DejaVuSerif-101"/>
       <path id="DejaVuSerif-32"/>
       <path d="M 52.484375 5.171875 
L 61.078125 5.171875 
L 61.078125 0 
L 43.5 0 
L 43.5 8.109375 
Q 40.875 3.21875 36.796875 0.890625 
Q 32.71875 -1.421875 26.703125 -1.421875 
Q 17.140625 -1.421875 11.0625 6.171875 
Q 4.984375 13.765625 4.984375 25.984375 
Q 4.984375 38.1875 11.03125 45.75 
Q 17.09375 53.328125 26.703125 53.328125 
Q 32.71875 53.328125 36.796875 51 
Q 40.875 48.6875 43.5 43.796875 
L 43.5 70.796875 
L 35.015625 70.796875 
L 35.015625 75.984375 
L 52.484375 75.984375 
z
M 43.5 23.390625 
L 43.5 28.515625 
Q 43.5 37.84375 39.90625 42.765625 
Q 36.328125 47.703125 29.5 47.703125 
Q 22.5625 47.703125 19.015625 42.234375 
Q 15.484375 36.765625 15.484375 25.984375 
Q 15.484375 15.234375 19.015625 9.71875 
Q 22.5625 4.203125 29.5 4.203125 
Q 36.328125 4.203125 39.90625 9.109375 
Q 43.5 14.015625 43.5 23.390625 
z
" id="DejaVuSerif-100"/>
       <path d="M 52.484375 46.6875 
L 52.484375 1.125 
Q 52.484375 -10.0625 46.328125 -16.140625 
Q 40.1875 -22.21875 28.8125 -22.21875 
Q 23.6875 -22.21875 19 -21.28125 
Q 14.3125 -20.359375 10.015625 -18.5 
L 10.015625 -7.625 
L 14.703125 -7.625 
Q 15.578125 -12.703125 18.84375 -15.046875 
Q 22.125 -17.390625 28.21875 -17.390625 
Q 36.140625 -17.390625 39.8125 -12.921875 
Q 43.5 -8.453125 43.5 1.125 
L 43.5 8.109375 
Q 40.875 3.21875 36.796875 0.890625 
Q 32.71875 -1.421875 26.703125 -1.421875 
Q 17.140625 -1.421875 11.0625 6.171875 
Q 4.984375 13.765625 4.984375 25.984375 
Q 4.984375 38.1875 11.03125 45.75 
Q 17.09375 53.328125 26.703125 53.328125 
Q 32.71875 53.328125 36.796875 51 
Q 40.875 48.6875 43.5 43.796875 
L 43.5 51.90625 
L 61.078125 51.90625 
L 61.078125 46.6875 
z
M 43.5 28.515625 
Q 43.5 37.84375 39.90625 42.765625 
Q 36.328125 47.703125 29.5 47.703125 
Q 22.5625 47.703125 19.015625 42.234375 
Q 15.484375 36.765625 15.484375 25.984375 
Q 15.484375 15.234375 19.015625 9.71875 
Q 22.5625 4.203125 29.5 4.203125 
Q 36.328125 4.203125 39.90625 9.109375 
Q 43.5 14.015625 43.5 23.390625 
z
" id="DejaVuSerif-103"/>
       <path d="M 54.203125 25 
L 15.484375 25 
L 15.484375 24.609375 
Q 15.484375 14.109375 19.4375 8.765625 
Q 23.390625 3.421875 31.109375 3.421875 
Q 37.015625 3.421875 40.796875 6.515625 
Q 44.578125 9.625 46.09375 15.71875 
L 53.328125 15.71875 
Q 51.171875 7.171875 45.375 2.875 
Q 39.59375 -1.421875 30.171875 -1.421875 
Q 18.796875 -1.421875 11.890625 6.078125 
Q 4.984375 13.578125 4.984375 25.984375 
Q 4.984375 38.28125 11.765625 45.796875 
Q 18.5625 53.328125 29.59375 53.328125 
Q 41.359375 53.328125 47.65625 46.0625 
Q 53.953125 38.8125 54.203125 25 
z
M 43.609375 30.171875 
Q 43.3125 39.265625 39.765625 43.875 
Q 36.234375 48.484375 29.59375 48.484375 
Q 23.390625 48.484375 19.828125 43.84375 
Q 16.265625 39.203125 15.484375 30.171875 
z
M 36.40625 79.984375 
L 46.125 79.984375 
L 29.53125 61.625 
L 23.8125 61.625 
z
" id="DejaVuSerif-233"/>
       <path d="M 4.109375 0 
L 4.109375 5.171875 
L 12.203125 5.171875 
L 12.203125 46.6875 
L 3.609375 46.6875 
L 3.609375 51.90625 
L 21.1875 51.90625 
L 21.1875 42.671875 
Q 23.6875 47.953125 27.65625 50.640625 
Q 31.640625 53.328125 36.921875 53.328125 
Q 45.515625 53.328125 49.5625 48.390625 
Q 53.609375 43.453125 53.609375 33.015625 
L 53.609375 5.171875 
L 61.625 5.171875 
L 61.625 0 
L 36.8125 0 
L 36.8125 5.171875 
L 44.578125 5.171875 
L 44.578125 30.171875 
Q 44.578125 39.703125 42.234375 43.234375 
Q 39.890625 46.78125 33.984375 46.78125 
Q 27.734375 46.78125 24.453125 42.203125 
Q 21.1875 37.640625 21.1875 28.90625 
L 21.1875 5.171875 
L 29 5.171875 
L 29 0 
z
" id="DejaVuSerif-110"/>
       <path d="M 39.796875 16.3125 
L 39.796875 27.296875 
L 28.21875 27.296875 
Q 21.53125 27.296875 18.25 24.40625 
Q 14.984375 21.53125 14.984375 15.578125 
Q 14.984375 10.15625 18.296875 6.984375 
Q 21.625 3.8125 27.296875 3.8125 
Q 32.90625 3.8125 36.34375 7.28125 
Q 39.796875 10.75 39.796875 16.3125 
z
M 48.78125 32.421875 
L 48.78125 5.171875 
L 56.78125 5.171875 
L 56.78125 0 
L 39.796875 0 
L 39.796875 5.609375 
Q 36.8125 2 32.90625 0.28125 
Q 29 -1.421875 23.78125 -1.421875 
Q 15.140625 -1.421875 10.0625 3.171875 
Q 4.984375 7.765625 4.984375 15.578125 
Q 4.984375 23.640625 10.796875 28.078125 
Q 16.609375 32.515625 27.203125 32.515625 
L 39.796875 32.515625 
L 39.796875 36.078125 
Q 39.796875 42 36.203125 45.234375 
Q 32.625 48.484375 26.125 48.484375 
Q 20.75 48.484375 17.578125 46.046875 
Q 14.40625 43.609375 13.625 38.8125 
L 8.984375 38.8125 
L 8.984375 49.3125 
Q 13.671875 51.3125 18.09375 52.3125 
Q 22.515625 53.328125 26.703125 53.328125 
Q 37.5 53.328125 43.140625 47.96875 
Q 48.78125 42.625 48.78125 32.421875 
z
" id="DejaVuSerif-97"/>
       <path d="M 10.796875 46.6875 
L 2.875 46.6875 
L 2.875 51.90625 
L 10.796875 51.90625 
L 10.796875 68.015625 
L 19.828125 68.015625 
L 19.828125 51.90625 
L 36.71875 51.90625 
L 36.71875 46.6875 
L 19.828125 46.6875 
L 19.828125 13.71875 
Q 19.828125 7.125 21.09375 5.265625 
Q 22.359375 3.421875 25.78125 3.421875 
Q 29.296875 3.421875 30.90625 5.484375 
Q 32.515625 7.5625 32.625 12.203125 
L 39.40625 12.203125 
Q 39.015625 5.125 35.546875 1.84375 
Q 32.078125 -1.421875 25 -1.421875 
Q 17.234375 -1.421875 14.015625 2.015625 
Q 10.796875 5.46875 10.796875 13.71875 
z
" id="DejaVuSerif-116"/>
       <path d="M 9.71875 68.015625 
Q 9.71875 70.265625 11.34375 71.921875 
Q 12.984375 73.578125 15.28125 73.578125 
Q 17.53125 73.578125 19.15625 71.921875 
Q 20.796875 70.265625 20.796875 68.015625 
Q 20.796875 65.71875 19.1875 64.109375 
Q 17.578125 62.5 15.28125 62.5 
Q 12.984375 62.5 11.34375 64.109375 
Q 9.71875 65.71875 9.71875 68.015625 
z
M 21.1875 5.171875 
L 29.6875 5.171875 
L 29.6875 0 
L 3.609375 0 
L 3.609375 5.171875 
L 12.203125 5.171875 
L 12.203125 46.6875 
L 3.609375 46.6875 
L 3.609375 51.90625 
L 21.1875 51.90625 
z
" id="DejaVuSerif-105"/>
       <path d="M 5.609375 2.875 
L 5.609375 14.984375 
L 10.796875 14.984375 
Q 10.984375 9.1875 14.421875 6.296875 
Q 17.875 3.421875 24.609375 3.421875 
Q 30.671875 3.421875 33.84375 5.6875 
Q 37.015625 7.953125 37.015625 12.3125 
Q 37.015625 15.71875 34.6875 17.8125 
Q 32.375 19.921875 24.90625 22.3125 
L 18.40625 24.515625 
Q 11.71875 26.65625 8.71875 29.875 
Q 5.71875 33.109375 5.71875 38.09375 
Q 5.71875 45.21875 10.9375 49.265625 
Q 16.15625 53.328125 25.390625 53.328125 
Q 29.5 53.328125 34.03125 52.25 
Q 38.578125 51.171875 43.40625 49.125 
L 43.40625 37.796875 
L 38.234375 37.796875 
Q 38.03125 42.828125 34.703125 45.65625 
Q 31.390625 48.484375 25.6875 48.484375 
Q 20.015625 48.484375 17.109375 46.484375 
Q 14.203125 44.484375 14.203125 40.484375 
Q 14.203125 37.203125 16.40625 35.21875 
Q 18.609375 33.25 25.203125 31.203125 
L 32.328125 29 
Q 39.703125 26.703125 42.9375 23.265625 
Q 46.1875 19.828125 46.1875 14.40625 
Q 46.1875 7.03125 40.546875 2.796875 
Q 34.90625 -1.421875 25 -1.421875 
Q 19.96875 -1.421875 15.1875 -0.34375 
Q 10.40625 0.734375 5.609375 2.875 
z
" id="DejaVuSerif-115"/>
      </defs>
      <use xlink:href="#DejaVuSerif-78"/>
      <use x="87.5" xlink:href="#DejaVuSerif-111"/>
      <use x="147.705078" xlink:href="#DejaVuSerif-109"/>
      <use x="242.529297" xlink:href="#DejaVuSerif-98"/>
      <use x="306.542969" xlink:href="#DejaVuSerif-114"/>
      <use x="354.345703" xlink:href="#DejaVuSerif-101"/>
      <use x="413.525391" xlink:href="#DejaVuSerif-32"/>
      <use x="445.3125" xlink:href="#DejaVuSerif-100"/>
      <use x="509.326172" xlink:href="#DejaVuSerif-101"/>
      <use x="568.505859" xlink:href="#DejaVuSerif-32"/>
      <use x="600.292969" xlink:href="#DejaVuSerif-103"/>
      <use x="664.306641" xlink:href="#DejaVuSerif-233"/>
      <use x="723.486328" xlink:href="#DejaVuSerif-110"/>
      <use x="787.890625" xlink:href="#DejaVuSerif-233"/>
      <use x="847.070312" xlink:href="#DejaVuSerif-114"/>
      <use x="894.873047" xlink:href="#DejaVuSerif-97"/>
      <use x="954.492188" xlink:href="#DejaVuSerif-116"/>
      <use x="994.677734" xlink:href="#DejaVuSerif-105"/>
      <use x="1026.660156" xlink:href="#DejaVuSerif-111"/>
      <use x="1086.865234" xlink:href="#DejaVuSerif-110"/>
      <use x="1151.269531" xlink:href="#DejaVuSerif-115"/>
     </g>
    </g>
   </g>
   <g id="matplotlib.axis_2">
    <g id="ytick_1">
     <g id="line2d_15">
      <path clip-path="url(#p4937927573)" d="M 69.77 211.408216 
L 565.2 211.408216 
" style="fill:none;stroke:#b0b0b0;stroke-linecap:square;stroke-width:0.8;"/>
     </g>
     <g id="line2d_16">
      <defs>
       <path d="M 0 0 
L -3.5 0 
" id="m8cbe21ce6f" style="stroke:#000000;stroke-width:0.8;"/>
      </defs>
      <g>
       <use style="stroke:#000000;stroke-width:0.8;" x="69.77" xlink:href="#m8cbe21ce6f" y="211.408216"/>
      </g>
     </g>
     <g id="text_9">
      <!-- 198000 -->
      <g transform="translate(24.595 215.207435)scale(0.1 -0.1)">
       <defs>
        <path d="M 46.78125 32.671875 
Q 43.5 29 39.25 27.1875 
Q 35.015625 25.390625 29.6875 25.390625 
Q 18.84375 25.390625 12.5625 31.9375 
Q 6.296875 38.484375 6.296875 49.8125 
Q 6.296875 60.890625 13.109375 67.546875 
Q 19.921875 74.21875 31.296875 74.21875 
Q 43.65625 74.21875 50.265625 65.015625 
Q 56.890625 55.8125 56.890625 38.71875 
Q 56.890625 19.578125 49.015625 9.078125 
Q 41.15625 -1.421875 26.90625 -1.421875 
Q 23.046875 -1.421875 18.796875 -0.6875 
Q 14.546875 0.046875 10.109375 1.515625 
L 10.109375 13.625 
L 15.578125 13.625 
Q 16.21875 8.6875 19.390625 6.046875 
Q 22.5625 3.421875 27.875 3.421875 
Q 37.359375 3.421875 41.984375 10.5625 
Q 46.625 17.71875 46.78125 32.671875 
z
M 30.90625 69.390625 
Q 23.96875 69.390625 20.28125 64.328125 
Q 16.609375 59.28125 16.609375 49.8125 
Q 16.609375 40.328125 20.28125 35.25 
Q 23.96875 30.171875 30.90625 30.171875 
Q 37.84375 30.171875 41.53125 35.078125 
Q 45.21875 39.984375 45.21875 49.21875 
Q 45.21875 58.9375 41.5 64.15625 
Q 37.796875 69.390625 30.90625 69.390625 
z
" id="DejaVuSerif-57"/>
        <path d="M 46.578125 19.921875 
Q 46.578125 27.734375 42.6875 32.046875 
Q 38.8125 36.375 31.78125 36.375 
Q 24.75 36.375 20.875 32.046875 
Q 17 27.734375 17 19.921875 
Q 17 12.0625 20.875 7.734375 
Q 24.75 3.421875 31.78125 3.421875 
Q 38.8125 3.421875 42.6875 7.734375 
Q 46.578125 12.0625 46.578125 19.921875 
z
M 44.578125 55.328125 
Q 44.578125 61.96875 41.203125 65.671875 
Q 37.84375 69.390625 31.78125 69.390625 
Q 25.78125 69.390625 22.390625 65.671875 
Q 19 61.96875 19 55.328125 
Q 19 48.640625 22.390625 44.921875 
Q 25.78125 41.21875 31.78125 41.21875 
Q 37.84375 41.21875 41.203125 44.921875 
Q 44.578125 48.640625 44.578125 55.328125 
z
M 39.3125 38.8125 
Q 47.609375 37.703125 52.25 32.6875 
Q 56.890625 27.6875 56.890625 19.921875 
Q 56.890625 9.671875 50.390625 4.125 
Q 43.890625 -1.421875 31.78125 -1.421875 
Q 19.734375 -1.421875 13.203125 4.125 
Q 6.6875 9.671875 6.6875 19.921875 
Q 6.6875 27.6875 11.328125 32.6875 
Q 15.96875 37.703125 24.3125 38.8125 
Q 16.9375 40.140625 13 44.40625 
Q 9.078125 48.6875 9.078125 55.328125 
Q 9.078125 64.109375 15.125 69.15625 
Q 21.1875 74.21875 31.78125 74.21875 
Q 42.390625 74.21875 48.4375 69.15625 
Q 54.5 64.109375 54.5 55.328125 
Q 54.5 48.6875 50.5625 44.40625 
Q 46.625 40.140625 39.3125 38.8125 
z
" id="DejaVuSerif-56"/>
       </defs>
       <use xlink:href="#DejaVuSerif-49"/>
       <use x="63.623047" xlink:href="#DejaVuSerif-57"/>
       <use x="127.246094" xlink:href="#DejaVuSerif-56"/>
       <use x="190.869141" xlink:href="#DejaVuSerif-48"/>
       <use x="254.492188" xlink:href="#DejaVuSerif-48"/>
       <use x="318.115234" xlink:href="#DejaVuSerif-48"/>
      </g>
     </g>
    </g>
    <g id="ytick_2">
     <g id="line2d_17">
      <path clip-path="url(#p4937927573)" d="M 69.77 172.455361 
L 565.2 172.455361 
" style="fill:none;stroke:#b0b0b0;stroke-linecap:square;stroke-width:0.8;"/>
     </g>
     <g id="line2d_18">
      <g>
       <use style="stroke:#000000;stroke-width:0.8;" x="69.77" xlink:href="#m8cbe21ce6f" y="172.455361"/>
      </g>
     </g>
     <g id="text_10">
      <!-- 198500 -->
      <g transform="translate(24.595 176.25458)scale(0.1 -0.1)">
       <use xlink:href="#DejaVuSerif-49"/>
       <use x="63.623047" xlink:href="#DejaVuSerif-57"/>
       <use x="127.246094" xlink:href="#DejaVuSerif-56"/>
       <use x="190.869141" xlink:href="#DejaVuSerif-53"/>
       <use x="254.492188" xlink:href="#DejaVuSerif-48"/>
       <use x="318.115234" xlink:href="#DejaVuSerif-48"/>
      </g>
     </g>
    </g>
    <g id="ytick_3">
     <g id="line2d_19">
      <path clip-path="url(#p4937927573)" d="M 69.77 133.502507 
L 565.2 133.502507 
" style="fill:none;stroke:#b0b0b0;stroke-linecap:square;stroke-width:0.8;"/>
     </g>
     <g id="line2d_20">
      <g>
       <use style="stroke:#000000;stroke-width:0.8;" x="69.77" xlink:href="#m8cbe21ce6f" y="133.502507"/>
      </g>
     </g>
     <g id="text_11">
      <!-- 199000 -->
      <g transform="translate(24.595 137.301726)scale(0.1 -0.1)">
       <use xlink:href="#DejaVuSerif-49"/>
       <use x="63.623047" xlink:href="#DejaVuSerif-57"/>
       <use x="127.246094" xlink:href="#DejaVuSerif-57"/>
       <use x="190.869141" xlink:href="#DejaVuSerif-48"/>
       <use x="254.492188" xlink:href="#DejaVuSerif-48"/>
       <use x="318.115234" xlink:href="#DejaVuSerif-48"/>
      </g>
     </g>
    </g>
    <g id="ytick_4">
     <g id="line2d_21">
      <path clip-path="url(#p4937927573)" d="M 69.77 94.549652 
L 565.2 94.549652 
" style="fill:none;stroke:#b0b0b0;stroke-linecap:square;stroke-width:0.8;"/>
     </g>
     <g id="line2d_22">
      <g>
       <use style="stroke:#000000;stroke-width:0.8;" x="69.77" xlink:href="#m8cbe21ce6f" y="94.549652"/>
      </g>
     </g>
     <g id="text_12">
      <!-- 199500 -->
      <g transform="translate(24.595 98.348871)scale(0.1 -0.1)">
       <use xlink:href="#DejaVuSerif-49"/>
       <use x="63.623047" xlink:href="#DejaVuSerif-57"/>
       <use x="127.246094" xlink:href="#DejaVuSerif-57"/>
       <use x="190.869141" xlink:href="#DejaVuSerif-53"/>
       <use x="254.492188" xlink:href="#DejaVuSerif-48"/>
       <use x="318.115234" xlink:href="#DejaVuSerif-48"/>
      </g>
     </g>
    </g>
    <g id="ytick_5">
     <g id="line2d_23">
      <path clip-path="url(#p4937927573)" d="M 69.77 55.596798 
L 565.2 55.596798 
" style="fill:none;stroke:#b0b0b0;stroke-linecap:square;stroke-width:0.8;"/>
     </g>
     <g id="line2d_24">
      <g>
       <use style="stroke:#000000;stroke-width:0.8;" x="69.77" xlink:href="#m8cbe21ce6f" y="55.596798"/>
      </g>
     </g>
     <g id="text_13">
      <!-- 200000 -->
      <g transform="translate(24.595 59.396017)scale(0.1 -0.1)">
       <use xlink:href="#DejaVuSerif-50"/>
       <use x="63.623047" xlink:href="#DejaVuSerif-48"/>
       <use x="127.246094" xlink:href="#DejaVuSerif-48"/>
       <use x="190.869141" xlink:href="#DejaVuSerif-48"/>
       <use x="254.492188" xlink:href="#DejaVuSerif-48"/>
       <use x="318.115234" xlink:href="#DejaVuSerif-48"/>
      </g>
     </g>
    </g>
    <g id="text_14">
     <!-- Fonction objectif -->
     <g transform="translate(18.373125 178.372812)rotate(-90)scale(0.1 -0.1)">
      <defs>
       <path d="M 5.515625 0 
L 5.515625 5.171875 
L 14.796875 5.171875 
L 14.796875 67.671875 
L 5.515625 67.671875 
L 5.515625 72.90625 
L 65.1875 72.90625 
L 65.1875 56.6875 
L 59.1875 56.6875 
L 59.1875 66.890625 
L 24.703125 66.890625 
L 24.703125 42.484375 
L 49.609375 42.484375 
L 49.609375 51.609375 
L 55.609375 51.609375 
L 55.609375 27.390625 
L 49.609375 27.390625 
L 49.609375 36.53125 
L 24.703125 36.53125 
L 24.703125 5.171875 
L 36.375 5.171875 
L 36.375 0 
z
" id="DejaVuSerif-70"/>
       <path d="M 51.421875 15.578125 
Q 49.515625 7.28125 44.09375 2.921875 
Q 38.671875 -1.421875 30.078125 -1.421875 
Q 18.75 -1.421875 11.859375 6.078125 
Q 4.984375 13.578125 4.984375 25.984375 
Q 4.984375 38.421875 11.859375 45.875 
Q 18.75 53.328125 30.078125 53.328125 
Q 35.015625 53.328125 39.890625 52.171875 
Q 44.78125 51.03125 49.703125 48.6875 
L 49.703125 35.40625 
L 44.484375 35.40625 
Q 43.453125 42.234375 40.015625 45.359375 
Q 36.578125 48.484375 30.171875 48.484375 
Q 22.90625 48.484375 19.1875 42.84375 
Q 15.484375 37.203125 15.484375 25.984375 
Q 15.484375 14.75 19.171875 9.078125 
Q 22.859375 3.421875 30.171875 3.421875 
Q 35.984375 3.421875 39.453125 6.4375 
Q 42.921875 9.46875 44.1875 15.578125 
z
" id="DejaVuSerif-99"/>
       <path d="M 10.015625 68.015625 
Q 10.015625 70.265625 11.640625 71.921875 
Q 13.28125 73.578125 15.578125 73.578125 
Q 17.828125 73.578125 19.453125 71.921875 
Q 21.09375 70.265625 21.09375 68.015625 
Q 21.09375 65.71875 19.5 64.109375 
Q 17.921875 62.5 15.578125 62.5 
Q 13.28125 62.5 11.640625 64.109375 
Q 10.015625 65.71875 10.015625 68.015625 
z
M 12.203125 46.6875 
L 3.71875 46.6875 
L 3.71875 51.90625 
L 21.1875 51.90625 
L 21.1875 -5.078125 
Q 21.1875 -13.09375 16.421875 -17.65625 
Q 11.671875 -22.21875 3.328125 -22.21875 
Q -0.203125 -22.21875 -3.390625 -21.40625 
Q -6.59375 -20.609375 -9.625 -19 
L -9.625 -8.296875 
L -4.984375 -8.296875 
Q -4.640625 -12.984375 -2.5625 -15.1875 
Q -0.484375 -17.390625 3.515625 -17.390625 
Q 7.953125 -17.390625 10.078125 -14.375 
Q 12.203125 -11.375 12.203125 -5.078125 
z
" id="DejaVuSerif-106"/>
       <path d="M 43.015625 63.71875 
L 38.28125 63.71875 
Q 38.234375 67.390625 36.203125 69.28125 
Q 34.1875 71.1875 30.328125 71.1875 
Q 25.296875 71.1875 23.234375 68.421875 
Q 21.1875 65.671875 21.1875 58.59375 
L 21.1875 51.90625 
L 35.6875 51.90625 
L 35.6875 46.6875 
L 21.1875 46.6875 
L 21.1875 5.171875 
L 32.71875 5.171875 
L 32.71875 0 
L 3.609375 0 
L 3.609375 5.171875 
L 12.203125 5.171875 
L 12.203125 46.6875 
L 3.609375 46.6875 
L 3.609375 51.90625 
L 12.203125 51.90625 
L 12.203125 58.40625 
Q 12.203125 67.09375 16.71875 71.53125 
Q 21.234375 75.984375 29.984375 75.984375 
Q 33.25 75.984375 36.515625 75.390625 
Q 39.796875 74.8125 43.015625 73.578125 
z
" id="DejaVuSerif-102"/>
      </defs>
      <use xlink:href="#DejaVuSerif-70"/>
      <use x="63.884766" xlink:href="#DejaVuSerif-111"/>
      <use x="124.089844" xlink:href="#DejaVuSerif-110"/>
      <use x="188.494141" xlink:href="#DejaVuSerif-99"/>
      <use x="244.5" xlink:href="#DejaVuSerif-116"/>
      <use x="284.685547" xlink:href="#DejaVuSerif-105"/>
      <use x="316.667969" xlink:href="#DejaVuSerif-111"/>
      <use x="376.873047" xlink:href="#DejaVuSerif-110"/>
      <use x="441.277344" xlink:href="#DejaVuSerif-32"/>
      <use x="473.064453" xlink:href="#DejaVuSerif-111"/>
      <use x="533.269531" xlink:href="#DejaVuSerif-98"/>
      <use x="597.283203" xlink:href="#DejaVuSerif-106"/>
      <use x="628.289062" xlink:href="#DejaVuSerif-101"/>
      <use x="687.46875" xlink:href="#DejaVuSerif-99"/>
      <use x="743.474609" xlink:href="#DejaVuSerif-116"/>
      <use x="783.660156" xlink:href="#DejaVuSerif-105"/>
      <use x="815.642578" xlink:href="#DejaVuSerif-102"/>
     </g>
    </g>
   </g>
   <g id="line2d_25">
    <path clip-path="url(#p4937927573)" d="M 92.289545 36.121818 
L 93.79587 36.121818 
L 95.302194 128.884273 
L 123.922352 128.884273 
L 125.428676 212.963139 
L 151.036186 212.963139 
L 152.54251 215.491207 
L 158.567806 215.491207 
L 160.07413 217.23082 
L 251.959901 217.23082 
L 253.466225 221.021244 
L 256.478874 221.021244 
L 257.985198 235.358182 
L 542.680455 235.358182 
L 542.680455 235.358182 
" style="fill:none;stroke:#808080;stroke-dasharray:5.55,2.4;stroke-dashoffset:0;stroke-width:1.5;"/>
    <defs>
     <path d="M 0 3 
C 0.795609 3 1.55874 2.683901 2.12132 2.12132 
C 2.683901 1.55874 3 0.795609 3 0 
C 3 -0.795609 2.683901 -1.55874 2.12132 -2.12132 
C 1.55874 -2.683901 0.795609 -3 0 -3 
C -0.795609 -3 -1.55874 -2.683901 -2.12132 -2.12132 
C -2.683901 -1.55874 -3 -0.795609 -3 0 
C -3 0.795609 -2.683901 1.55874 -2.12132 2.12132 
C -1.55874 2.683901 -0.795609 3 0 3 
z
" id="m9a83a78449" style="stroke:#000000;"/>
    </defs>
    <g clip-path="url(#p4937927573)">
     <use style="fill:#bfbf00;stroke:#000000;" x="92.289545" xlink:href="#m9a83a78449" y="36.121818"/>
     <use style="fill:#bfbf00;stroke:#000000;" x="93.79587" xlink:href="#m9a83a78449" y="36.121818"/>
     <use style="fill:#bfbf00;stroke:#000000;" x="95.302194" xlink:href="#m9a83a78449" y="128.884273"/>
     <use style="fill:#bfbf00;stroke:#000000;" x="96.808518" xlink:href="#m9a83a78449" y="128.884273"/>
     <use style="fill:#bfbf00;stroke:#000000;" x="98.314842" xlink:href="#m9a83a78449" y="128.884273"/>
     <use style="fill:#bfbf00;stroke:#000000;" x="99.821166" xlink:href="#m9a83a78449" y="128.884273"/>
     <use style="fill:#bfbf00;stroke:#000000;" x="101.32749" xlink:href="#m9a83a78449" y="128.884273"/>
     <use style="fill:#bfbf00;stroke:#000000;" x="102.833814" xlink:href="#m9a83a78449" y="128.884273"/>
     <use style="fill:#bfbf00;stroke:#000000;" x="104.340138" xlink:href="#m9a83a78449" y="128.884273"/>
     <use style="fill:#bfbf00;stroke:#000000;" x="105.846462" xlink:href="#m9a83a78449" y="128.884273"/>
     <use style="fill:#bfbf00;stroke:#000000;" x="107.352787" xlink:href="#m9a83a78449" y="128.884273"/>
     <use style="fill:#bfbf00;stroke:#000000;" x="108.859111" xlink:href="#m9a83a78449" y="128.884273"/>
     <use style="fill:#bfbf00;stroke:#000000;" x="110.365435" xlink:href="#m9a83a78449" y="128.884273"/>
     <use style="fill:#bfbf00;stroke:#000000;" x="111.871759" xlink:href="#m9a83a78449" y="128.884273"/>
     <use style="fill:#bfbf00;stroke:#000000;" x="113.378083" xlink:href="#m9a83a78449" y="128.884273"/>
     <use style="fill:#bfbf00;stroke:#000000;" x="114.884407" xlink:href="#m9a83a78449" y="128.884273"/>
     <use style="fill:#bfbf00;stroke:#000000;" x="116.390731" xlink:href="#m9a83a78449" y="128.884273"/>
     <use style="fill:#bfbf00;stroke:#000000;" x="117.897055" xlink:href="#m9a83a78449" y="128.884273"/>
     <use style="fill:#bfbf00;stroke:#000000;" x="119.403379" xlink:href="#m9a83a78449" y="128.884273"/>
     <use style="fill:#bfbf00;stroke:#000000;" x="120.909704" xlink:href="#m9a83a78449" y="128.884273"/>
     <use style="fill:#bfbf00;stroke:#000000;" x="122.416028" xlink:href="#m9a83a78449" y="128.884273"/>
     <use style="fill:#bfbf00;stroke:#000000;" x="123.922352" xlink:href="#m9a83a78449" y="128.884273"/>
     <use style="fill:#bfbf00;stroke:#000000;" x="125.428676" xlink:href="#m9a83a78449" y="212.963139"/>
     <use style="fill:#bfbf00;stroke:#000000;" x="126.935" xlink:href="#m9a83a78449" y="212.963139"/>
     <use style="fill:#bfbf00;stroke:#000000;" x="128.441324" xlink:href="#m9a83a78449" y="212.963139"/>
     <use style="fill:#bfbf00;stroke:#000000;" x="129.947648" xlink:href="#m9a83a78449" y="212.963139"/>
     <use style="fill:#bfbf00;stroke:#000000;" x="131.453972" xlink:href="#m9a83a78449" y="212.963139"/>
     <use style="fill:#bfbf00;stroke:#000000;" x="132.960296" xlink:href="#m9a83a78449" y="212.963139"/>
     <use style="fill:#bfbf00;stroke:#000000;" x="134.466621" xlink:href="#m9a83a78449" y="212.963139"/>
     <use style="fill:#bfbf00;stroke:#000000;" x="135.972945" xlink:href="#m9a83a78449" y="212.963139"/>
     <use style="fill:#bfbf00;stroke:#000000;" x="137.479269" xlink:href="#m9a83a78449" y="212.963139"/>
     <use style="fill:#bfbf00;stroke:#000000;" x="138.985593" xlink:href="#m9a83a78449" y="212.963139"/>
     <use style="fill:#bfbf00;stroke:#000000;" x="140.491917" xlink:href="#m9a83a78449" y="212.963139"/>
     <use style="fill:#bfbf00;stroke:#000000;" x="141.998241" xlink:href="#m9a83a78449" y="212.963139"/>
     <use style="fill:#bfbf00;stroke:#000000;" x="143.504565" xlink:href="#m9a83a78449" y="212.963139"/>
     <use style="fill:#bfbf00;stroke:#000000;" x="145.010889" xlink:href="#m9a83a78449" y="212.963139"/>
     <use style="fill:#bfbf00;stroke:#000000;" x="146.517213" xlink:href="#m9a83a78449" y="212.963139"/>
     <use style="fill:#bfbf00;stroke:#000000;" x="148.023538" xlink:href="#m9a83a78449" y="212.963139"/>
     <use style="fill:#bfbf00;stroke:#000000;" x="149.529862" xlink:href="#m9a83a78449" y="212.963139"/>
     <use style="fill:#bfbf00;stroke:#000000;" x="151.036186" xlink:href="#m9a83a78449" y="212.963139"/>
     <use style="fill:#bfbf00;stroke:#000000;" x="152.54251" xlink:href="#m9a83a78449" y="215.491207"/>
     <use style="fill:#bfbf00;stroke:#000000;" x="154.048834" xlink:href="#m9a83a78449" y="215.491207"/>
     <use style="fill:#bfbf00;stroke:#000000;" x="155.555158" xlink:href="#m9a83a78449" y="215.491207"/>
     <use style="fill:#bfbf00;stroke:#000000;" x="157.061482" xlink:href="#m9a83a78449" y="215.491207"/>
     <use style="fill:#bfbf00;stroke:#000000;" x="158.567806" xlink:href="#m9a83a78449" y="215.491207"/>
     <use style="fill:#bfbf00;stroke:#000000;" x="160.07413" xlink:href="#m9a83a78449" y="217.23082"/>
     <use style="fill:#bfbf00;stroke:#000000;" x="161.580455" xlink:href="#m9a83a78449" y="217.23082"/>
     <use style="fill:#bfbf00;stroke:#000000;" x="163.086779" xlink:href="#m9a83a78449" y="217.23082"/>
     <use style="fill:#bfbf00;stroke:#000000;" x="164.593103" xlink:href="#m9a83a78449" y="217.23082"/>
     <use style="fill:#bfbf00;stroke:#000000;" x="166.099427" xlink:href="#m9a83a78449" y="217.23082"/>
     <use style="fill:#bfbf00;stroke:#000000;" x="167.605751" xlink:href="#m9a83a78449" y="217.23082"/>
     <use style="fill:#bfbf00;stroke:#000000;" x="169.112075" xlink:href="#m9a83a78449" y="217.23082"/>
     <use style="fill:#bfbf00;stroke:#000000;" x="170.618399" xlink:href="#m9a83a78449" y="217.23082"/>
     <use style="fill:#bfbf00;stroke:#000000;" x="172.124723" xlink:href="#m9a83a78449" y="217.23082"/>
     <use style="fill:#bfbf00;stroke:#000000;" x="173.631047" xlink:href="#m9a83a78449" y="217.23082"/>
     <use style="fill:#bfbf00;stroke:#000000;" x="175.137372" xlink:href="#m9a83a78449" y="217.23082"/>
     <use style="fill:#bfbf00;stroke:#000000;" x="176.643696" xlink:href="#m9a83a78449" y="217.23082"/>
     <use style="fill:#bfbf00;stroke:#000000;" x="178.15002" xlink:href="#m9a83a78449" y="217.23082"/>
     <use style="fill:#bfbf00;stroke:#000000;" x="179.656344" xlink:href="#m9a83a78449" y="217.23082"/>
     <use style="fill:#bfbf00;stroke:#000000;" x="181.162668" xlink:href="#m9a83a78449" y="217.23082"/>
     <use style="fill:#bfbf00;stroke:#000000;" x="182.668992" xlink:href="#m9a83a78449" y="217.23082"/>
     <use style="fill:#bfbf00;stroke:#000000;" x="184.175316" xlink:href="#m9a83a78449" y="217.23082"/>
     <use style="fill:#bfbf00;stroke:#000000;" x="185.68164" xlink:href="#m9a83a78449" y="217.23082"/>
     <use style="fill:#bfbf00;stroke:#000000;" x="187.187964" xlink:href="#m9a83a78449" y="217.23082"/>
     <use style="fill:#bfbf00;stroke:#000000;" x="188.694289" xlink:href="#m9a83a78449" y="217.23082"/>
     <use style="fill:#bfbf00;stroke:#000000;" x="190.200613" xlink:href="#m9a83a78449" y="217.23082"/>
     <use style="fill:#bfbf00;stroke:#000000;" x="191.706937" xlink:href="#m9a83a78449" y="217.23082"/>
     <use style="fill:#bfbf00;stroke:#000000;" x="193.213261" xlink:href="#m9a83a78449" y="217.23082"/>
     <use style="fill:#bfbf00;stroke:#000000;" x="194.719585" xlink:href="#m9a83a78449" y="217.23082"/>
     <use style="fill:#bfbf00;stroke:#000000;" x="196.225909" xlink:href="#m9a83a78449" y="217.23082"/>
     <use style="fill:#bfbf00;stroke:#000000;" x="197.732233" xlink:href="#m9a83a78449" y="217.23082"/>
     <use style="fill:#bfbf00;stroke:#000000;" x="199.238557" xlink:href="#m9a83a78449" y="217.23082"/>
     <use style="fill:#bfbf00;stroke:#000000;" x="200.744881" xlink:href="#m9a83a78449" y="217.23082"/>
     <use style="fill:#bfbf00;stroke:#000000;" x="202.251206" xlink:href="#m9a83a78449" y="217.23082"/>
     <use style="fill:#bfbf00;stroke:#000000;" x="203.75753" xlink:href="#m9a83a78449" y="217.23082"/>
     <use style="fill:#bfbf00;stroke:#000000;" x="205.263854" xlink:href="#m9a83a78449" y="217.23082"/>
     <use style="fill:#bfbf00;stroke:#000000;" x="206.770178" xlink:href="#m9a83a78449" y="217.23082"/>
     <use style="fill:#bfbf00;stroke:#000000;" x="208.276502" xlink:href="#m9a83a78449" y="217.23082"/>
     <use style="fill:#bfbf00;stroke:#000000;" x="209.782826" xlink:href="#m9a83a78449" y="217.23082"/>
     <use style="fill:#bfbf00;stroke:#000000;" x="211.28915" xlink:href="#m9a83a78449" y="217.23082"/>
     <use style="fill:#bfbf00;stroke:#000000;" x="212.795474" xlink:href="#m9a83a78449" y="217.23082"/>
     <use style="fill:#bfbf00;stroke:#000000;" x="214.301798" xlink:href="#m9a83a78449" y="217.23082"/>
     <use style="fill:#bfbf00;stroke:#000000;" x="215.808123" xlink:href="#m9a83a78449" y="217.23082"/>
     <use style="fill:#bfbf00;stroke:#000000;" x="217.314447" xlink:href="#m9a83a78449" y="217.23082"/>
     <use style="fill:#bfbf00;stroke:#000000;" x="218.820771" xlink:href="#m9a83a78449" y="217.23082"/>
     <use style="fill:#bfbf00;stroke:#000000;" x="220.327095" xlink:href="#m9a83a78449" y="217.23082"/>
     <use style="fill:#bfbf00;stroke:#000000;" x="221.833419" xlink:href="#m9a83a78449" y="217.23082"/>
     <use style="fill:#bfbf00;stroke:#000000;" x="223.339743" xlink:href="#m9a83a78449" y="217.23082"/>
     <use style="fill:#bfbf00;stroke:#000000;" x="224.846067" xlink:href="#m9a83a78449" y="217.23082"/>
     <use style="fill:#bfbf00;stroke:#000000;" x="226.352391" xlink:href="#m9a83a78449" y="217.23082"/>
     <use style="fill:#bfbf00;stroke:#000000;" x="227.858715" xlink:href="#m9a83a78449" y="217.23082"/>
     <use style="fill:#bfbf00;stroke:#000000;" x="229.36504" xlink:href="#m9a83a78449" y="217.23082"/>
     <use style="fill:#bfbf00;stroke:#000000;" x="230.871364" xlink:href="#m9a83a78449" y="217.23082"/>
     <use style="fill:#bfbf00;stroke:#000000;" x="232.377688" xlink:href="#m9a83a78449" y="217.23082"/>
     <use style="fill:#bfbf00;stroke:#000000;" x="233.884012" xlink:href="#m9a83a78449" y="217.23082"/>
     <use style="fill:#bfbf00;stroke:#000000;" x="235.390336" xlink:href="#m9a83a78449" y="217.23082"/>
     <use style="fill:#bfbf00;stroke:#000000;" x="236.89666" xlink:href="#m9a83a78449" y="217.23082"/>
     <use style="fill:#bfbf00;stroke:#000000;" x="238.402984" xlink:href="#m9a83a78449" y="217.23082"/>
     <use style="fill:#bfbf00;stroke:#000000;" x="239.909308" xlink:href="#m9a83a78449" y="217.23082"/>
     <use style="fill:#bfbf00;stroke:#000000;" x="241.415632" xlink:href="#m9a83a78449" y="217.23082"/>
     <use style="fill:#bfbf00;stroke:#000000;" x="242.921957" xlink:href="#m9a83a78449" y="217.23082"/>
     <use style="fill:#bfbf00;stroke:#000000;" x="244.428281" xlink:href="#m9a83a78449" y="217.23082"/>
     <use style="fill:#bfbf00;stroke:#000000;" x="245.934605" xlink:href="#m9a83a78449" y="217.23082"/>
     <use style="fill:#bfbf00;stroke:#000000;" x="247.440929" xlink:href="#m9a83a78449" y="217.23082"/>
     <use style="fill:#bfbf00;stroke:#000000;" x="248.947253" xlink:href="#m9a83a78449" y="217.23082"/>
     <use style="fill:#bfbf00;stroke:#000000;" x="250.453577" xlink:href="#m9a83a78449" y="217.23082"/>
     <use style="fill:#bfbf00;stroke:#000000;" x="251.959901" xlink:href="#m9a83a78449" y="217.23082"/>
     <use style="fill:#bfbf00;stroke:#000000;" x="253.466225" xlink:href="#m9a83a78449" y="221.021244"/>
     <use style="fill:#bfbf00;stroke:#000000;" x="254.972549" xlink:href="#m9a83a78449" y="221.021244"/>
     <use style="fill:#bfbf00;stroke:#000000;" x="256.478874" xlink:href="#m9a83a78449" y="221.021244"/>
     <use style="fill:#bfbf00;stroke:#000000;" x="257.985198" xlink:href="#m9a83a78449" y="235.358182"/>
     <use style="fill:#bfbf00;stroke:#000000;" x="259.491522" xlink:href="#m9a83a78449" y="235.358182"/>
     <use style="fill:#bfbf00;stroke:#000000;" x="260.997846" xlink:href="#m9a83a78449" y="235.358182"/>
     <use style="fill:#bfbf00;stroke:#000000;" x="262.50417" xlink:href="#m9a83a78449" y="235.358182"/>
     <use style="fill:#bfbf00;stroke:#000000;" x="264.010494" xlink:href="#m9a83a78449" y="235.358182"/>
     <use style="fill:#bfbf00;stroke:#000000;" x="265.516818" xlink:href="#m9a83a78449" y="235.358182"/>
     <use style="fill:#bfbf00;stroke:#000000;" x="267.023142" xlink:href="#m9a83a78449" y="235.358182"/>
     <use style="fill:#bfbf00;stroke:#000000;" x="268.529466" xlink:href="#m9a83a78449" y="235.358182"/>
     <use style="fill:#bfbf00;stroke:#000000;" x="270.035791" xlink:href="#m9a83a78449" y="235.358182"/>
     <use style="fill:#bfbf00;stroke:#000000;" x="271.542115" xlink:href="#m9a83a78449" y="235.358182"/>
     <use style="fill:#bfbf00;stroke:#000000;" x="273.048439" xlink:href="#m9a83a78449" y="235.358182"/>
     <use style="fill:#bfbf00;stroke:#000000;" x="274.554763" xlink:href="#m9a83a78449" y="235.358182"/>
     <use style="fill:#bfbf00;stroke:#000000;" x="276.061087" xlink:href="#m9a83a78449" y="235.358182"/>
     <use style="fill:#bfbf00;stroke:#000000;" x="277.567411" xlink:href="#m9a83a78449" y="235.358182"/>
     <use style="fill:#bfbf00;stroke:#000000;" x="279.073735" xlink:href="#m9a83a78449" y="235.358182"/>
     <use style="fill:#bfbf00;stroke:#000000;" x="280.580059" xlink:href="#m9a83a78449" y="235.358182"/>
     <use style="fill:#bfbf00;stroke:#000000;" x="282.086383" xlink:href="#m9a83a78449" y="235.358182"/>
     <use style="fill:#bfbf00;stroke:#000000;" x="283.592708" xlink:href="#m9a83a78449" y="235.358182"/>
     <use style="fill:#bfbf00;stroke:#000000;" x="285.099032" xlink:href="#m9a83a78449" y="235.358182"/>
     <use style="fill:#bfbf00;stroke:#000000;" x="286.605356" xlink:href="#m9a83a78449" y="235.358182"/>
     <use style="fill:#bfbf00;stroke:#000000;" x="288.11168" xlink:href="#m9a83a78449" y="235.358182"/>
     <use style="fill:#bfbf00;stroke:#000000;" x="289.618004" xlink:href="#m9a83a78449" y="235.358182"/>
     <use style="fill:#bfbf00;stroke:#000000;" x="291.124328" xlink:href="#m9a83a78449" y="235.358182"/>
     <use style="fill:#bfbf00;stroke:#000000;" x="292.630652" xlink:href="#m9a83a78449" y="235.358182"/>
     <use style="fill:#bfbf00;stroke:#000000;" x="294.136976" xlink:href="#m9a83a78449" y="235.358182"/>
     <use style="fill:#bfbf00;stroke:#000000;" x="295.6433" xlink:href="#m9a83a78449" y="235.358182"/>
     <use style="fill:#bfbf00;stroke:#000000;" x="297.149625" xlink:href="#m9a83a78449" y="235.358182"/>
     <use style="fill:#bfbf00;stroke:#000000;" x="298.655949" xlink:href="#m9a83a78449" y="235.358182"/>
     <use style="fill:#bfbf00;stroke:#000000;" x="300.162273" xlink:href="#m9a83a78449" y="235.358182"/>
     <use style="fill:#bfbf00;stroke:#000000;" x="301.668597" xlink:href="#m9a83a78449" y="235.358182"/>
     <use style="fill:#bfbf00;stroke:#000000;" x="303.174921" xlink:href="#m9a83a78449" y="235.358182"/>
     <use style="fill:#bfbf00;stroke:#000000;" x="304.681245" xlink:href="#m9a83a78449" y="235.358182"/>
     <use style="fill:#bfbf00;stroke:#000000;" x="306.187569" xlink:href="#m9a83a78449" y="235.358182"/>
     <use style="fill:#bfbf00;stroke:#000000;" x="307.693893" xlink:href="#m9a83a78449" y="235.358182"/>
     <use style="fill:#bfbf00;stroke:#000000;" x="309.200217" xlink:href="#m9a83a78449" y="235.358182"/>
     <use style="fill:#bfbf00;stroke:#000000;" x="310.706542" xlink:href="#m9a83a78449" y="235.358182"/>
     <use style="fill:#bfbf00;stroke:#000000;" x="312.212866" xlink:href="#m9a83a78449" y="235.358182"/>
     <use style="fill:#bfbf00;stroke:#000000;" x="313.71919" xlink:href="#m9a83a78449" y="235.358182"/>
     <use style="fill:#bfbf00;stroke:#000000;" x="315.225514" xlink:href="#m9a83a78449" y="235.358182"/>
     <use style="fill:#bfbf00;stroke:#000000;" x="316.731838" xlink:href="#m9a83a78449" y="235.358182"/>
     <use style="fill:#bfbf00;stroke:#000000;" x="318.238162" xlink:href="#m9a83a78449" y="235.358182"/>
     <use style="fill:#bfbf00;stroke:#000000;" x="319.744486" xlink:href="#m9a83a78449" y="235.358182"/>
     <use style="fill:#bfbf00;stroke:#000000;" x="321.25081" xlink:href="#m9a83a78449" y="235.358182"/>
     <use style="fill:#bfbf00;stroke:#000000;" x="322.757134" xlink:href="#m9a83a78449" y="235.358182"/>
     <use style="fill:#bfbf00;stroke:#000000;" x="324.263458" xlink:href="#m9a83a78449" y="235.358182"/>
     <use style="fill:#bfbf00;stroke:#000000;" x="325.769783" xlink:href="#m9a83a78449" y="235.358182"/>
     <use style="fill:#bfbf00;stroke:#000000;" x="327.276107" xlink:href="#m9a83a78449" y="235.358182"/>
     <use style="fill:#bfbf00;stroke:#000000;" x="328.782431" xlink:href="#m9a83a78449" y="235.358182"/>
     <use style="fill:#bfbf00;stroke:#000000;" x="330.288755" xlink:href="#m9a83a78449" y="235.358182"/>
     <use style="fill:#bfbf00;stroke:#000000;" x="331.795079" xlink:href="#m9a83a78449" y="235.358182"/>
     <use style="fill:#bfbf00;stroke:#000000;" x="333.301403" xlink:href="#m9a83a78449" y="235.358182"/>
     <use style="fill:#bfbf00;stroke:#000000;" x="334.807727" xlink:href="#m9a83a78449" y="235.358182"/>
     <use style="fill:#bfbf00;stroke:#000000;" x="336.314051" xlink:href="#m9a83a78449" y="235.358182"/>
     <use style="fill:#bfbf00;stroke:#000000;" x="337.820375" xlink:href="#m9a83a78449" y="235.358182"/>
     <use style="fill:#bfbf00;stroke:#000000;" x="339.3267" xlink:href="#m9a83a78449" y="235.358182"/>
     <use style="fill:#bfbf00;stroke:#000000;" x="340.833024" xlink:href="#m9a83a78449" y="235.358182"/>
     <use style="fill:#bfbf00;stroke:#000000;" x="342.339348" xlink:href="#m9a83a78449" y="235.358182"/>
     <use style="fill:#bfbf00;stroke:#000000;" x="343.845672" xlink:href="#m9a83a78449" y="235.358182"/>
     <use style="fill:#bfbf00;stroke:#000000;" x="345.351996" xlink:href="#m9a83a78449" y="235.358182"/>
     <use style="fill:#bfbf00;stroke:#000000;" x="346.85832" xlink:href="#m9a83a78449" y="235.358182"/>
     <use style="fill:#bfbf00;stroke:#000000;" x="348.364644" xlink:href="#m9a83a78449" y="235.358182"/>
     <use style="fill:#bfbf00;stroke:#000000;" x="349.870968" xlink:href="#m9a83a78449" y="235.358182"/>
     <use style="fill:#bfbf00;stroke:#000000;" x="351.377292" xlink:href="#m9a83a78449" y="235.358182"/>
     <use style="fill:#bfbf00;stroke:#000000;" x="352.883617" xlink:href="#m9a83a78449" y="235.358182"/>
     <use style="fill:#bfbf00;stroke:#000000;" x="354.389941" xlink:href="#m9a83a78449" y="235.358182"/>
     <use style="fill:#bfbf00;stroke:#000000;" x="355.896265" xlink:href="#m9a83a78449" y="235.358182"/>
     <use style="fill:#bfbf00;stroke:#000000;" x="357.402589" xlink:href="#m9a83a78449" y="235.358182"/>
     <use style="fill:#bfbf00;stroke:#000000;" x="358.908913" xlink:href="#m9a83a78449" y="235.358182"/>
     <use style="fill:#bfbf00;stroke:#000000;" x="360.415237" xlink:href="#m9a83a78449" y="235.358182"/>
     <use style="fill:#bfbf00;stroke:#000000;" x="361.921561" xlink:href="#m9a83a78449" y="235.358182"/>
     <use style="fill:#bfbf00;stroke:#000000;" x="363.427885" xlink:href="#m9a83a78449" y="235.358182"/>
     <use style="fill:#bfbf00;stroke:#000000;" x="364.934209" xlink:href="#m9a83a78449" y="235.358182"/>
     <use style="fill:#bfbf00;stroke:#000000;" x="366.440534" xlink:href="#m9a83a78449" y="235.358182"/>
     <use style="fill:#bfbf00;stroke:#000000;" x="367.946858" xlink:href="#m9a83a78449" y="235.358182"/>
     <use style="fill:#bfbf00;stroke:#000000;" x="369.453182" xlink:href="#m9a83a78449" y="235.358182"/>
     <use style="fill:#bfbf00;stroke:#000000;" x="370.959506" xlink:href="#m9a83a78449" y="235.358182"/>
     <use style="fill:#bfbf00;stroke:#000000;" x="372.46583" xlink:href="#m9a83a78449" y="235.358182"/>
     <use style="fill:#bfbf00;stroke:#000000;" x="373.972154" xlink:href="#m9a83a78449" y="235.358182"/>
     <use style="fill:#bfbf00;stroke:#000000;" x="375.478478" xlink:href="#m9a83a78449" y="235.358182"/>
     <use style="fill:#bfbf00;stroke:#000000;" x="376.984802" xlink:href="#m9a83a78449" y="235.358182"/>
     <use style="fill:#bfbf00;stroke:#000000;" x="378.491126" xlink:href="#m9a83a78449" y="235.358182"/>
     <use style="fill:#bfbf00;stroke:#000000;" x="379.997451" xlink:href="#m9a83a78449" y="235.358182"/>
     <use style="fill:#bfbf00;stroke:#000000;" x="381.503775" xlink:href="#m9a83a78449" y="235.358182"/>
     <use style="fill:#bfbf00;stroke:#000000;" x="383.010099" xlink:href="#m9a83a78449" y="235.358182"/>
     <use style="fill:#bfbf00;stroke:#000000;" x="384.516423" xlink:href="#m9a83a78449" y="235.358182"/>
     <use style="fill:#bfbf00;stroke:#000000;" x="386.022747" xlink:href="#m9a83a78449" y="235.358182"/>
     <use style="fill:#bfbf00;stroke:#000000;" x="387.529071" xlink:href="#m9a83a78449" y="235.358182"/>
     <use style="fill:#bfbf00;stroke:#000000;" x="389.035395" xlink:href="#m9a83a78449" y="235.358182"/>
     <use style="fill:#bfbf00;stroke:#000000;" x="390.541719" xlink:href="#m9a83a78449" y="235.358182"/>
     <use style="fill:#bfbf00;stroke:#000000;" x="392.048043" xlink:href="#m9a83a78449" y="235.358182"/>
     <use style="fill:#bfbf00;stroke:#000000;" x="393.554368" xlink:href="#m9a83a78449" y="235.358182"/>
     <use style="fill:#bfbf00;stroke:#000000;" x="395.060692" xlink:href="#m9a83a78449" y="235.358182"/>
     <use style="fill:#bfbf00;stroke:#000000;" x="396.567016" xlink:href="#m9a83a78449" y="235.358182"/>
     <use style="fill:#bfbf00;stroke:#000000;" x="398.07334" xlink:href="#m9a83a78449" y="235.358182"/>
     <use style="fill:#bfbf00;stroke:#000000;" x="399.579664" xlink:href="#m9a83a78449" y="235.358182"/>
     <use style="fill:#bfbf00;stroke:#000000;" x="401.085988" xlink:href="#m9a83a78449" y="235.358182"/>
     <use style="fill:#bfbf00;stroke:#000000;" x="402.592312" xlink:href="#m9a83a78449" y="235.358182"/>
     <use style="fill:#bfbf00;stroke:#000000;" x="404.098636" xlink:href="#m9a83a78449" y="235.358182"/>
     <use style="fill:#bfbf00;stroke:#000000;" x="405.60496" xlink:href="#m9a83a78449" y="235.358182"/>
     <use style="fill:#bfbf00;stroke:#000000;" x="407.111285" xlink:href="#m9a83a78449" y="235.358182"/>
     <use style="fill:#bfbf00;stroke:#000000;" x="408.617609" xlink:href="#m9a83a78449" y="235.358182"/>
     <use style="fill:#bfbf00;stroke:#000000;" x="410.123933" xlink:href="#m9a83a78449" y="235.358182"/>
     <use style="fill:#bfbf00;stroke:#000000;" x="411.630257" xlink:href="#m9a83a78449" y="235.358182"/>
     <use style="fill:#bfbf00;stroke:#000000;" x="413.136581" xlink:href="#m9a83a78449" y="235.358182"/>
     <use style="fill:#bfbf00;stroke:#000000;" x="414.642905" xlink:href="#m9a83a78449" y="235.358182"/>
     <use style="fill:#bfbf00;stroke:#000000;" x="416.149229" xlink:href="#m9a83a78449" y="235.358182"/>
     <use style="fill:#bfbf00;stroke:#000000;" x="417.655553" xlink:href="#m9a83a78449" y="235.358182"/>
     <use style="fill:#bfbf00;stroke:#000000;" x="419.161877" xlink:href="#m9a83a78449" y="235.358182"/>
     <use style="fill:#bfbf00;stroke:#000000;" x="420.668202" xlink:href="#m9a83a78449" y="235.358182"/>
     <use style="fill:#bfbf00;stroke:#000000;" x="422.174526" xlink:href="#m9a83a78449" y="235.358182"/>
     <use style="fill:#bfbf00;stroke:#000000;" x="423.68085" xlink:href="#m9a83a78449" y="235.358182"/>
     <use style="fill:#bfbf00;stroke:#000000;" x="425.187174" xlink:href="#m9a83a78449" y="235.358182"/>
     <use style="fill:#bfbf00;stroke:#000000;" x="426.693498" xlink:href="#m9a83a78449" y="235.358182"/>
     <use style="fill:#bfbf00;stroke:#000000;" x="428.199822" xlink:href="#m9a83a78449" y="235.358182"/>
     <use style="fill:#bfbf00;stroke:#000000;" x="429.706146" xlink:href="#m9a83a78449" y="235.358182"/>
     <use style="fill:#bfbf00;stroke:#000000;" x="431.21247" xlink:href="#m9a83a78449" y="235.358182"/>
     <use style="fill:#bfbf00;stroke:#000000;" x="432.718794" xlink:href="#m9a83a78449" y="235.358182"/>
     <use style="fill:#bfbf00;stroke:#000000;" x="434.225119" xlink:href="#m9a83a78449" y="235.358182"/>
     <use style="fill:#bfbf00;stroke:#000000;" x="435.731443" xlink:href="#m9a83a78449" y="235.358182"/>
     <use style="fill:#bfbf00;stroke:#000000;" x="437.237767" xlink:href="#m9a83a78449" y="235.358182"/>
     <use style="fill:#bfbf00;stroke:#000000;" x="438.744091" xlink:href="#m9a83a78449" y="235.358182"/>
     <use style="fill:#bfbf00;stroke:#000000;" x="440.250415" xlink:href="#m9a83a78449" y="235.358182"/>
     <use style="fill:#bfbf00;stroke:#000000;" x="441.756739" xlink:href="#m9a83a78449" y="235.358182"/>
     <use style="fill:#bfbf00;stroke:#000000;" x="443.263063" xlink:href="#m9a83a78449" y="235.358182"/>
     <use style="fill:#bfbf00;stroke:#000000;" x="444.769387" xlink:href="#m9a83a78449" y="235.358182"/>
     <use style="fill:#bfbf00;stroke:#000000;" x="446.275711" xlink:href="#m9a83a78449" y="235.358182"/>
     <use style="fill:#bfbf00;stroke:#000000;" x="447.782036" xlink:href="#m9a83a78449" y="235.358182"/>
     <use style="fill:#bfbf00;stroke:#000000;" x="449.28836" xlink:href="#m9a83a78449" y="235.358182"/>
     <use style="fill:#bfbf00;stroke:#000000;" x="450.794684" xlink:href="#m9a83a78449" y="235.358182"/>
     <use style="fill:#bfbf00;stroke:#000000;" x="452.301008" xlink:href="#m9a83a78449" y="235.358182"/>
     <use style="fill:#bfbf00;stroke:#000000;" x="453.807332" xlink:href="#m9a83a78449" y="235.358182"/>
     <use style="fill:#bfbf00;stroke:#000000;" x="455.313656" xlink:href="#m9a83a78449" y="235.358182"/>
     <use style="fill:#bfbf00;stroke:#000000;" x="456.81998" xlink:href="#m9a83a78449" y="235.358182"/>
     <use style="fill:#bfbf00;stroke:#000000;" x="458.326304" xlink:href="#m9a83a78449" y="235.358182"/>
     <use style="fill:#bfbf00;stroke:#000000;" x="459.832628" xlink:href="#m9a83a78449" y="235.358182"/>
     <use style="fill:#bfbf00;stroke:#000000;" x="461.338953" xlink:href="#m9a83a78449" y="235.358182"/>
     <use style="fill:#bfbf00;stroke:#000000;" x="462.845277" xlink:href="#m9a83a78449" y="235.358182"/>
     <use style="fill:#bfbf00;stroke:#000000;" x="464.351601" xlink:href="#m9a83a78449" y="235.358182"/>
     <use style="fill:#bfbf00;stroke:#000000;" x="465.857925" xlink:href="#m9a83a78449" y="235.358182"/>
     <use style="fill:#bfbf00;stroke:#000000;" x="467.364249" xlink:href="#m9a83a78449" y="235.358182"/>
     <use style="fill:#bfbf00;stroke:#000000;" x="468.870573" xlink:href="#m9a83a78449" y="235.358182"/>
     <use style="fill:#bfbf00;stroke:#000000;" x="470.376897" xlink:href="#m9a83a78449" y="235.358182"/>
     <use style="fill:#bfbf00;stroke:#000000;" x="471.883221" xlink:href="#m9a83a78449" y="235.358182"/>
     <use style="fill:#bfbf00;stroke:#000000;" x="473.389545" xlink:href="#m9a83a78449" y="235.358182"/>
     <use style="fill:#bfbf00;stroke:#000000;" x="474.89587" xlink:href="#m9a83a78449" y="235.358182"/>
     <use style="fill:#bfbf00;stroke:#000000;" x="476.402194" xlink:href="#m9a83a78449" y="235.358182"/>
     <use style="fill:#bfbf00;stroke:#000000;" x="477.908518" xlink:href="#m9a83a78449" y="235.358182"/>
     <use style="fill:#bfbf00;stroke:#000000;" x="479.414842" xlink:href="#m9a83a78449" y="235.358182"/>
     <use style="fill:#bfbf00;stroke:#000000;" x="480.921166" xlink:href="#m9a83a78449" y="235.358182"/>
     <use style="fill:#bfbf00;stroke:#000000;" x="482.42749" xlink:href="#m9a83a78449" y="235.358182"/>
     <use style="fill:#bfbf00;stroke:#000000;" x="483.933814" xlink:href="#m9a83a78449" y="235.358182"/>
     <use style="fill:#bfbf00;stroke:#000000;" x="485.440138" xlink:href="#m9a83a78449" y="235.358182"/>
     <use style="fill:#bfbf00;stroke:#000000;" x="486.946462" xlink:href="#m9a83a78449" y="235.358182"/>
     <use style="fill:#bfbf00;stroke:#000000;" x="488.452787" xlink:href="#m9a83a78449" y="235.358182"/>
     <use style="fill:#bfbf00;stroke:#000000;" x="489.959111" xlink:href="#m9a83a78449" y="235.358182"/>
     <use style="fill:#bfbf00;stroke:#000000;" x="491.465435" xlink:href="#m9a83a78449" y="235.358182"/>
     <use style="fill:#bfbf00;stroke:#000000;" x="492.971759" xlink:href="#m9a83a78449" y="235.358182"/>
     <use style="fill:#bfbf00;stroke:#000000;" x="494.478083" xlink:href="#m9a83a78449" y="235.358182"/>
     <use style="fill:#bfbf00;stroke:#000000;" x="495.984407" xlink:href="#m9a83a78449" y="235.358182"/>
     <use style="fill:#bfbf00;stroke:#000000;" x="497.490731" xlink:href="#m9a83a78449" y="235.358182"/>
     <use style="fill:#bfbf00;stroke:#000000;" x="498.997055" xlink:href="#m9a83a78449" y="235.358182"/>
     <use style="fill:#bfbf00;stroke:#000000;" x="500.503379" xlink:href="#m9a83a78449" y="235.358182"/>
     <use style="fill:#bfbf00;stroke:#000000;" x="502.009704" xlink:href="#m9a83a78449" y="235.358182"/>
     <use style="fill:#bfbf00;stroke:#000000;" x="503.516028" xlink:href="#m9a83a78449" y="235.358182"/>
     <use style="fill:#bfbf00;stroke:#000000;" x="505.022352" xlink:href="#m9a83a78449" y="235.358182"/>
     <use style="fill:#bfbf00;stroke:#000000;" x="506.528676" xlink:href="#m9a83a78449" y="235.358182"/>
     <use style="fill:#bfbf00;stroke:#000000;" x="508.035" xlink:href="#m9a83a78449" y="235.358182"/>
     <use style="fill:#bfbf00;stroke:#000000;" x="509.541324" xlink:href="#m9a83a78449" y="235.358182"/>
     <use style="fill:#bfbf00;stroke:#000000;" x="511.047648" xlink:href="#m9a83a78449" y="235.358182"/>
     <use style="fill:#bfbf00;stroke:#000000;" x="512.553972" xlink:href="#m9a83a78449" y="235.358182"/>
     <use style="fill:#bfbf00;stroke:#000000;" x="514.060296" xlink:href="#m9a83a78449" y="235.358182"/>
     <use style="fill:#bfbf00;stroke:#000000;" x="515.566621" xlink:href="#m9a83a78449" y="235.358182"/>
     <use style="fill:#bfbf00;stroke:#000000;" x="517.072945" xlink:href="#m9a83a78449" y="235.358182"/>
     <use style="fill:#bfbf00;stroke:#000000;" x="518.579269" xlink:href="#m9a83a78449" y="235.358182"/>
     <use style="fill:#bfbf00;stroke:#000000;" x="520.085593" xlink:href="#m9a83a78449" y="235.358182"/>
     <use style="fill:#bfbf00;stroke:#000000;" x="521.591917" xlink:href="#m9a83a78449" y="235.358182"/>
     <use style="fill:#bfbf00;stroke:#000000;" x="523.098241" xlink:href="#m9a83a78449" y="235.358182"/>
     <use style="fill:#bfbf00;stroke:#000000;" x="524.604565" xlink:href="#m9a83a78449" y="235.358182"/>
     <use style="fill:#bfbf00;stroke:#000000;" x="526.110889" xlink:href="#m9a83a78449" y="235.358182"/>
     <use style="fill:#bfbf00;stroke:#000000;" x="527.617213" xlink:href="#m9a83a78449" y="235.358182"/>
     <use style="fill:#bfbf00;stroke:#000000;" x="529.123538" xlink:href="#m9a83a78449" y="235.358182"/>
     <use style="fill:#bfbf00;stroke:#000000;" x="530.629862" xlink:href="#m9a83a78449" y="235.358182"/>
     <use style="fill:#bfbf00;stroke:#000000;" x="532.136186" xlink:href="#m9a83a78449" y="235.358182"/>
     <use style="fill:#bfbf00;stroke:#000000;" x="533.64251" xlink:href="#m9a83a78449" y="235.358182"/>
     <use style="fill:#bfbf00;stroke:#000000;" x="535.148834" xlink:href="#m9a83a78449" y="235.358182"/>
     <use style="fill:#bfbf00;stroke:#000000;" x="536.655158" xlink:href="#m9a83a78449" y="235.358182"/>
     <use style="fill:#bfbf00;stroke:#000000;" x="538.161482" xlink:href="#m9a83a78449" y="235.358182"/>
     <use style="fill:#bfbf00;stroke:#000000;" x="539.667806" xlink:href="#m9a83a78449" y="235.358182"/>
     <use style="fill:#bfbf00;stroke:#000000;" x="541.17413" xlink:href="#m9a83a78449" y="235.358182"/>
     <use style="fill:#bfbf00;stroke:#000000;" x="542.680455" xlink:href="#m9a83a78449" y="235.358182"/>
    </g>
   </g>
   <g id="patch_3">
    <path d="M 69.77 245.32 
L 69.77 26.16 
" style="fill:none;stroke:#000000;stroke-linecap:square;stroke-linejoin:miter;stroke-width:0.8;"/>
   </g>
   <g id="patch_4">
    <path d="M 565.2 245.32 
L 565.2 26.16 
" style="fill:none;stroke:#000000;stroke-linecap:square;stroke-linejoin:miter;stroke-width:0.8;"/>
   </g>
   <g id="patch_5">
    <path d="M 69.77 245.32 
L 565.2 245.32 
" style="fill:none;stroke:#000000;stroke-linecap:square;stroke-linejoin:miter;stroke-width:0.8;"/>
   </g>
   <g id="patch_6">
    <path d="M 69.77 26.16 
L 565.2 26.16 
" style="fill:none;stroke:#000000;stroke-linecap:square;stroke-linejoin:miter;stroke-width:0.8;"/>
   </g>
   <g id="text_15">
    <!-- Convergence de la solution -->
    <g transform="translate(234.55 20.16)scale(0.12 -0.12)">
     <defs>
      <path d="M 70.515625 19.28125 
Q 67.28125 9.078125 59.6875 3.828125 
Q 52.09375 -1.421875 40.484375 -1.421875 
Q 33.34375 -1.421875 27.234375 1.015625 
Q 21.140625 3.46875 16.40625 8.203125 
Q 10.9375 13.671875 8.265625 20.625 
Q 5.609375 27.59375 5.609375 36.375 
Q 5.609375 53.375 15.421875 63.796875 
Q 25.25 74.21875 41.3125 74.21875 
Q 47.265625 74.21875 54 72.65625 
Q 60.75 71.09375 68.5 67.921875 
L 68.5 51.125 
L 62.984375 51.125 
Q 61.1875 60.296875 55.734375 64.640625 
Q 50.296875 69 40.484375 69 
Q 28.8125 69 22.796875 60.71875 
Q 16.796875 52.4375 16.796875 36.375 
Q 16.796875 20.359375 22.796875 12.078125 
Q 28.8125 3.8125 40.484375 3.8125 
Q 48.640625 3.8125 53.90625 7.6875 
Q 59.1875 11.578125 61.53125 19.28125 
z
" id="DejaVuSerif-67"/>
      <path d="M 24.703125 0 
L 5.609375 46.6875 
L -0.296875 46.6875 
L -0.296875 51.90625 
L 23.578125 51.90625 
L 23.578125 46.6875 
L 15.28125 46.6875 
L 29.890625 10.984375 
L 44.484375 46.6875 
L 36.71875 46.6875 
L 36.71875 51.90625 
L 56.203125 51.90625 
L 56.203125 46.6875 
L 50.390625 46.6875 
L 31.296875 0 
z
" id="DejaVuSerif-118"/>
      <path d="M 20.515625 5.171875 
L 29 5.171875 
L 29 0 
L 2.875 0 
L 2.875 5.171875 
L 11.53125 5.171875 
L 11.53125 70.796875 
L 2.875 70.796875 
L 2.875 75.984375 
L 20.515625 75.984375 
z
" id="DejaVuSerif-108"/>
      <path d="M 35.40625 51.90625 
L 52.203125 51.90625 
L 52.203125 5.171875 
L 60.6875 5.171875 
L 60.6875 0 
L 43.21875 0 
L 43.21875 9.1875 
Q 40.71875 4 36.765625 1.28125 
Q 32.8125 -1.421875 27.59375 -1.421875 
Q 18.953125 -1.421875 14.875 3.484375 
Q 10.796875 8.40625 10.796875 18.890625 
L 10.796875 46.6875 
L 2.6875 46.6875 
L 2.6875 51.90625 
L 19.828125 51.90625 
L 19.828125 21.6875 
Q 19.828125 12.203125 22.140625 8.6875 
Q 24.46875 5.171875 30.421875 5.171875 
Q 36.671875 5.171875 39.9375 9.765625 
Q 43.21875 14.359375 43.21875 23.09375 
L 43.21875 46.6875 
L 35.40625 46.6875 
z
" id="DejaVuSerif-117"/>
     </defs>
     <use xlink:href="#DejaVuSerif-67"/>
     <use x="76.513672" xlink:href="#DejaVuSerif-111"/>
     <use x="136.71875" xlink:href="#DejaVuSerif-110"/>
     <use x="201.123047" xlink:href="#DejaVuSerif-118"/>
     <use x="257.617188" xlink:href="#DejaVuSerif-101"/>
     <use x="316.796875" xlink:href="#DejaVuSerif-114"/>
     <use x="364.599609" xlink:href="#DejaVuSerif-103"/>
     <use x="428.613281" xlink:href="#DejaVuSerif-101"/>
     <use x="487.792969" xlink:href="#DejaVuSerif-110"/>
     <use x="552.197266" xlink:href="#DejaVuSerif-99"/>
     <use x="608.203125" xlink:href="#DejaVuSerif-101"/>
     <use x="667.382812" xlink:href="#DejaVuSerif-32"/>
     <use x="699.169922" xlink:href="#DejaVuSerif-100"/>
     <use x="763.183594" xlink:href="#DejaVuSerif-101"/>
     <use x="822.363281" xlink:href="#DejaVuSerif-32"/>
     <use x="854.150391" xlink:href="#DejaVuSerif-108"/>
     <use x="886.132812" xlink:href="#DejaVuSerif-97"/>
     <use x="945.751953" xlink:href="#DejaVuSerif-32"/>
     <use x="977.539062" xlink:href="#DejaVuSerif-115"/>
     <use x="1028.857422" xlink:href="#DejaVuSerif-111"/>
     <use x="1089.0625" xlink:href="#DejaVuSerif-108"/>
     <use x="1121.044922" xlink:href="#DejaVuSerif-117"/>
     <use x="1185.449219" xlink:href="#DejaVuSerif-116"/>
     <use x="1225.634766" xlink:href="#DejaVuSerif-105"/>
     <use x="1257.617188" xlink:href="#DejaVuSerif-111"/>
     <use x="1317.822266" xlink:href="#DejaVuSerif-110"/>
    </g>
   </g>
   <g id="legend_1">
    <g id="patch_7">
     <path d="M 503.376562 48.838125 
L 558.2 48.838125 
Q 560.2 48.838125 560.2 46.838125 
L 560.2 33.16 
Q 560.2 31.16 558.2 31.16 
L 503.376562 31.16 
Q 501.376562 31.16 501.376562 33.16 
L 501.376562 46.838125 
Q 501.376562 48.838125 503.376562 48.838125 
z
" style="fill:#ffffff;opacity:0.8;stroke:#cccccc;stroke-linejoin:miter;"/>
    </g>
    <g id="line2d_26">
     <path d="M 505.376562 39.258437 
L 525.376562 39.258437 
" style="fill:none;stroke:#808080;stroke-dasharray:5.55,2.4;stroke-dashoffset:0;stroke-width:1.5;"/>
    </g>
    <g id="line2d_27">
     <g>
      <use style="fill:#bfbf00;stroke:#000000;" x="515.376562" xlink:href="#m9a83a78449" y="39.258437"/>
     </g>
    </g>
    <g id="text_16">
     <!-- fmin -->
     <g transform="translate(533.376562 42.758437)scale(0.1 -0.1)">
      <use xlink:href="#DejaVuSerif-102"/>
      <use x="37.011719" xlink:href="#DejaVuSerif-109"/>
      <use x="131.835938" xlink:href="#DejaVuSerif-105"/>
      <use x="163.818359" xlink:href="#DejaVuSerif-110"/>
     </g>
    </g>
   </g>
  </g>
 </g>
 <defs>
  <clipPath id="p4937927573">
   <rect height="219.16" width="495.43" x="69.77" y="26.16"/>
  </clipPath>
 </defs>
</svg>
