<?xml version="1.0" encoding="utf-8" standalone="no"?>
<!DOCTYPE svg PUBLIC "-//W3C//DTD SVG 1.1//EN"
  "http://www.w3.org/Graphics/SVG/1.1/DTD/svg11.dtd">
<!-- Created with matplotlib (https://matplotlib.org/) -->
<svg height="252pt" version="1.1" viewBox="0 0 648 252" width="648pt" xmlns="http://www.w3.org/2000/svg" xmlns:xlink="http://www.w3.org/1999/xlink">
 <metadata>
  <rdf:RDF xmlns:cc="http://creativecommons.org/ns#" xmlns:dc="http://purl.org/dc/elements/1.1/" xmlns:rdf="http://www.w3.org/1999/02/22-rdf-syntax-ns#">
   <cc:Work>
    <dc:type rdf:resource="http://purl.org/dc/dcmitype/StillImage"/>
    <dc:date>2021-04-16T17:13:42.106813</dc:date>
    <dc:format>image/svg+xml</dc:format>
    <dc:creator>
     <cc:Agent>
      <dc:title>Matplotlib v3.3.2, https://matplotlib.org/</dc:title>
     </cc:Agent>
    </dc:creator>
   </cc:Work>
  </rdf:RDF>
 </metadata>
 <defs>
  <style type="text/css">*{stroke-linecap:butt;stroke-linejoin:round;}</style>
 </defs>
 <g id="figure_1">
  <g id="patch_1">
   <path d="M 0 252 
L 648 252 
L 648 0 
L 0 0 
z
" style="fill:#ffffff;"/>
  </g>
  <g id="axes_1">
   <g id="patch_2">
    <path d="M 58.16 207.88 
L 637.2 207.88 
L 637.2 28.68 
L 58.16 28.68 
z
" style="fill:#ffffff;"/>
   </g>
   <g id="matplotlib.axis_1">
    <g id="xtick_1">
     <g id="line2d_1">
      <path clip-path="url(#p5489f9439e)" d="M 117.38 207.88 
L 117.38 28.68 
" style="fill:none;stroke:#b0b0b0;stroke-linecap:square;stroke-width:0.8;"/>
     </g>
     <g id="line2d_2">
      <defs>
       <path d="M 0 0 
L 0 3.5 
" id="m0f130f1ce4" style="stroke:#000000;stroke-width:0.8;"/>
      </defs>
      <g>
       <use style="stroke:#000000;stroke-width:0.8;" x="117.38" xlink:href="#m0f130f1ce4" y="207.88"/>
      </g>
     </g>
     <g id="text_1">
      <!-- 3 -->
      <g transform="translate(114.19875 222.478437)scale(0.1 -0.1)">
       <defs>
        <path d="M 9.71875 69.828125 
Q 15.4375 71.96875 20.671875 73.09375 
Q 25.921875 74.21875 30.515625 74.21875 
Q 41.21875 74.21875 47.21875 69.59375 
Q 53.21875 64.984375 53.21875 56.78125 
Q 53.21875 50.203125 49.0625 45.78125 
Q 44.921875 41.359375 37.3125 39.796875 
Q 46.296875 38.53125 51.25 33.28125 
Q 56.203125 28.03125 56.203125 19.671875 
Q 56.203125 9.46875 49.34375 4.015625 
Q 42.484375 -1.421875 29.59375 -1.421875 
Q 23.875 -1.421875 18.421875 -0.1875 
Q 12.984375 1.03125 7.625 3.515625 
L 7.625 17.671875 
L 13.09375 17.671875 
Q 13.578125 10.640625 17.828125 7.03125 
Q 22.078125 3.421875 29.78125 3.421875 
Q 37.25 3.421875 41.578125 7.734375 
Q 45.90625 12.0625 45.90625 19.578125 
Q 45.90625 28.171875 41.453125 32.59375 
Q 37.015625 37.015625 28.421875 37.015625 
L 23.78125 37.015625 
L 23.78125 42 
L 26.21875 42 
Q 34.765625 42 39.03125 45.53125 
Q 43.3125 49.078125 43.3125 56.203125 
Q 43.3125 62.59375 39.796875 65.984375 
Q 36.28125 69.390625 29.6875 69.390625 
Q 23.09375 69.390625 19.453125 66.265625 
Q 15.828125 63.140625 15.1875 56.984375 
L 9.71875 56.984375 
z
" id="DejaVuSerif-51"/>
       </defs>
       <use xlink:href="#DejaVuSerif-51"/>
      </g>
     </g>
    </g>
    <g id="xtick_2">
     <g id="line2d_3">
      <path clip-path="url(#p5489f9439e)" d="M 227.046667 207.88 
L 227.046667 28.68 
" style="fill:none;stroke:#b0b0b0;stroke-linecap:square;stroke-width:0.8;"/>
     </g>
     <g id="line2d_4">
      <g>
       <use style="stroke:#000000;stroke-width:0.8;" x="227.046667" xlink:href="#m0f130f1ce4" y="207.88"/>
      </g>
     </g>
     <g id="text_2">
      <!-- 4 -->
      <g transform="translate(223.865417 222.478437)scale(0.1 -0.1)">
       <defs>
        <path d="M 34.90625 24.703125 
L 34.90625 63.484375 
L 10.015625 24.703125 
z
M 56.390625 0 
L 23.1875 0 
L 23.1875 5.171875 
L 34.90625 5.171875 
L 34.90625 19.484375 
L 3.078125 19.484375 
L 3.078125 24.8125 
L 35.015625 74.21875 
L 44.671875 74.21875 
L 44.671875 24.703125 
L 58.59375 24.703125 
L 58.59375 19.484375 
L 44.671875 19.484375 
L 44.671875 5.171875 
L 56.390625 5.171875 
z
" id="DejaVuSerif-52"/>
       </defs>
       <use xlink:href="#DejaVuSerif-52"/>
      </g>
     </g>
    </g>
    <g id="xtick_3">
     <g id="line2d_5">
      <path clip-path="url(#p5489f9439e)" d="M 336.713333 207.88 
L 336.713333 28.68 
" style="fill:none;stroke:#b0b0b0;stroke-linecap:square;stroke-width:0.8;"/>
     </g>
     <g id="line2d_6">
      <g>
       <use style="stroke:#000000;stroke-width:0.8;" x="336.713333" xlink:href="#m0f130f1ce4" y="207.88"/>
      </g>
     </g>
     <g id="text_3">
      <!-- 5 -->
      <g transform="translate(333.532083 222.478437)scale(0.1 -0.1)">
       <defs>
        <path d="M 50.296875 72.90625 
L 50.296875 64.890625 
L 16.890625 64.890625 
L 16.890625 44 
Q 19.4375 45.75 22.828125 46.625 
Q 26.21875 47.515625 30.421875 47.515625 
Q 42.234375 47.515625 49.0625 40.96875 
Q 55.90625 34.421875 55.90625 23.09375 
Q 55.90625 11.53125 49 5.046875 
Q 42.09375 -1.421875 29.59375 -1.421875 
Q 24.5625 -1.421875 19.28125 -0.1875 
Q 14.015625 1.03125 8.5 3.515625 
L 8.5 17.671875 
L 14.015625 17.671875 
Q 14.453125 10.75 18.421875 7.078125 
Q 22.40625 3.421875 29.59375 3.421875 
Q 37.3125 3.421875 41.453125 8.5 
Q 45.609375 13.578125 45.609375 23.09375 
Q 45.609375 32.5625 41.484375 37.609375 
Q 37.359375 42.671875 29.59375 42.671875 
Q 25.203125 42.671875 21.84375 41.109375 
Q 18.5 39.546875 15.921875 36.28125 
L 11.71875 36.28125 
L 11.71875 72.90625 
z
" id="DejaVuSerif-53"/>
       </defs>
       <use xlink:href="#DejaVuSerif-53"/>
      </g>
     </g>
    </g>
    <g id="xtick_4">
     <g id="line2d_7">
      <path clip-path="url(#p5489f9439e)" d="M 446.38 207.88 
L 446.38 28.68 
" style="fill:none;stroke:#b0b0b0;stroke-linecap:square;stroke-width:0.8;"/>
     </g>
     <g id="line2d_8">
      <g>
       <use style="stroke:#000000;stroke-width:0.8;" x="446.38" xlink:href="#m0f130f1ce4" y="207.88"/>
      </g>
     </g>
     <g id="text_4">
      <!-- 6 -->
      <g transform="translate(443.19875 222.478437)scale(0.1 -0.1)">
       <defs>
        <path d="M 32.71875 3.421875 
Q 39.59375 3.421875 43.296875 8.46875 
Q 47.015625 13.53125 47.015625 23 
Q 47.015625 32.46875 43.296875 37.515625 
Q 39.59375 42.578125 32.71875 42.578125 
Q 25.734375 42.578125 22.0625 37.6875 
Q 18.40625 32.8125 18.40625 23.578125 
Q 18.40625 13.875 22.109375 8.640625 
Q 25.828125 3.421875 32.71875 3.421875 
z
M 16.796875 40.140625 
Q 20.125 43.796875 24.3125 45.59375 
Q 28.515625 47.40625 33.796875 47.40625 
Q 44.671875 47.40625 51 40.859375 
Q 57.328125 34.328125 57.328125 23 
Q 57.328125 11.921875 50.515625 5.25 
Q 43.703125 -1.421875 32.328125 -1.421875 
Q 19.96875 -1.421875 13.328125 7.78125 
Q 6.6875 17 6.6875 34.078125 
Q 6.6875 53.21875 14.546875 63.71875 
Q 22.40625 74.21875 36.71875 74.21875 
Q 40.578125 74.21875 44.828125 73.484375 
Q 49.078125 72.75 53.515625 71.296875 
L 53.515625 59.28125 
L 48 59.28125 
Q 47.40625 64.203125 44.234375 66.796875 
Q 41.0625 69.390625 35.6875 69.390625 
Q 26.21875 69.390625 21.578125 62.203125 
Q 16.9375 55.03125 16.796875 40.140625 
z
" id="DejaVuSerif-54"/>
       </defs>
       <use xlink:href="#DejaVuSerif-54"/>
      </g>
     </g>
    </g>
    <g id="xtick_5">
     <g id="line2d_9">
      <path clip-path="url(#p5489f9439e)" d="M 556.046667 207.88 
L 556.046667 28.68 
" style="fill:none;stroke:#b0b0b0;stroke-linecap:square;stroke-width:0.8;"/>
     </g>
     <g id="line2d_10">
      <g>
       <use style="stroke:#000000;stroke-width:0.8;" x="556.046667" xlink:href="#m0f130f1ce4" y="207.88"/>
      </g>
     </g>
     <g id="text_5">
      <!-- 7 -->
      <g transform="translate(552.865417 222.478437)scale(0.1 -0.1)">
       <defs>
        <path d="M 56.390625 67.921875 
L 27.875 0 
L 20.609375 0 
L 47.796875 64.890625 
L 14.109375 64.890625 
L 14.109375 55.90625 
L 8.40625 55.90625 
L 8.40625 72.90625 
L 56.390625 72.90625 
z
" id="DejaVuSerif-55"/>
       </defs>
       <use xlink:href="#DejaVuSerif-55"/>
      </g>
     </g>
    </g>
    <g id="text_6">
     <!-- x -->
     <g transform="translate(344.296562 237.67625)scale(0.12 -0.12)">
      <defs>
       <path d="M 29.109375 31.6875 
L 39.984375 46.6875 
L 33.015625 46.6875 
L 33.015625 51.90625 
L 52.984375 51.90625 
L 52.984375 46.6875 
L 46.09375 46.6875 
L 32.171875 27.484375 
L 48.390625 5.171875 
L 55.171875 5.171875 
L 55.171875 0 
L 31.203125 0 
L 31.203125 5.171875 
L 37.796875 5.171875 
L 26.515625 20.703125 
L 15.1875 5.171875 
L 21.921875 5.171875 
L 21.921875 0 
L 2.203125 0 
L 2.203125 5.171875 
L 9.078125 5.171875 
L 23.390625 24.90625 
L 7.625 46.6875 
L 1.21875 46.6875 
L 1.21875 51.90625 
L 24.421875 51.90625 
L 24.421875 46.6875 
L 18.21875 46.6875 
z
" id="DejaVuSerif-120"/>
      </defs>
      <use xlink:href="#DejaVuSerif-120"/>
     </g>
    </g>
   </g>
   <g id="matplotlib.axis_2">
    <g id="ytick_1">
     <g id="line2d_11">
      <path clip-path="url(#p5489f9439e)" d="M 58.16 205.602237 
L 637.2 205.602237 
" style="fill:none;stroke:#b0b0b0;stroke-linecap:square;stroke-width:0.8;"/>
     </g>
     <g id="line2d_12">
      <defs>
       <path d="M 0 0 
L -3.5 0 
" id="mb33f816257" style="stroke:#000000;stroke-width:0.8;"/>
      </defs>
      <g>
       <use style="stroke:#000000;stroke-width:0.8;" x="58.16" xlink:href="#mb33f816257" y="205.602237"/>
      </g>
     </g>
     <g id="text_7">
      <!-- −2.0 -->
      <g transform="translate(26.877188 209.401456)scale(0.1 -0.1)">
       <defs>
        <path d="M 10.59375 35.296875 
L 73.1875 35.296875 
L 73.1875 27.390625 
L 10.59375 27.390625 
z
" id="DejaVuSerif-8722"/>
        <path d="M 12.796875 55.515625 
L 7.328125 55.515625 
L 7.328125 68.5 
Q 12.546875 71.296875 17.84375 72.75 
Q 23.140625 74.21875 28.21875 74.21875 
Q 39.59375 74.21875 46.1875 68.703125 
Q 52.78125 63.1875 52.78125 53.71875 
Q 52.78125 43.015625 37.84375 28.125 
Q 36.671875 27 36.078125 26.421875 
L 17.671875 8.015625 
L 48.09375 8.015625 
L 48.09375 17 
L 53.8125 17 
L 53.8125 0 
L 6.78125 0 
L 6.78125 5.328125 
L 28.90625 27.390625 
Q 36.234375 34.71875 39.359375 40.84375 
Q 42.484375 46.96875 42.484375 53.71875 
Q 42.484375 61.078125 38.640625 65.234375 
Q 34.8125 69.390625 28.078125 69.390625 
Q 21.09375 69.390625 17.28125 65.921875 
Q 13.484375 62.453125 12.796875 55.515625 
z
" id="DejaVuSerif-50"/>
        <path d="M 9.421875 5.078125 
Q 9.421875 7.8125 11.28125 9.71875 
Q 13.140625 11.625 15.921875 11.625 
Q 18.609375 11.625 20.5 9.71875 
Q 22.40625 7.8125 22.40625 5.078125 
Q 22.40625 2.390625 20.5 0.484375 
Q 18.609375 -1.421875 15.921875 -1.421875 
Q 13.140625 -1.421875 11.28125 0.453125 
Q 9.421875 2.34375 9.421875 5.078125 
z
" id="DejaVuSerif-46"/>
        <path d="M 31.78125 3.421875 
Q 39.265625 3.421875 42.96875 11.625 
Q 46.6875 19.828125 46.6875 36.375 
Q 46.6875 52.984375 42.96875 61.1875 
Q 39.265625 69.390625 31.78125 69.390625 
Q 24.3125 69.390625 20.59375 61.1875 
Q 16.890625 52.984375 16.890625 36.375 
Q 16.890625 19.828125 20.59375 11.625 
Q 24.3125 3.421875 31.78125 3.421875 
z
M 31.78125 -1.421875 
Q 19.921875 -1.421875 13.25 8.53125 
Q 6.59375 18.5 6.59375 36.375 
Q 6.59375 54.296875 13.25 64.25 
Q 19.921875 74.21875 31.78125 74.21875 
Q 43.703125 74.21875 50.34375 64.25 
Q 56.984375 54.296875 56.984375 36.375 
Q 56.984375 18.5 50.34375 8.53125 
Q 43.703125 -1.421875 31.78125 -1.421875 
z
" id="DejaVuSerif-48"/>
       </defs>
       <use xlink:href="#DejaVuSerif-8722"/>
       <use x="83.789062" xlink:href="#DejaVuSerif-50"/>
       <use x="147.412109" xlink:href="#DejaVuSerif-46"/>
       <use x="179.199219" xlink:href="#DejaVuSerif-48"/>
      </g>
     </g>
    </g>
    <g id="ytick_2">
     <g id="line2d_13">
      <path clip-path="url(#p5489f9439e)" d="M 58.16 176.380855 
L 637.2 176.380855 
" style="fill:none;stroke:#b0b0b0;stroke-linecap:square;stroke-width:0.8;"/>
     </g>
     <g id="line2d_14">
      <g>
       <use style="stroke:#000000;stroke-width:0.8;" x="58.16" xlink:href="#mb33f816257" y="176.380855"/>
      </g>
     </g>
     <g id="text_8">
      <!-- −1.5 -->
      <g transform="translate(26.877188 180.180074)scale(0.1 -0.1)">
       <defs>
        <path d="M 14.203125 0 
L 14.203125 5.171875 
L 26.90625 5.171875 
L 26.90625 65.828125 
L 12.203125 56.296875 
L 12.203125 62.703125 
L 29.984375 74.21875 
L 36.71875 74.21875 
L 36.71875 5.171875 
L 49.421875 5.171875 
L 49.421875 0 
z
" id="DejaVuSerif-49"/>
       </defs>
       <use xlink:href="#DejaVuSerif-8722"/>
       <use x="83.789062" xlink:href="#DejaVuSerif-49"/>
       <use x="147.412109" xlink:href="#DejaVuSerif-46"/>
       <use x="179.199219" xlink:href="#DejaVuSerif-53"/>
      </g>
     </g>
    </g>
    <g id="ytick_3">
     <g id="line2d_15">
      <path clip-path="url(#p5489f9439e)" d="M 58.16 147.159473 
L 637.2 147.159473 
" style="fill:none;stroke:#b0b0b0;stroke-linecap:square;stroke-width:0.8;"/>
     </g>
     <g id="line2d_16">
      <g>
       <use style="stroke:#000000;stroke-width:0.8;" x="58.16" xlink:href="#mb33f816257" y="147.159473"/>
      </g>
     </g>
     <g id="text_9">
      <!-- −1.0 -->
      <g transform="translate(26.877188 150.958692)scale(0.1 -0.1)">
       <use xlink:href="#DejaVuSerif-8722"/>
       <use x="83.789062" xlink:href="#DejaVuSerif-49"/>
       <use x="147.412109" xlink:href="#DejaVuSerif-46"/>
       <use x="179.199219" xlink:href="#DejaVuSerif-48"/>
      </g>
     </g>
    </g>
    <g id="ytick_4">
     <g id="line2d_17">
      <path clip-path="url(#p5489f9439e)" d="M 58.16 117.938091 
L 637.2 117.938091 
" style="fill:none;stroke:#b0b0b0;stroke-linecap:square;stroke-width:0.8;"/>
     </g>
     <g id="line2d_18">
      <g>
       <use style="stroke:#000000;stroke-width:0.8;" x="58.16" xlink:href="#mb33f816257" y="117.938091"/>
      </g>
     </g>
     <g id="text_10">
      <!-- −0.5 -->
      <g transform="translate(26.877188 121.737309)scale(0.1 -0.1)">
       <use xlink:href="#DejaVuSerif-8722"/>
       <use x="83.789062" xlink:href="#DejaVuSerif-48"/>
       <use x="147.412109" xlink:href="#DejaVuSerif-46"/>
       <use x="179.199219" xlink:href="#DejaVuSerif-53"/>
      </g>
     </g>
    </g>
    <g id="ytick_5">
     <g id="line2d_19">
      <path clip-path="url(#p5489f9439e)" d="M 58.16 88.716709 
L 637.2 88.716709 
" style="fill:none;stroke:#b0b0b0;stroke-linecap:square;stroke-width:0.8;"/>
     </g>
     <g id="line2d_20">
      <g>
       <use style="stroke:#000000;stroke-width:0.8;" x="58.16" xlink:href="#mb33f816257" y="88.716709"/>
      </g>
     </g>
     <g id="text_11">
      <!-- 0.0 -->
      <g transform="translate(35.256875 92.515927)scale(0.1 -0.1)">
       <use xlink:href="#DejaVuSerif-48"/>
       <use x="63.623047" xlink:href="#DejaVuSerif-46"/>
       <use x="95.410156" xlink:href="#DejaVuSerif-48"/>
      </g>
     </g>
    </g>
    <g id="ytick_6">
     <g id="line2d_21">
      <path clip-path="url(#p5489f9439e)" d="M 58.16 59.495327 
L 637.2 59.495327 
" style="fill:none;stroke:#b0b0b0;stroke-linecap:square;stroke-width:0.8;"/>
     </g>
     <g id="line2d_22">
      <g>
       <use style="stroke:#000000;stroke-width:0.8;" x="58.16" xlink:href="#mb33f816257" y="59.495327"/>
      </g>
     </g>
     <g id="text_12">
      <!-- 0.5 -->
      <g transform="translate(35.256875 63.294545)scale(0.1 -0.1)">
       <use xlink:href="#DejaVuSerif-48"/>
       <use x="63.623047" xlink:href="#DejaVuSerif-46"/>
       <use x="95.410156" xlink:href="#DejaVuSerif-53"/>
      </g>
     </g>
    </g>
    <g id="ytick_7">
     <g id="line2d_23">
      <path clip-path="url(#p5489f9439e)" d="M 58.16 30.273944 
L 637.2 30.273944 
" style="fill:none;stroke:#b0b0b0;stroke-linecap:square;stroke-width:0.8;"/>
     </g>
     <g id="line2d_24">
      <g>
       <use style="stroke:#000000;stroke-width:0.8;" x="58.16" xlink:href="#mb33f816257" y="30.273944"/>
      </g>
     </g>
     <g id="text_13">
      <!-- 1.0 -->
      <g transform="translate(35.256875 34.073163)scale(0.1 -0.1)">
       <use xlink:href="#DejaVuSerif-49"/>
       <use x="63.623047" xlink:href="#DejaVuSerif-46"/>
       <use x="95.410156" xlink:href="#DejaVuSerif-48"/>
      </g>
     </g>
    </g>
    <g id="text_14">
     <!-- f(x) -->
     <g transform="translate(20.381563 128.56625)rotate(-90)scale(0.12 -0.12)">
      <defs>
       <path d="M 43.015625 63.71875 
L 38.28125 63.71875 
Q 38.234375 67.390625 36.203125 69.28125 
Q 34.1875 71.1875 30.328125 71.1875 
Q 25.296875 71.1875 23.234375 68.421875 
Q 21.1875 65.671875 21.1875 58.59375 
L 21.1875 51.90625 
L 35.6875 51.90625 
L 35.6875 46.6875 
L 21.1875 46.6875 
L 21.1875 5.171875 
L 32.71875 5.171875 
L 32.71875 0 
L 3.609375 0 
L 3.609375 5.171875 
L 12.203125 5.171875 
L 12.203125 46.6875 
L 3.609375 46.6875 
L 3.609375 51.90625 
L 12.203125 51.90625 
L 12.203125 58.40625 
Q 12.203125 67.09375 16.71875 71.53125 
Q 21.234375 75.984375 29.984375 75.984375 
Q 33.25 75.984375 36.515625 75.390625 
Q 39.796875 74.8125 43.015625 73.578125 
z
" id="DejaVuSerif-102"/>
       <path d="M 31.890625 -15.578125 
Q 20.015625 -10.25 13.953125 1.296875 
Q 7.90625 12.84375 7.90625 30.171875 
Q 7.90625 47.5625 13.953125 59.109375 
Q 20.015625 70.65625 31.890625 75.984375 
L 31.890625 71.1875 
Q 24.359375 66.015625 21.09375 56.609375 
Q 17.828125 47.21875 17.828125 30.171875 
Q 17.828125 13.1875 21.09375 3.78125 
Q 24.359375 -5.609375 31.890625 -10.796875 
z
" id="DejaVuSerif-40"/>
       <path d="M 7.078125 -15.578125 
L 7.078125 -10.796875 
Q 14.59375 -5.609375 17.890625 3.78125 
Q 21.1875 13.1875 21.1875 30.171875 
Q 21.1875 47.21875 17.890625 56.609375 
Q 14.59375 66.015625 7.078125 71.1875 
L 7.078125 75.984375 
Q 19 70.65625 25.046875 59.109375 
Q 31.109375 47.5625 31.109375 30.171875 
Q 31.109375 12.84375 25.046875 1.296875 
Q 19 -10.25 7.078125 -15.578125 
z
" id="DejaVuSerif-41"/>
      </defs>
      <use xlink:href="#DejaVuSerif-102"/>
      <use x="37.011719" xlink:href="#DejaVuSerif-40"/>
      <use x="76.025391" xlink:href="#DejaVuSerif-120"/>
      <use x="132.421875" xlink:href="#DejaVuSerif-41"/>
     </g>
    </g>
   </g>
   <g id="line2d_25">
    <path clip-path="url(#p5489f9439e)" d="M 84.48 39.654104 
L 88.708112 48.73227 
L 95.050281 62.902554 
L 109.848675 96.355436 
L 114.076787 105.449352 
L 118.3049 114.117433 
L 122.533012 122.250135 
L 126.761124 129.746916 
L 130.989237 136.517847 
L 133.103293 139.606274 
L 135.217349 142.485042 
L 137.331406 145.146502 
L 139.445462 147.583897 
L 141.559518 149.791392 
L 143.673574 151.764097 
L 145.787631 153.498086 
L 147.901687 154.990407 
L 150.015743 156.239098 
L 152.129799 157.243191 
L 154.243855 158.002716 
L 156.357912 158.518696 
L 158.471968 158.793146 
L 160.586024 158.829059 
L 162.70008 158.630394 
L 164.814137 158.202058 
L 166.928193 157.549884 
L 169.042249 156.680605 
L 171.156305 155.601827 
L 173.270361 154.321993 
L 175.384418 152.850347 
L 177.498474 151.196898 
L 179.61253 149.372371 
L 183.840643 145.256317 
L 188.068755 140.600588 
L 192.296867 135.511905 
L 196.52498 130.1035 
L 204.981205 118.801475 
L 211.323373 110.375608 
L 215.551486 105.006094 
L 219.779598 99.968042 
L 224.007711 95.368754 
L 228.235823 91.307363 
L 230.34988 89.506713 
L 232.463936 87.873172 
L 234.577992 86.416118 
L 236.692048 85.144139 
L 238.806104 84.064991 
L 240.920161 83.185569 
L 243.034217 82.511877 
L 245.148273 82.049 
L 247.262329 81.801087 
L 249.376386 81.771327 
L 251.490442 81.96194 
L 253.604498 82.374164 
L 255.718554 83.008253 
L 257.83261 83.863468 
L 259.946667 84.938088 
L 262.060723 86.229411 
L 264.174779 87.733764 
L 266.288835 89.446522 
L 268.402892 91.362122 
L 270.516948 93.474089 
L 272.631004 95.775058 
L 274.74506 98.256809 
L 278.973173 103.725687 
L 283.201285 109.799157 
L 287.429398 116.384414 
L 291.65751 123.378935 
L 297.999679 134.394485 
L 312.798072 160.444027 
L 317.026185 167.423205 
L 321.254297 173.976192 
L 325.48241 179.990613 
L 329.710522 185.361687 
L 331.824578 187.775731 
L 333.938635 189.993962 
L 336.052691 192.006166 
L 338.166747 193.802901 
L 340.280803 195.375536 
L 342.394859 196.716287 
L 344.508916 197.818249 
L 346.622972 198.675428 
L 348.737028 199.282761 
L 350.851084 199.636143 
L 352.965141 199.732439 
L 355.079197 199.569505 
L 357.193253 199.146187 
L 359.307309 198.462339 
L 361.421365 197.518813 
L 363.535422 196.317463 
L 365.649478 194.861136 
L 367.763534 193.15366 
L 369.87759 191.199832 
L 371.991647 189.005396 
L 374.105703 186.577021 
L 376.219759 183.922277 
L 378.333815 181.049599 
L 380.447871 177.968258 
L 384.675984 171.22062 
L 388.904096 163.768724 
L 393.132209 155.71257 
L 397.360321 147.161183 
L 403.70249 133.661445 
L 422.728996 92.230179 
L 426.957108 83.629563 
L 431.185221 75.502444 
L 435.413333 67.952286 
L 439.641446 61.072506 
L 443.869558 54.944974 
L 445.983614 52.185405 
L 448.097671 49.638716 
L 450.211727 47.311348 
L 452.325783 45.208817 
L 454.439839 43.335689 
L 456.553896 41.695566 
L 458.667952 40.29107 
L 460.782008 39.123836 
L 462.896064 38.194505 
L 465.01012 37.502724 
L 467.124177 37.04715 
L 469.238233 36.825455 
L 471.352289 36.834335 
L 473.466345 37.069534 
L 475.580402 37.525853 
L 477.694458 38.197178 
L 479.808514 39.076507 
L 481.92257 40.15598 
L 484.036627 41.426912 
L 486.150683 42.879831 
L 488.264739 44.504518 
L 490.378795 46.290054 
L 494.606908 50.296758 
L 498.83502 54.800367 
L 503.063133 59.69331 
L 509.405301 67.512713 
L 522.089639 83.403927 
L 526.317751 88.338497 
L 530.545863 92.901196 
L 534.773976 96.98655 
L 536.888032 98.819534 
L 539.002088 100.497562 
L 541.116145 102.010107 
L 543.230201 103.347363 
L 545.344257 104.500297 
L 547.458313 105.46068 
L 549.572369 106.221126 
L 551.686426 106.775123 
L 553.800482 107.117062 
L 555.914538 107.242258 
L 558.028594 107.146974 
L 560.142651 106.828438 
L 562.256707 106.284852 
L 564.370763 105.515404 
L 566.484819 104.520271 
L 568.598876 103.300619 
L 570.712932 101.858602 
L 572.826988 100.197349 
L 574.941044 98.320957 
L 577.0551 96.234474 
L 579.169157 93.943876 
L 581.283213 91.456049 
L 583.397269 88.778756 
L 587.625382 82.891034 
L 591.853494 76.359138 
L 596.081606 69.27322 
L 600.309719 61.733696 
L 606.651888 49.814368 
L 610.88 41.632399 
L 610.88 41.632399 
" style="fill:none;stroke:#808080;stroke-linecap:square;stroke-width:1.5;"/>
   </g>
   <g id="line2d_26">
    <defs>
     <path d="M -0 4.242641 
L 4.242641 0 
L 0 -4.242641 
L -4.242641 -0 
z
" id="m2da2aee7df" style="stroke:#000000;stroke-linejoin:miter;"/>
    </defs>
    <g clip-path="url(#p5489f9439e)">
     <use style="fill:#1f77b4;stroke:#000000;stroke-linejoin:miter;" x="84.48" xlink:href="#m2da2aee7df" y="39.654104"/>
     <use style="fill:#1f77b4;stroke:#000000;stroke-linejoin:miter;" x="610.88" xlink:href="#m2da2aee7df" y="41.632399"/>
     <use style="fill:#1f77b4;stroke:#000000;stroke-linejoin:miter;" x="285.546908" xlink:href="#m2da2aee7df" y="113.3956"/>
     <use style="fill:#1f77b4;stroke:#000000;stroke-linejoin:miter;" x="486.613817" xlink:href="#m2da2aee7df" y="43.221433"/>
     <use style="fill:#1f77b4;stroke:#000000;stroke-linejoin:miter;" x="409.813092" xlink:href="#m2da2aee7df" y="120.235165"/>
     <use style="fill:#1f77b4;stroke:#000000;stroke-linejoin:miter;" x="333.012367" xlink:href="#m2da2aee7df" y="189.046824"/>
     <use style="fill:#1f77b4;stroke:#000000;stroke-linejoin:miter;" x="380.477825" xlink:href="#m2da2aee7df" y="177.923148"/>
     <use style="fill:#1f77b4;stroke:#000000;stroke-linejoin:miter;" x="362.347633" xlink:href="#m2da2aee7df" y="197.024034"/>
     <use style="fill:#1f77b4;stroke:#000000;stroke-linejoin:miter;" x="344.217441" xlink:href="#m2da2aee7df" y="197.68074"/>
     <use style="fill:#1f77b4;stroke:#000000;stroke-linejoin:miter;" x="355.422516" xlink:href="#m2da2aee7df" y="199.518484"/>
     <use style="fill:#1f77b4;stroke:#000000;stroke-linejoin:miter;" x="348.497399" xlink:href="#m2da2aee7df" y="199.226613"/>
     <use style="fill:#1f77b4;stroke:#000000;stroke-linejoin:miter;" x="351.142559" xlink:href="#m2da2aee7df" y="199.664758"/>
     <use style="fill:#1f77b4;stroke:#000000;stroke-linejoin:miter;" x="353.787718" xlink:href="#m2da2aee7df" y="199.699937"/>
     <use style="fill:#1f77b4;stroke:#000000;stroke-linejoin:miter;" x="352.152919" xlink:href="#m2da2aee7df" y="199.726013"/>
     <use style="fill:#1f77b4;stroke:#000000;stroke-linejoin:miter;" x="353.16328" xlink:href="#m2da2aee7df" y="199.728203"/>
     <use style="fill:#1f77b4;stroke:#000000;stroke-linejoin:miter;" x="352.538843" xlink:href="#m2da2aee7df" y="199.733833"/>
     <use style="fill:#1f77b4;stroke:#000000;stroke-linejoin:miter;" x="352.924767" xlink:href="#m2da2aee7df" y="199.733023"/>
     <use style="fill:#1f77b4;stroke:#000000;stroke-linejoin:miter;" x="352.777357" xlink:href="#m2da2aee7df" y="199.734352"/>
     <use style="fill:#1f77b4;stroke:#000000;stroke-linejoin:miter;" x="352.629947" xlink:href="#m2da2aee7df" y="199.73442"/>
     <use style="fill:#1f77b4;stroke:#000000;stroke-linejoin:miter;" x="352.721051" xlink:href="#m2da2aee7df" y="199.734527"/>
     <use style="fill:#1f77b4;stroke:#000000;stroke-linejoin:miter;" x="352.664746" xlink:href="#m2da2aee7df" y="199.734518"/>
     <use style="fill:#1f77b4;stroke:#000000;stroke-linejoin:miter;" x="352.686253" xlink:href="#m2da2aee7df" y="199.734543"/>
     <use style="fill:#1f77b4;stroke:#000000;stroke-linejoin:miter;" x="352.707759" xlink:href="#m2da2aee7df" y="199.734541"/>
     <use style="fill:#1f77b4;stroke:#000000;stroke-linejoin:miter;" x="352.699545" xlink:href="#m2da2aee7df" y="199.734545"/>
     <use style="fill:#1f77b4;stroke:#000000;stroke-linejoin:miter;" x="352.69133" xlink:href="#m2da2aee7df" y="199.734545"/>
     <use style="fill:#1f77b4;stroke:#000000;stroke-linejoin:miter;" x="352.694468" xlink:href="#m2da2aee7df" y="199.734545"/>
     <use style="fill:#1f77b4;stroke:#000000;stroke-linejoin:miter;" x="352.697605" xlink:href="#m2da2aee7df" y="199.734545"/>
     <use style="fill:#1f77b4;stroke:#000000;stroke-linejoin:miter;" x="352.696407" xlink:href="#m2da2aee7df" y="199.734545"/>
     <use style="fill:#1f77b4;stroke:#000000;stroke-linejoin:miter;" x="352.695208" xlink:href="#m2da2aee7df" y="199.734545"/>
     <use style="fill:#1f77b4;stroke:#000000;stroke-linejoin:miter;" x="352.695949" xlink:href="#m2da2aee7df" y="199.734545"/>
     <use style="fill:#1f77b4;stroke:#000000;stroke-linejoin:miter;" x="352.695491" xlink:href="#m2da2aee7df" y="199.734545"/>
    </g>
   </g>
   <g id="line2d_27">
    <defs>
     <path d="M -3 3 
L 3 3 
L 3 -3 
L -3 -3 
z
" id="m30930c2b32" style="stroke:#000000;stroke-linejoin:miter;"/>
    </defs>
    <g clip-path="url(#p5489f9439e)">
     <use style="fill:#ff7f0e;stroke:#000000;stroke-linejoin:miter;" x="84.48" xlink:href="#m30930c2b32" y="39.654104"/>
     <use style="fill:#ff7f0e;stroke:#000000;stroke-linejoin:miter;" x="258.192" xlink:href="#m30930c2b32" y="84.030737"/>
     <use style="fill:#ff7f0e;stroke:#000000;stroke-linejoin:miter;" x="345.048" xlink:href="#m30930c2b32" y="198.060299"/>
     <use style="fill:#ff7f0e;stroke:#000000;stroke-linejoin:miter;" x="355.905" xlink:href="#m30930c2b32" y="199.435167"/>
     <use style="fill:#ff7f0e;stroke:#000000;stroke-linejoin:miter;" x="350.4765" xlink:href="#m30930c2b32" y="199.592192"/>
     <use style="fill:#ff7f0e;stroke:#000000;stroke-linejoin:miter;" x="353.19075" xlink:href="#m30930c2b32" y="199.727436"/>
     <use style="fill:#ff7f0e;stroke:#000000;stroke-linejoin:miter;" x="352.512188" xlink:href="#m30930c2b32" y="199.73357"/>
     <use style="fill:#ff7f0e;stroke:#000000;stroke-linejoin:miter;" x="352.851469" xlink:href="#m30930c2b32" y="199.733841"/>
     <use style="fill:#ff7f0e;stroke:#000000;stroke-linejoin:miter;" x="352.681828" xlink:href="#m30930c2b32" y="199.73454"/>
     <use style="fill:#ff7f0e;stroke:#000000;stroke-linejoin:miter;" x="352.703033" xlink:href="#m30930c2b32" y="199.734544"/>
     <use style="fill:#ff7f0e;stroke:#000000;stroke-linejoin:miter;" x="352.692431" xlink:href="#m30930c2b32" y="199.734545"/>
     <use style="fill:#ff7f0e;stroke:#000000;stroke-linejoin:miter;" x="352.697732" xlink:href="#m30930c2b32" y="199.734545"/>
     <use style="fill:#ff7f0e;stroke:#000000;stroke-linejoin:miter;" x="352.695081" xlink:href="#m30930c2b32" y="199.734545"/>
     <use style="fill:#ff7f0e;stroke:#000000;stroke-linejoin:miter;" x="352.695744" xlink:href="#m30930c2b32" y="199.734545"/>
     <use style="fill:#ff7f0e;stroke:#000000;stroke-linejoin:miter;" x="352.695578" xlink:href="#m30930c2b32" y="199.734545"/>
    </g>
   </g>
   <g id="line2d_28">
    <defs>
     <path d="M 0 3 
C 0.795609 3 1.55874 2.683901 2.12132 2.12132 
C 2.683901 1.55874 3 0.795609 3 0 
C 3 -0.795609 2.683901 -1.55874 2.12132 -2.12132 
C 1.55874 -2.683901 0.795609 -3 0 -3 
C -0.795609 -3 -1.55874 -2.683901 -2.12132 -2.12132 
C -2.683901 -1.55874 -3 -0.795609 -3 0 
C -3 0.795609 -2.683901 1.55874 -2.12132 2.12132 
C -1.55874 2.683901 -0.795609 3 0 3 
z
" id="m885e969dc8" style="stroke:#000000;"/>
    </defs>
    <g clip-path="url(#p5489f9439e)">
     <use style="fill:#2ca02c;stroke:#000000;" x="84.48" xlink:href="#m885e969dc8" y="39.654104"/>
     <use style="fill:#2ca02c;stroke:#000000;" x="94.853167" xlink:href="#m885e969dc8" y="62.455575"/>
     <use style="fill:#2ca02c;stroke:#000000;" x="106.049093" xlink:href="#m885e969dc8" y="87.916077"/>
     <use style="fill:#2ca02c;stroke:#000000;" x="117.143211" xlink:href="#m885e969dc8" y="111.7847"/>
     <use style="fill:#2ca02c;stroke:#000000;" x="127.143678" xlink:href="#m885e969dc8" y="130.39066"/>
     <use style="fill:#2ca02c;stroke:#000000;" x="135.415963" xlink:href="#m885e969dc8" y="142.744445"/>
     <use style="fill:#2ca02c;stroke:#000000;" x="141.842572" xlink:href="#m885e969dc8" y="150.06923"/>
     <use style="fill:#2ca02c;stroke:#000000;" x="146.65366" xlink:href="#m885e969dc8" y="154.138776"/>
     <use style="fill:#2ca02c;stroke:#000000;" x="150.191478" xlink:href="#m885e969dc8" y="156.331892"/>
     <use style="fill:#2ca02c;stroke:#000000;" x="152.775637" xlink:href="#m885e969dc8" y="157.501141"/>
     <use style="fill:#2ca02c;stroke:#000000;" x="154.660988" xlink:href="#m885e969dc8" y="158.123763"/>
     <use style="fill:#2ca02c;stroke:#000000;" x="156.038093" xlink:href="#m885e969dc8" y="158.456204"/>
     <use style="fill:#2ca02c;stroke:#000000;" x="157.045884" xlink:href="#m885e969dc8" y="158.634396"/>
     <use style="fill:#2ca02c;stroke:#000000;" x="157.78485" xlink:href="#m885e969dc8" y="158.730274"/>
     <use style="fill:#2ca02c;stroke:#000000;" x="158.327637" xlink:href="#m885e969dc8" y="158.782035"/>
     <use style="fill:#2ca02c;stroke:#000000;" x="158.726898" xlink:href="#m885e969dc8" y="158.810056"/>
     <use style="fill:#2ca02c;stroke:#000000;" x="159.020917" xlink:href="#m885e969dc8" y="158.825257"/>
     <use style="fill:#2ca02c;stroke:#000000;" x="159.237626" xlink:href="#m885e969dc8" y="158.833518"/>
     <use style="fill:#2ca02c;stroke:#000000;" x="159.397461" xlink:href="#m885e969dc8" y="158.838012"/>
     <use style="fill:#2ca02c;stroke:#000000;" x="159.515408" xlink:href="#m885e969dc8" y="158.84046"/>
     <use style="fill:#2ca02c;stroke:#000000;" x="159.602478" xlink:href="#m885e969dc8" y="158.841795"/>
     <use style="fill:#2ca02c;stroke:#000000;" x="159.666772" xlink:href="#m885e969dc8" y="158.842522"/>
     <use style="fill:#2ca02c;stroke:#000000;" x="159.714259" xlink:href="#m885e969dc8" y="158.842919"/>
     <use style="fill:#2ca02c;stroke:#000000;" x="159.749338" xlink:href="#m885e969dc8" y="158.843136"/>
     <use style="fill:#2ca02c;stroke:#000000;" x="159.775254" xlink:href="#m885e969dc8" y="158.843254"/>
     <use style="fill:#2ca02c;stroke:#000000;" x="159.794401" xlink:href="#m885e969dc8" y="158.843318"/>
     <use style="fill:#2ca02c;stroke:#000000;" x="159.80855" xlink:href="#m885e969dc8" y="158.843354"/>
     <use style="fill:#2ca02c;stroke:#000000;" x="159.819004" xlink:href="#m885e969dc8" y="158.843373"/>
     <use style="fill:#2ca02c;stroke:#000000;" x="159.82673" xlink:href="#m885e969dc8" y="158.843383"/>
     <use style="fill:#2ca02c;stroke:#000000;" x="159.832439" xlink:href="#m885e969dc8" y="158.843389"/>
     <use style="fill:#2ca02c;stroke:#000000;" x="159.836658" xlink:href="#m885e969dc8" y="158.843392"/>
     <use style="fill:#2ca02c;stroke:#000000;" x="159.839776" xlink:href="#m885e969dc8" y="158.843394"/>
     <use style="fill:#2ca02c;stroke:#000000;" x="159.84208" xlink:href="#m885e969dc8" y="158.843395"/>
     <use style="fill:#2ca02c;stroke:#000000;" x="159.843783" xlink:href="#m885e969dc8" y="158.843395"/>
     <use style="fill:#2ca02c;stroke:#000000;" x="159.845041" xlink:href="#m885e969dc8" y="158.843396"/>
     <use style="fill:#2ca02c;stroke:#000000;" x="159.845971" xlink:href="#m885e969dc8" y="158.843396"/>
     <use style="fill:#2ca02c;stroke:#000000;" x="159.846659" xlink:href="#m885e969dc8" y="158.843396"/>
     <use style="fill:#2ca02c;stroke:#000000;" x="159.847167" xlink:href="#m885e969dc8" y="158.843396"/>
     <use style="fill:#2ca02c;stroke:#000000;" x="159.847542" xlink:href="#m885e969dc8" y="158.843396"/>
     <use style="fill:#2ca02c;stroke:#000000;" x="159.847819" xlink:href="#m885e969dc8" y="158.843396"/>
    </g>
   </g>
   <g id="patch_3">
    <path d="M 58.16 207.88 
L 58.16 28.68 
" style="fill:none;stroke:#000000;stroke-linecap:square;stroke-linejoin:miter;stroke-width:0.8;"/>
   </g>
   <g id="patch_4">
    <path d="M 637.2 207.88 
L 637.2 28.68 
" style="fill:none;stroke:#000000;stroke-linecap:square;stroke-linejoin:miter;stroke-width:0.8;"/>
   </g>
   <g id="patch_5">
    <path d="M 58.16 207.88 
L 637.2 207.88 
" style="fill:none;stroke:#000000;stroke-linecap:square;stroke-linejoin:miter;stroke-width:0.8;"/>
   </g>
   <g id="patch_6">
    <path d="M 58.16 28.68 
L 637.2 28.68 
" style="fill:none;stroke:#000000;stroke-linecap:square;stroke-linejoin:miter;stroke-width:0.8;"/>
   </g>
   <g id="text_15">
    <!-- Minimisation de $f(x)=sin(x) + sin(10/3x)$ -->
    <g transform="translate(203.76 22.68)scale(0.14 -0.14)">
     <defs>
      <path d="M 5.515625 0 
L 5.515625 5.171875 
L 14.796875 5.171875 
L 14.796875 67.671875 
L 4.984375 67.671875 
L 4.984375 72.90625 
L 26.21875 72.90625 
L 51.8125 21 
L 77.390625 72.90625 
L 97.3125 72.90625 
L 97.3125 67.671875 
L 87.59375 67.671875 
L 87.59375 5.171875 
L 96.921875 5.171875 
L 96.921875 0 
L 68.40625 0 
L 68.40625 5.171875 
L 77.6875 5.171875 
L 77.6875 61.53125 
L 52.6875 10.6875 
L 45.796875 10.6875 
L 20.796875 61.53125 
L 20.796875 5.171875 
L 30.078125 5.171875 
L 30.078125 0 
z
" id="DejaVuSerif-77"/>
      <path d="M 9.71875 68.015625 
Q 9.71875 70.265625 11.34375 71.921875 
Q 12.984375 73.578125 15.28125 73.578125 
Q 17.53125 73.578125 19.15625 71.921875 
Q 20.796875 70.265625 20.796875 68.015625 
Q 20.796875 65.71875 19.1875 64.109375 
Q 17.578125 62.5 15.28125 62.5 
Q 12.984375 62.5 11.34375 64.109375 
Q 9.71875 65.71875 9.71875 68.015625 
z
M 21.1875 5.171875 
L 29.6875 5.171875 
L 29.6875 0 
L 3.609375 0 
L 3.609375 5.171875 
L 12.203125 5.171875 
L 12.203125 46.6875 
L 3.609375 46.6875 
L 3.609375 51.90625 
L 21.1875 51.90625 
z
" id="DejaVuSerif-105"/>
      <path d="M 4.109375 0 
L 4.109375 5.171875 
L 12.203125 5.171875 
L 12.203125 46.6875 
L 3.609375 46.6875 
L 3.609375 51.90625 
L 21.1875 51.90625 
L 21.1875 42.671875 
Q 23.6875 47.953125 27.65625 50.640625 
Q 31.640625 53.328125 36.921875 53.328125 
Q 45.515625 53.328125 49.5625 48.390625 
Q 53.609375 43.453125 53.609375 33.015625 
L 53.609375 5.171875 
L 61.625 5.171875 
L 61.625 0 
L 36.8125 0 
L 36.8125 5.171875 
L 44.578125 5.171875 
L 44.578125 30.171875 
Q 44.578125 39.703125 42.234375 43.234375 
Q 39.890625 46.78125 33.984375 46.78125 
Q 27.734375 46.78125 24.453125 42.203125 
Q 21.1875 37.640625 21.1875 28.90625 
L 21.1875 5.171875 
L 29 5.171875 
L 29 0 
z
" id="DejaVuSerif-110"/>
      <path d="M 51.8125 41.796875 
Q 54.390625 47.515625 58.421875 50.421875 
Q 62.453125 53.328125 67.828125 53.328125 
Q 75.984375 53.328125 79.984375 48.265625 
Q 83.984375 43.21875 83.984375 33.015625 
L 83.984375 5.171875 
L 92.09375 5.171875 
L 92.09375 0 
L 67.1875 0 
L 67.1875 5.171875 
L 75 5.171875 
L 75 31.984375 
Q 75 39.9375 72.65625 43.3125 
Q 70.3125 46.6875 64.890625 46.6875 
Q 58.890625 46.6875 55.734375 42.140625 
Q 52.59375 37.59375 52.59375 28.90625 
L 52.59375 5.171875 
L 60.40625 5.171875 
L 60.40625 0 
L 35.796875 0 
L 35.796875 5.171875 
L 43.609375 5.171875 
L 43.609375 32.328125 
Q 43.609375 40.09375 41.265625 43.390625 
Q 38.921875 46.6875 33.5 46.6875 
Q 27.484375 46.6875 24.328125 42.140625 
Q 21.1875 37.59375 21.1875 28.90625 
L 21.1875 5.171875 
L 29 5.171875 
L 29 0 
L 4.109375 0 
L 4.109375 5.171875 
L 12.203125 5.171875 
L 12.203125 46.78125 
L 3.609375 46.78125 
L 3.609375 51.90625 
L 21.1875 51.90625 
L 21.1875 42.671875 
Q 23.6875 47.859375 27.53125 50.59375 
Q 31.390625 53.328125 36.28125 53.328125 
Q 42.328125 53.328125 46.375 50.3125 
Q 50.4375 47.3125 51.8125 41.796875 
z
" id="DejaVuSerif-109"/>
      <path d="M 5.609375 2.875 
L 5.609375 14.984375 
L 10.796875 14.984375 
Q 10.984375 9.1875 14.421875 6.296875 
Q 17.875 3.421875 24.609375 3.421875 
Q 30.671875 3.421875 33.84375 5.6875 
Q 37.015625 7.953125 37.015625 12.3125 
Q 37.015625 15.71875 34.6875 17.8125 
Q 32.375 19.921875 24.90625 22.3125 
L 18.40625 24.515625 
Q 11.71875 26.65625 8.71875 29.875 
Q 5.71875 33.109375 5.71875 38.09375 
Q 5.71875 45.21875 10.9375 49.265625 
Q 16.15625 53.328125 25.390625 53.328125 
Q 29.5 53.328125 34.03125 52.25 
Q 38.578125 51.171875 43.40625 49.125 
L 43.40625 37.796875 
L 38.234375 37.796875 
Q 38.03125 42.828125 34.703125 45.65625 
Q 31.390625 48.484375 25.6875 48.484375 
Q 20.015625 48.484375 17.109375 46.484375 
Q 14.203125 44.484375 14.203125 40.484375 
Q 14.203125 37.203125 16.40625 35.21875 
Q 18.609375 33.25 25.203125 31.203125 
L 32.328125 29 
Q 39.703125 26.703125 42.9375 23.265625 
Q 46.1875 19.828125 46.1875 14.40625 
Q 46.1875 7.03125 40.546875 2.796875 
Q 34.90625 -1.421875 25 -1.421875 
Q 19.96875 -1.421875 15.1875 -0.34375 
Q 10.40625 0.734375 5.609375 2.875 
z
" id="DejaVuSerif-115"/>
      <path d="M 39.796875 16.3125 
L 39.796875 27.296875 
L 28.21875 27.296875 
Q 21.53125 27.296875 18.25 24.40625 
Q 14.984375 21.53125 14.984375 15.578125 
Q 14.984375 10.15625 18.296875 6.984375 
Q 21.625 3.8125 27.296875 3.8125 
Q 32.90625 3.8125 36.34375 7.28125 
Q 39.796875 10.75 39.796875 16.3125 
z
M 48.78125 32.421875 
L 48.78125 5.171875 
L 56.78125 5.171875 
L 56.78125 0 
L 39.796875 0 
L 39.796875 5.609375 
Q 36.8125 2 32.90625 0.28125 
Q 29 -1.421875 23.78125 -1.421875 
Q 15.140625 -1.421875 10.0625 3.171875 
Q 4.984375 7.765625 4.984375 15.578125 
Q 4.984375 23.640625 10.796875 28.078125 
Q 16.609375 32.515625 27.203125 32.515625 
L 39.796875 32.515625 
L 39.796875 36.078125 
Q 39.796875 42 36.203125 45.234375 
Q 32.625 48.484375 26.125 48.484375 
Q 20.75 48.484375 17.578125 46.046875 
Q 14.40625 43.609375 13.625 38.8125 
L 8.984375 38.8125 
L 8.984375 49.3125 
Q 13.671875 51.3125 18.09375 52.3125 
Q 22.515625 53.328125 26.703125 53.328125 
Q 37.5 53.328125 43.140625 47.96875 
Q 48.78125 42.625 48.78125 32.421875 
z
" id="DejaVuSerif-97"/>
      <path d="M 10.796875 46.6875 
L 2.875 46.6875 
L 2.875 51.90625 
L 10.796875 51.90625 
L 10.796875 68.015625 
L 19.828125 68.015625 
L 19.828125 51.90625 
L 36.71875 51.90625 
L 36.71875 46.6875 
L 19.828125 46.6875 
L 19.828125 13.71875 
Q 19.828125 7.125 21.09375 5.265625 
Q 22.359375 3.421875 25.78125 3.421875 
Q 29.296875 3.421875 30.90625 5.484375 
Q 32.515625 7.5625 32.625 12.203125 
L 39.40625 12.203125 
Q 39.015625 5.125 35.546875 1.84375 
Q 32.078125 -1.421875 25 -1.421875 
Q 17.234375 -1.421875 14.015625 2.015625 
Q 10.796875 5.46875 10.796875 13.71875 
z
" id="DejaVuSerif-116"/>
      <path d="M 30.078125 3.421875 
Q 37.3125 3.421875 40.984375 9.125 
Q 44.671875 14.84375 44.671875 25.984375 
Q 44.671875 37.109375 40.984375 42.796875 
Q 37.3125 48.484375 30.078125 48.484375 
Q 22.859375 48.484375 19.171875 42.796875 
Q 15.484375 37.109375 15.484375 25.984375 
Q 15.484375 14.84375 19.1875 9.125 
Q 22.90625 3.421875 30.078125 3.421875 
z
M 30.078125 -1.421875 
Q 18.75 -1.421875 11.859375 6.078125 
Q 4.984375 13.578125 4.984375 25.984375 
Q 4.984375 38.375 11.84375 45.84375 
Q 18.703125 53.328125 30.078125 53.328125 
Q 41.453125 53.328125 48.3125 45.84375 
Q 55.171875 38.375 55.171875 25.984375 
Q 55.171875 13.578125 48.3125 6.078125 
Q 41.453125 -1.421875 30.078125 -1.421875 
z
" id="DejaVuSerif-111"/>
      <path id="DejaVuSerif-32"/>
      <path d="M 52.484375 5.171875 
L 61.078125 5.171875 
L 61.078125 0 
L 43.5 0 
L 43.5 8.109375 
Q 40.875 3.21875 36.796875 0.890625 
Q 32.71875 -1.421875 26.703125 -1.421875 
Q 17.140625 -1.421875 11.0625 6.171875 
Q 4.984375 13.765625 4.984375 25.984375 
Q 4.984375 38.1875 11.03125 45.75 
Q 17.09375 53.328125 26.703125 53.328125 
Q 32.71875 53.328125 36.796875 51 
Q 40.875 48.6875 43.5 43.796875 
L 43.5 70.796875 
L 35.015625 70.796875 
L 35.015625 75.984375 
L 52.484375 75.984375 
z
M 43.5 23.390625 
L 43.5 28.515625 
Q 43.5 37.84375 39.90625 42.765625 
Q 36.328125 47.703125 29.5 47.703125 
Q 22.5625 47.703125 19.015625 42.234375 
Q 15.484375 36.765625 15.484375 25.984375 
Q 15.484375 15.234375 19.015625 9.71875 
Q 22.5625 4.203125 29.5 4.203125 
Q 36.328125 4.203125 39.90625 9.109375 
Q 43.5 14.015625 43.5 23.390625 
z
" id="DejaVuSerif-100"/>
      <path d="M 54.203125 25 
L 15.484375 25 
L 15.484375 24.609375 
Q 15.484375 14.109375 19.4375 8.765625 
Q 23.390625 3.421875 31.109375 3.421875 
Q 37.015625 3.421875 40.796875 6.515625 
Q 44.578125 9.625 46.09375 15.71875 
L 53.328125 15.71875 
Q 51.171875 7.171875 45.375 2.875 
Q 39.59375 -1.421875 30.171875 -1.421875 
Q 18.796875 -1.421875 11.890625 6.078125 
Q 4.984375 13.578125 4.984375 25.984375 
Q 4.984375 38.28125 11.765625 45.796875 
Q 18.5625 53.328125 29.59375 53.328125 
Q 41.359375 53.328125 47.65625 46.0625 
Q 53.953125 38.8125 54.203125 25 
z
M 43.609375 30.171875 
Q 43.3125 39.265625 39.765625 43.875 
Q 36.234375 48.484375 29.59375 48.484375 
Q 23.390625 48.484375 19.828125 43.84375 
Q 16.265625 39.203125 15.484375 30.171875 
z
" id="DejaVuSerif-101"/>
      <path d="M 47.796875 75.984375 
L 46.390625 68.5 
L 37.796875 68.5 
Q 32.90625 68.5 30.6875 66.578125 
Q 28.46875 64.65625 27.390625 59.515625 
L 26.421875 54.6875 
L 41.21875 54.6875 
L 39.890625 47.703125 
L 25.09375 47.703125 
L 15.828125 0 
L 6.78125 0 
L 16.109375 47.703125 
L 7.515625 47.703125 
L 8.796875 54.6875 
L 17.390625 54.6875 
L 18.109375 58.5 
Q 19.96875 68.171875 24.625 72.078125 
Q 29.296875 75.984375 39.3125 75.984375 
z
" id="DejaVuSans-Oblique-102"/>
      <path d="M 31 75.875 
Q 24.46875 64.65625 21.28125 53.65625 
Q 18.109375 42.671875 18.109375 31.390625 
Q 18.109375 20.125 21.3125 9.0625 
Q 24.515625 -2 31 -13.1875 
L 23.1875 -13.1875 
Q 15.875 -1.703125 12.234375 9.375 
Q 8.59375 20.453125 8.59375 31.390625 
Q 8.59375 42.28125 12.203125 53.3125 
Q 15.828125 64.359375 23.1875 75.875 
z
" id="DejaVuSans-40"/>
      <path d="M 60.015625 54.6875 
L 34.90625 27.875 
L 50.296875 0 
L 39.984375 0 
L 28.421875 21.6875 
L 8.296875 0 
L -2.59375 0 
L 24.3125 28.8125 
L 10.015625 54.6875 
L 20.3125 54.6875 
L 30.8125 34.90625 
L 49.125 54.6875 
z
" id="DejaVuSans-Oblique-120"/>
      <path d="M 8.015625 75.875 
L 15.828125 75.875 
Q 23.140625 64.359375 26.78125 53.3125 
Q 30.421875 42.28125 30.421875 31.390625 
Q 30.421875 20.453125 26.78125 9.375 
Q 23.140625 -1.703125 15.828125 -13.1875 
L 8.015625 -13.1875 
Q 14.5 -2 17.703125 9.0625 
Q 20.90625 20.125 20.90625 31.390625 
Q 20.90625 42.671875 17.703125 53.65625 
Q 14.5 64.65625 8.015625 75.875 
z
" id="DejaVuSans-41"/>
      <path d="M 10.59375 45.40625 
L 73.1875 45.40625 
L 73.1875 37.203125 
L 10.59375 37.203125 
z
M 10.59375 25.484375 
L 73.1875 25.484375 
L 73.1875 17.1875 
L 10.59375 17.1875 
z
" id="DejaVuSans-61"/>
      <path d="M 50 53.078125 
L 48.296875 44.578125 
Q 44.734375 46.53125 40.765625 47.5 
Q 36.8125 48.484375 32.625 48.484375 
Q 25.53125 48.484375 21.453125 46.0625 
Q 17.390625 43.65625 17.390625 39.5 
Q 17.390625 34.671875 26.859375 32.078125 
Q 27.59375 31.890625 27.9375 31.78125 
L 30.8125 30.90625 
Q 39.796875 28.421875 42.796875 25.6875 
Q 45.796875 22.953125 45.796875 18.21875 
Q 45.796875 9.515625 38.890625 4.046875 
Q 31.984375 -1.421875 20.796875 -1.421875 
Q 16.453125 -1.421875 11.671875 -0.578125 
Q 6.890625 0.25 1.125 2 
L 2.875 11.28125 
Q 7.8125 8.734375 12.59375 7.421875 
Q 17.390625 6.109375 21.78125 6.109375 
Q 28.375 6.109375 32.5 8.9375 
Q 36.625 11.765625 36.625 16.109375 
Q 36.625 20.796875 25.78125 23.6875 
L 24.859375 23.921875 
L 21.78125 24.703125 
Q 14.9375 26.515625 11.765625 29.46875 
Q 8.59375 32.421875 8.59375 37.015625 
Q 8.59375 45.75 15.15625 50.875 
Q 21.734375 56 33.015625 56 
Q 37.453125 56 41.671875 55.265625 
Q 45.90625 54.546875 50 53.078125 
z
" id="DejaVuSans-Oblique-115"/>
      <path d="M 18.3125 75.984375 
L 27.296875 75.984375 
L 25.09375 64.59375 
L 16.109375 64.59375 
z
M 14.203125 54.6875 
L 23.1875 54.6875 
L 12.5 0 
L 3.515625 0 
z
" id="DejaVuSans-Oblique-105"/>
      <path d="M 55.71875 33.015625 
L 49.3125 0 
L 40.28125 0 
L 46.6875 32.671875 
Q 47.125 34.96875 47.359375 36.71875 
Q 47.609375 38.484375 47.609375 39.5 
Q 47.609375 43.609375 45.015625 45.890625 
Q 42.4375 48.1875 37.796875 48.1875 
Q 30.5625 48.1875 25.34375 43.375 
Q 20.125 38.578125 18.5 30.328125 
L 12.5 0 
L 3.515625 0 
L 14.109375 54.6875 
L 23.09375 54.6875 
L 21.296875 46.09375 
Q 25.046875 50.828125 30.3125 53.40625 
Q 35.59375 56 41.40625 56 
Q 48.640625 56 52.609375 52.09375 
Q 56.59375 48.1875 56.59375 41.109375 
Q 56.59375 39.359375 56.375 37.359375 
Q 56.15625 35.359375 55.71875 33.015625 
z
" id="DejaVuSans-Oblique-110"/>
      <path d="M 46 62.703125 
L 46 35.5 
L 73.1875 35.5 
L 73.1875 27.203125 
L 46 27.203125 
L 46 0 
L 37.796875 0 
L 37.796875 27.203125 
L 10.59375 27.203125 
L 10.59375 35.5 
L 37.796875 35.5 
L 37.796875 62.703125 
z
" id="DejaVuSans-43"/>
      <path d="M 12.40625 8.296875 
L 28.515625 8.296875 
L 28.515625 63.921875 
L 10.984375 60.40625 
L 10.984375 69.390625 
L 28.421875 72.90625 
L 38.28125 72.90625 
L 38.28125 8.296875 
L 54.390625 8.296875 
L 54.390625 0 
L 12.40625 0 
z
" id="DejaVuSans-49"/>
      <path d="M 31.78125 66.40625 
Q 24.171875 66.40625 20.328125 58.90625 
Q 16.5 51.421875 16.5 36.375 
Q 16.5 21.390625 20.328125 13.890625 
Q 24.171875 6.390625 31.78125 6.390625 
Q 39.453125 6.390625 43.28125 13.890625 
Q 47.125 21.390625 47.125 36.375 
Q 47.125 51.421875 43.28125 58.90625 
Q 39.453125 66.40625 31.78125 66.40625 
z
M 31.78125 74.21875 
Q 44.046875 74.21875 50.515625 64.515625 
Q 56.984375 54.828125 56.984375 36.375 
Q 56.984375 17.96875 50.515625 8.265625 
Q 44.046875 -1.421875 31.78125 -1.421875 
Q 19.53125 -1.421875 13.0625 8.265625 
Q 6.59375 17.96875 6.59375 36.375 
Q 6.59375 54.828125 13.0625 64.515625 
Q 19.53125 74.21875 31.78125 74.21875 
z
" id="DejaVuSans-48"/>
      <path d="M 25.390625 72.90625 
L 33.6875 72.90625 
L 8.296875 -9.28125 
L 0 -9.28125 
z
" id="DejaVuSans-47"/>
      <path d="M 40.578125 39.3125 
Q 47.65625 37.796875 51.625 33 
Q 55.609375 28.21875 55.609375 21.1875 
Q 55.609375 10.40625 48.1875 4.484375 
Q 40.765625 -1.421875 27.09375 -1.421875 
Q 22.515625 -1.421875 17.65625 -0.515625 
Q 12.796875 0.390625 7.625 2.203125 
L 7.625 11.71875 
Q 11.71875 9.328125 16.59375 8.109375 
Q 21.484375 6.890625 26.8125 6.890625 
Q 36.078125 6.890625 40.9375 10.546875 
Q 45.796875 14.203125 45.796875 21.1875 
Q 45.796875 27.640625 41.28125 31.265625 
Q 36.765625 34.90625 28.71875 34.90625 
L 20.21875 34.90625 
L 20.21875 43.015625 
L 29.109375 43.015625 
Q 36.375 43.015625 40.234375 45.921875 
Q 44.09375 48.828125 44.09375 54.296875 
Q 44.09375 59.90625 40.109375 62.90625 
Q 36.140625 65.921875 28.71875 65.921875 
Q 24.65625 65.921875 20.015625 65.03125 
Q 15.375 64.15625 9.8125 62.3125 
L 9.8125 71.09375 
Q 15.4375 72.65625 20.34375 73.4375 
Q 25.25 74.21875 29.59375 74.21875 
Q 40.828125 74.21875 47.359375 69.109375 
Q 53.90625 64.015625 53.90625 55.328125 
Q 53.90625 49.265625 50.4375 45.09375 
Q 46.96875 40.921875 40.578125 39.3125 
z
" id="DejaVuSans-51"/>
     </defs>
     <use transform="translate(0 0.015625)" xlink:href="#DejaVuSerif-77"/>
     <use transform="translate(102.392578 0.015625)" xlink:href="#DejaVuSerif-105"/>
     <use transform="translate(134.375 0.015625)" xlink:href="#DejaVuSerif-110"/>
     <use transform="translate(198.779297 0.015625)" xlink:href="#DejaVuSerif-105"/>
     <use transform="translate(230.761719 0.015625)" xlink:href="#DejaVuSerif-109"/>
     <use transform="translate(325.585938 0.015625)" xlink:href="#DejaVuSerif-105"/>
     <use transform="translate(357.568359 0.015625)" xlink:href="#DejaVuSerif-115"/>
     <use transform="translate(408.886719 0.015625)" xlink:href="#DejaVuSerif-97"/>
     <use transform="translate(468.505859 0.015625)" xlink:href="#DejaVuSerif-116"/>
     <use transform="translate(508.691406 0.015625)" xlink:href="#DejaVuSerif-105"/>
     <use transform="translate(540.673828 0.015625)" xlink:href="#DejaVuSerif-111"/>
     <use transform="translate(600.878906 0.015625)" xlink:href="#DejaVuSerif-110"/>
     <use transform="translate(665.283203 0.015625)" xlink:href="#DejaVuSerif-32"/>
     <use transform="translate(697.070312 0.015625)" xlink:href="#DejaVuSerif-100"/>
     <use transform="translate(761.083984 0.015625)" xlink:href="#DejaVuSerif-101"/>
     <use transform="translate(820.263672 0.015625)" xlink:href="#DejaVuSerif-32"/>
     <use transform="translate(852.050781 0.015625)" xlink:href="#DejaVuSans-Oblique-102"/>
     <use transform="translate(887.255859 0.015625)" xlink:href="#DejaVuSans-40"/>
     <use transform="translate(926.269531 0.015625)" xlink:href="#DejaVuSans-Oblique-120"/>
     <use transform="translate(985.449219 0.015625)" xlink:href="#DejaVuSans-41"/>
     <use transform="translate(1043.945312 0.015625)" xlink:href="#DejaVuSans-61"/>
     <use transform="translate(1147.216797 0.015625)" xlink:href="#DejaVuSans-Oblique-115"/>
     <use transform="translate(1199.316406 0.015625)" xlink:href="#DejaVuSans-Oblique-105"/>
     <use transform="translate(1227.099609 0.015625)" xlink:href="#DejaVuSans-Oblique-110"/>
     <use transform="translate(1290.478516 0.015625)" xlink:href="#DejaVuSans-40"/>
     <use transform="translate(1329.492188 0.015625)" xlink:href="#DejaVuSans-Oblique-120"/>
     <use transform="translate(1388.671875 0.015625)" xlink:href="#DejaVuSans-41"/>
     <use transform="translate(1447.167969 0.015625)" xlink:href="#DejaVuSans-43"/>
     <use transform="translate(1550.439453 0.015625)" xlink:href="#DejaVuSans-Oblique-115"/>
     <use transform="translate(1602.539062 0.015625)" xlink:href="#DejaVuSans-Oblique-105"/>
     <use transform="translate(1630.322266 0.015625)" xlink:href="#DejaVuSans-Oblique-110"/>
     <use transform="translate(1693.701172 0.015625)" xlink:href="#DejaVuSans-40"/>
     <use transform="translate(1732.714844 0.015625)" xlink:href="#DejaVuSans-49"/>
     <use transform="translate(1796.337891 0.015625)" xlink:href="#DejaVuSans-48"/>
     <use transform="translate(1859.960938 0.015625)" xlink:href="#DejaVuSans-47"/>
     <use transform="translate(1893.652344 0.015625)" xlink:href="#DejaVuSans-51"/>
     <use transform="translate(1957.275391 0.015625)" xlink:href="#DejaVuSans-Oblique-120"/>
     <use transform="translate(2016.455078 0.015625)" xlink:href="#DejaVuSans-41"/>
    </g>
   </g>
   <g id="legend_1">
    <g id="patch_7">
     <path d="M 492.129375 201.88 
L 628.8 201.88 
Q 631.2 201.88 631.2 199.48 
L 631.2 147.668125 
Q 631.2 145.268125 628.8 145.268125 
L 492.129375 145.268125 
Q 489.729375 145.268125 489.729375 147.668125 
L 489.729375 199.48 
Q 489.729375 201.88 492.129375 201.88 
z
" style="fill:#ffffff;opacity:0.8;stroke:#cccccc;stroke-linejoin:miter;"/>
    </g>
    <g id="line2d_29"/>
    <g id="line2d_30">
     <g>
      <use style="fill:#1f77b4;stroke:#000000;stroke-linejoin:miter;" x="506.529375" xlink:href="#m2da2aee7df" y="154.98625"/>
     </g>
    </g>
    <g id="text_16">
     <!-- Golden-Search -->
     <g transform="translate(528.129375 159.18625)scale(0.12 -0.12)">
      <defs>
       <path d="M 64.015625 51.125 
Q 62.3125 60.25 56.890625 64.625 
Q 51.46875 69 41.796875 69 
Q 29.203125 69 23 60.890625 
Q 16.796875 52.78125 16.796875 36.375 
Q 16.796875 20.3125 23.1875 12.0625 
Q 29.59375 3.8125 42 3.8125 
Q 47.515625 3.8125 52.53125 5.171875 
Q 57.5625 6.546875 62.109375 9.28125 
L 62.109375 28.078125 
L 48.390625 28.078125 
L 48.390625 33.296875 
L 72.015625 33.296875 
L 72.015625 6.109375 
Q 65.53125 2.34375 58.03125 0.453125 
Q 50.53125 -1.421875 42 -1.421875 
Q 25.484375 -1.421875 15.546875 8.90625 
Q 5.609375 19.234375 5.609375 36.375 
Q 5.609375 53.65625 15.5625 63.9375 
Q 25.53125 74.21875 42.390625 74.21875 
Q 48.640625 74.21875 55.296875 72.78125 
Q 61.96875 71.34375 69.484375 68.40625 
L 69.484375 51.125 
z
" id="DejaVuSerif-71"/>
       <path d="M 20.515625 5.171875 
L 29 5.171875 
L 29 0 
L 2.875 0 
L 2.875 5.171875 
L 11.53125 5.171875 
L 11.53125 70.796875 
L 2.875 70.796875 
L 2.875 75.984375 
L 20.515625 75.984375 
z
" id="DejaVuSerif-108"/>
       <path d="M 4.390625 30.609375 
L 29.390625 30.609375 
L 29.390625 23 
L 4.390625 23 
z
" id="DejaVuSerif-45"/>
       <path d="M 9.28125 3.515625 
L 9.28125 20.125 
L 14.890625 20.0625 
Q 15.140625 11.765625 19.703125 7.78125 
Q 24.265625 3.8125 33.59375 3.8125 
Q 42.28125 3.8125 46.84375 7.25 
Q 51.421875 10.6875 51.421875 17.28125 
Q 51.421875 22.5625 48.65625 25.390625 
Q 45.90625 28.21875 37.015625 30.90625 
L 27.390625 33.796875 
Q 16.9375 36.96875 12.671875 41.703125 
Q 8.40625 46.4375 8.40625 54.6875 
Q 8.40625 63.96875 14.984375 69.09375 
Q 21.578125 74.21875 33.5 74.21875 
Q 38.578125 74.21875 44.625 73.109375 
Q 50.6875 72.015625 57.515625 69.921875 
L 57.515625 54.390625 
L 52 54.390625 
Q 51.171875 62.109375 46.84375 65.546875 
Q 42.53125 69 33.6875 69 
Q 25.984375 69 21.953125 65.84375 
Q 17.921875 62.703125 17.921875 56.6875 
Q 17.921875 51.46875 20.9375 48.484375 
Q 23.96875 45.515625 33.796875 42.578125 
L 42.828125 39.890625 
Q 52.734375 36.921875 56.953125 32.296875 
Q 61.1875 27.6875 61.1875 19.921875 
Q 61.1875 9.328125 54.390625 3.953125 
Q 47.609375 -1.421875 34.1875 -1.421875 
Q 28.171875 -1.421875 21.9375 -0.1875 
Q 15.71875 1.03125 9.28125 3.515625 
z
" id="DejaVuSerif-83"/>
       <path d="M 47.796875 52 
L 47.796875 39.015625 
L 42.625 39.015625 
Q 42.390625 42.875 40.484375 44.78125 
Q 38.578125 46.6875 34.90625 46.6875 
Q 28.265625 46.6875 24.71875 42.09375 
Q 21.1875 37.5 21.1875 28.90625 
L 21.1875 5.171875 
L 31.59375 5.171875 
L 31.59375 0 
L 4.109375 0 
L 4.109375 5.171875 
L 12.203125 5.171875 
L 12.203125 46.78125 
L 3.609375 46.78125 
L 3.609375 51.90625 
L 21.1875 51.90625 
L 21.1875 42.671875 
Q 23.828125 48.09375 27.96875 50.703125 
Q 32.125 53.328125 38.09375 53.328125 
Q 40.28125 53.328125 42.703125 52.984375 
Q 45.125 52.640625 47.796875 52 
z
" id="DejaVuSerif-114"/>
       <path d="M 51.421875 15.578125 
Q 49.515625 7.28125 44.09375 2.921875 
Q 38.671875 -1.421875 30.078125 -1.421875 
Q 18.75 -1.421875 11.859375 6.078125 
Q 4.984375 13.578125 4.984375 25.984375 
Q 4.984375 38.421875 11.859375 45.875 
Q 18.75 53.328125 30.078125 53.328125 
Q 35.015625 53.328125 39.890625 52.171875 
Q 44.78125 51.03125 49.703125 48.6875 
L 49.703125 35.40625 
L 44.484375 35.40625 
Q 43.453125 42.234375 40.015625 45.359375 
Q 36.578125 48.484375 30.171875 48.484375 
Q 22.90625 48.484375 19.1875 42.84375 
Q 15.484375 37.203125 15.484375 25.984375 
Q 15.484375 14.75 19.171875 9.078125 
Q 22.859375 3.421875 30.171875 3.421875 
Q 35.984375 3.421875 39.453125 6.4375 
Q 42.921875 9.46875 44.1875 15.578125 
z
" id="DejaVuSerif-99"/>
       <path d="M 4.109375 0 
L 4.109375 5.171875 
L 12.203125 5.171875 
L 12.203125 70.796875 
L 3.609375 70.796875 
L 3.609375 75.984375 
L 21.1875 75.984375 
L 21.1875 42.671875 
Q 23.6875 47.953125 27.65625 50.640625 
Q 31.640625 53.328125 36.921875 53.328125 
Q 45.515625 53.328125 49.5625 48.390625 
Q 53.609375 43.453125 53.609375 33.015625 
L 53.609375 5.171875 
L 61.625 5.171875 
L 61.625 0 
L 36.8125 0 
L 36.8125 5.171875 
L 44.578125 5.171875 
L 44.578125 30.171875 
Q 44.578125 39.703125 42.25 43.1875 
Q 39.9375 46.6875 33.984375 46.6875 
Q 27.734375 46.6875 24.453125 42.140625 
Q 21.1875 37.59375 21.1875 28.90625 
L 21.1875 5.171875 
L 29 5.171875 
L 29 0 
z
" id="DejaVuSerif-104"/>
      </defs>
      <use xlink:href="#DejaVuSerif-71"/>
      <use x="79.882812" xlink:href="#DejaVuSerif-111"/>
      <use x="140.087891" xlink:href="#DejaVuSerif-108"/>
      <use x="172.070312" xlink:href="#DejaVuSerif-100"/>
      <use x="236.083984" xlink:href="#DejaVuSerif-101"/>
      <use x="295.263672" xlink:href="#DejaVuSerif-110"/>
      <use x="359.667969" xlink:href="#DejaVuSerif-45"/>
      <use x="393.457031" xlink:href="#DejaVuSerif-83"/>
      <use x="461.962891" xlink:href="#DejaVuSerif-101"/>
      <use x="521.142578" xlink:href="#DejaVuSerif-97"/>
      <use x="580.761719" xlink:href="#DejaVuSerif-114"/>
      <use x="628.564453" xlink:href="#DejaVuSerif-99"/>
      <use x="684.570312" xlink:href="#DejaVuSerif-104"/>
     </g>
    </g>
    <g id="line2d_31"/>
    <g id="line2d_32">
     <g>
      <use style="fill:#ff7f0e;stroke:#000000;stroke-linejoin:miter;" x="506.529375" xlink:href="#m30930c2b32" y="172.6"/>
     </g>
    </g>
    <g id="text_17">
     <!-- Gradient-Armijo -->
     <g transform="translate(528.129375 176.8)scale(0.12 -0.12)">
      <defs>
       <path d="M 20.015625 26.421875 
L 46.78125 26.421875 
L 33.40625 61.078125 
z
M -0.59375 0 
L -0.59375 5.171875 
L 5.8125 5.171875 
L 31.78125 72.90625 
L 39.984375 72.90625 
L 66.015625 5.171875 
L 73.1875 5.171875 
L 73.1875 0 
L 46.6875 0 
L 46.6875 5.171875 
L 54.78125 5.171875 
L 48.6875 21.1875 
L 18.015625 21.1875 
L 11.921875 5.171875 
L 19.921875 5.171875 
L 19.921875 0 
z
" id="DejaVuSerif-65"/>
       <path d="M 10.015625 68.015625 
Q 10.015625 70.265625 11.640625 71.921875 
Q 13.28125 73.578125 15.578125 73.578125 
Q 17.828125 73.578125 19.453125 71.921875 
Q 21.09375 70.265625 21.09375 68.015625 
Q 21.09375 65.71875 19.5 64.109375 
Q 17.921875 62.5 15.578125 62.5 
Q 13.28125 62.5 11.640625 64.109375 
Q 10.015625 65.71875 10.015625 68.015625 
z
M 12.203125 46.6875 
L 3.71875 46.6875 
L 3.71875 51.90625 
L 21.1875 51.90625 
L 21.1875 -5.078125 
Q 21.1875 -13.09375 16.421875 -17.65625 
Q 11.671875 -22.21875 3.328125 -22.21875 
Q -0.203125 -22.21875 -3.390625 -21.40625 
Q -6.59375 -20.609375 -9.625 -19 
L -9.625 -8.296875 
L -4.984375 -8.296875 
Q -4.640625 -12.984375 -2.5625 -15.1875 
Q -0.484375 -17.390625 3.515625 -17.390625 
Q 7.953125 -17.390625 10.078125 -14.375 
Q 12.203125 -11.375 12.203125 -5.078125 
z
" id="DejaVuSerif-106"/>
      </defs>
      <use xlink:href="#DejaVuSerif-71"/>
      <use x="79.882812" xlink:href="#DejaVuSerif-114"/>
      <use x="127.685547" xlink:href="#DejaVuSerif-97"/>
      <use x="187.304688" xlink:href="#DejaVuSerif-100"/>
      <use x="251.318359" xlink:href="#DejaVuSerif-105"/>
      <use x="283.300781" xlink:href="#DejaVuSerif-101"/>
      <use x="342.480469" xlink:href="#DejaVuSerif-110"/>
      <use x="406.884766" xlink:href="#DejaVuSerif-116"/>
      <use x="447.070312" xlink:href="#DejaVuSerif-45"/>
      <use x="480.859375" xlink:href="#DejaVuSerif-65"/>
      <use x="553.076172" xlink:href="#DejaVuSerif-114"/>
      <use x="600.878906" xlink:href="#DejaVuSerif-109"/>
      <use x="695.703125" xlink:href="#DejaVuSerif-105"/>
      <use x="727.685547" xlink:href="#DejaVuSerif-106"/>
      <use x="758.691406" xlink:href="#DejaVuSerif-111"/>
     </g>
    </g>
    <g id="line2d_33"/>
    <g id="line2d_34">
     <g>
      <use style="fill:#2ca02c;stroke:#000000;" x="506.529375" xlink:href="#m885e969dc8" y="190.384375"/>
     </g>
    </g>
    <g id="text_18">
     <!-- Gradient -->
     <g transform="translate(528.129375 194.584375)scale(0.12 -0.12)">
      <use xlink:href="#DejaVuSerif-71"/>
      <use x="79.882812" xlink:href="#DejaVuSerif-114"/>
      <use x="127.685547" xlink:href="#DejaVuSerif-97"/>
      <use x="187.304688" xlink:href="#DejaVuSerif-100"/>
      <use x="251.318359" xlink:href="#DejaVuSerif-105"/>
      <use x="283.300781" xlink:href="#DejaVuSerif-101"/>
      <use x="342.480469" xlink:href="#DejaVuSerif-110"/>
      <use x="406.884766" xlink:href="#DejaVuSerif-116"/>
     </g>
    </g>
   </g>
  </g>
 </g>
 <defs>
  <clipPath id="p5489f9439e">
   <rect height="179.2" width="579.04" x="58.16" y="28.68"/>
  </clipPath>
 </defs>
</svg>
