<?xml version="1.0" encoding="utf-8" standalone="no"?>
<!DOCTYPE svg PUBLIC "-//W3C//DTD SVG 1.1//EN"
  "http://www.w3.org/Graphics/SVG/1.1/DTD/svg11.dtd">
<!-- Created with matplotlib (https://matplotlib.org/) -->
<svg height="288pt" version="1.1" viewBox="0 0 504 288" width="504pt" xmlns="http://www.w3.org/2000/svg" xmlns:xlink="http://www.w3.org/1999/xlink">
 <metadata>
  <rdf:RDF xmlns:cc="http://creativecommons.org/ns#" xmlns:dc="http://purl.org/dc/elements/1.1/" xmlns:rdf="http://www.w3.org/1999/02/22-rdf-syntax-ns#">
   <cc:Work>
    <dc:type rdf:resource="http://purl.org/dc/dcmitype/StillImage"/>
    <dc:date>2021-03-22T17:41:33.018967</dc:date>
    <dc:format>image/svg+xml</dc:format>
    <dc:creator>
     <cc:Agent>
      <dc:title>Matplotlib v3.3.2, https://matplotlib.org/</dc:title>
     </cc:Agent>
    </dc:creator>
   </cc:Work>
  </rdf:RDF>
 </metadata>
 <defs>
  <style type="text/css">*{stroke-linecap:butt;stroke-linejoin:round;}</style>
 </defs>
 <g id="figure_1">
  <g id="patch_1">
   <path d="M 0 288 
L 504 288 
L 504 0 
L 0 0 
z
" style="fill:#ffffff;"/>
  </g>
  <g id="axes_1">
   <g id="line2d_1">
    <defs>
     <path d="M 0 3 
C 0.795609 3 1.55874 2.683901 2.12132 2.12132 
C 2.683901 1.55874 3 0.795609 3 0 
C 3 -0.795609 2.683901 -1.55874 2.12132 -2.12132 
C 1.55874 -2.683901 0.795609 -3 0 -3 
C -0.795609 -3 -1.55874 -2.683901 -2.12132 -2.12132 
C -2.683901 -1.55874 -3 -0.795609 -3 0 
C -3 0.795609 -2.683901 1.55874 -2.12132 2.12132 
C -1.55874 2.683901 -0.795609 3 0 3 
z
" id="m7064fa931f" style="stroke:#000000;"/>
    </defs>
    <g clip-path="url(#p2b78366c2a)">
     <use style="fill-opacity:0;stroke:#000000;" x="452.69938" xlink:href="#m7064fa931f" y="265.237545"/>
    </g>
   </g>
   <g id="line2d_2">
    <g clip-path="url(#p2b78366c2a)">
     <use style="fill-opacity:0;stroke:#000000;" x="447.065713" xlink:href="#m7064fa931f" y="244.111294"/>
    </g>
   </g>
   <g id="line2d_3">
    <g clip-path="url(#p2b78366c2a)">
     <use style="fill-opacity:0;stroke:#000000;" x="438.615213" xlink:href="#m7064fa931f" y="246.928127"/>
    </g>
   </g>
   <g id="line2d_4">
    <g clip-path="url(#p2b78366c2a)">
     <use style="fill-opacity:0;stroke:#000000;" x="431.57313" xlink:href="#m7064fa931f" y="230.027127"/>
    </g>
   </g>
   <g id="line2d_5">
    <g clip-path="url(#p2b78366c2a)">
     <use style="fill-opacity:0;stroke:#000000;" x="368.194378" xlink:href="#m7064fa931f" y="268.054378"/>
    </g>
   </g>
   <g id="line2d_6">
    <g clip-path="url(#p2b78366c2a)">
     <use style="fill-opacity:0;stroke:#000000;" x="386.503795" xlink:href="#m7064fa931f" y="149.747375"/>
    </g>
   </g>
   <g id="line2d_7">
    <g clip-path="url(#p2b78366c2a)">
     <use style="fill-opacity:0;stroke:#000000;" x="323.125043" xlink:href="#m7064fa931f" y="222.985043"/>
    </g>
   </g>
   <g id="line2d_8">
    <g clip-path="url(#p2b78366c2a)">
     <use style="fill-opacity:0;stroke:#000000;" x="338.617627" xlink:href="#m7064fa931f" y="190.591459"/>
    </g>
   </g>
   <g id="line2d_9">
    <g clip-path="url(#p2b78366c2a)">
     <use style="fill-opacity:0;stroke:#000000;" x="311.85771" xlink:href="#m7064fa931f" y="206.084043"/>
    </g>
   </g>
   <g id="line2d_10">
    <g clip-path="url(#p2b78366c2a)">
     <use style="fill-opacity:0;stroke:#000000;" x="351.293378" xlink:href="#m7064fa931f" y="162.423125"/>
    </g>
   </g>
   <g id="line2d_11">
    <g clip-path="url(#p2b78366c2a)">
     <use style="fill-opacity:0;stroke:#000000;" x="354.110211" xlink:href="#m7064fa931f" y="151.155792"/>
    </g>
   </g>
   <g id="line2d_12">
    <g clip-path="url(#p2b78366c2a)">
     <use style="fill-opacity:0;stroke:#000000;" x="286.506209" xlink:href="#m7064fa931f" y="166.648375"/>
    </g>
   </g>
   <g id="line2d_13">
    <g clip-path="url(#p2b78366c2a)">
     <use style="fill-opacity:0;stroke:#000000;" x="278.759917" xlink:href="#m7064fa931f" y="139.888458"/>
    </g>
   </g>
   <g id="line2d_14">
    <g clip-path="url(#p2b78366c2a)">
     <use style="fill-opacity:0;stroke:#000000;" x="269.605209" xlink:href="#m7064fa931f" y="145.522125"/>
    </g>
   </g>
   <g id="line2d_15">
    <g clip-path="url(#p2b78366c2a)">
     <use style="fill-opacity:0;stroke:#000000;" x="272.422042" xlink:href="#m7064fa931f" y="128.621124"/>
    </g>
   </g>
   <g id="line2d_16">
    <g clip-path="url(#p2b78366c2a)">
     <use style="fill-opacity:0;stroke:#000000;" x="258.337875" xlink:href="#m7064fa931f" y="128.621124"/>
    </g>
   </g>
   <g id="line2d_17">
    <g clip-path="url(#p2b78366c2a)">
     <use style="fill-opacity:0;stroke:#000000;" x="248.478958" xlink:href="#m7064fa931f" y="138.480041"/>
    </g>
   </g>
   <g id="line2d_18">
    <g clip-path="url(#p2b78366c2a)">
     <use style="fill-opacity:0;stroke:#000000;" x="235.803208" xlink:href="#m7064fa931f" y="135.663208"/>
    </g>
   </g>
   <g id="line2d_19">
    <g clip-path="url(#p2b78366c2a)">
     <use style="fill-opacity:0;stroke:#000000;" x="240.028458" xlink:href="#m7064fa931f" y="121.579041"/>
    </g>
   </g>
   <g id="line2d_20">
    <g clip-path="url(#p2b78366c2a)">
     <use style="fill-opacity:0;stroke:#000000;" x="234.394791" xlink:href="#m7064fa931f" y="125.804291"/>
    </g>
   </g>
   <g id="line2d_21">
    <g clip-path="url(#p2b78366c2a)">
     <use style="fill-opacity:0;stroke:#000000;" x="232.986375" xlink:href="#m7064fa931f" y="96.22754"/>
    </g>
   </g>
   <g id="line2d_22">
    <g clip-path="url(#p2b78366c2a)">
     <use style="fill-opacity:0;stroke:#000000;" x="227.352708" xlink:href="#m7064fa931f" y="131.437958"/>
    </g>
   </g>
   <g id="line2d_23">
    <g clip-path="url(#p2b78366c2a)">
     <use style="fill-opacity:0;stroke:#000000;" x="221.719041" xlink:href="#m7064fa931f" y="114.536957"/>
    </g>
   </g>
   <g id="line2d_24">
    <g clip-path="url(#p2b78366c2a)">
     <use style="fill-opacity:0;stroke:#000000;" x="214.676957" xlink:href="#m7064fa931f" y="144.113708"/>
    </g>
   </g>
   <g id="line2d_25">
    <g clip-path="url(#p2b78366c2a)">
     <use style="fill-opacity:0;stroke:#000000;" x="220.310624" xlink:href="#m7064fa931f" y="149.747375"/>
    </g>
   </g>
   <g id="line2d_26">
    <g clip-path="url(#p2b78366c2a)">
     <use style="fill-opacity:0;stroke:#000000;" x="189.325457" xlink:href="#m7064fa931f" y="169.465209"/>
    </g>
   </g>
   <g id="line2d_27">
    <g clip-path="url(#p2b78366c2a)">
     <use style="fill-opacity:0;stroke:#000000;" x="185.100207" xlink:href="#m7064fa931f" y="142.705291"/>
    </g>
   </g>
   <g id="line2d_28">
    <g clip-path="url(#p2b78366c2a)">
     <use style="fill-opacity:0;stroke:#000000;" x="173.832873" xlink:href="#m7064fa931f" y="155.381042"/>
    </g>
   </g>
   <g id="line2d_29">
    <g clip-path="url(#p2b78366c2a)">
     <use style="fill-opacity:0;stroke:#000000;" x="171.01604" xlink:href="#m7064fa931f" y="169.465209"/>
    </g>
   </g>
   <g id="line2d_30">
    <g clip-path="url(#p2b78366c2a)">
     <use style="fill-opacity:0;stroke:#000000;" x="135.805622" xlink:href="#m7064fa931f" y="177.915709"/>
    </g>
   </g>
   <g id="line2d_31">
    <g clip-path="url(#p2b78366c2a)">
     <use style="fill-opacity:0;stroke:#000000;" x="125.946705" xlink:href="#m7064fa931f" y="208.900876"/>
    </g>
   </g>
   <g id="line2d_32">
    <g clip-path="url(#p2b78366c2a)">
     <use style="fill-opacity:0;stroke:#000000;" x="118.904622" xlink:href="#m7064fa931f" y="191.999876"/>
    </g>
   </g>
   <g id="line2d_33">
    <g clip-path="url(#p2b78366c2a)">
     <use style="fill-opacity:0;stroke:#000000;" x="85.102621" xlink:href="#m7064fa931f" y="208.900876"/>
    </g>
   </g>
   <g id="line2d_34">
    <g clip-path="url(#p2b78366c2a)">
     <use style="fill-opacity:0;stroke:#000000;" x="75.243704" xlink:href="#m7064fa931f" y="201.858793"/>
    </g>
   </g>
   <g id="line2d_35">
    <g clip-path="url(#p2b78366c2a)">
     <use style="fill-opacity:0;stroke:#000000;" x="123.129872" xlink:href="#m7064fa931f" y="138.480041"/>
    </g>
   </g>
   <g id="line2d_36">
    <g clip-path="url(#p2b78366c2a)">
     <use style="fill-opacity:0;stroke:#000000;" x="138.622455" xlink:href="#m7064fa931f" y="93.410707"/>
    </g>
   </g>
   <g id="line2d_37">
    <g clip-path="url(#p2b78366c2a)">
     <use style="fill-opacity:0;stroke:#000000;" x="182.283373" xlink:href="#m7064fa931f" y="45.524539"/>
    </g>
   </g>
   <g id="line2d_38">
    <g clip-path="url(#p2b78366c2a)">
     <use style="fill-opacity:0;stroke:#000000;" x="191.790186" xlink:href="#m7064fa931f" y="89.185457"/>
    </g>
   </g>
   <g id="line2d_39">
    <g clip-path="url(#p2b78366c2a)">
     <use style="fill-opacity:0;stroke:#000000;" x="445.657297" xlink:href="#m7064fa931f" y="239.886044"/>
    </g>
   </g>
   <g id="line2d_40">
    <g clip-path="url(#p2b78366c2a)">
     <use style="fill-opacity:0;stroke:#000000;" x="382.278545" xlink:href="#m7064fa931f" y="167.504693"/>
    </g>
   </g>
   <g id="line2d_41">
    <g clip-path="url(#p2b78366c2a)">
     <use style="fill-opacity:0;stroke:#000000;" x="304.815626" xlink:href="#m7064fa931f" y="208.900876"/>
    </g>
   </g>
   <g id="line2d_42">
    <g clip-path="url(#p2b78366c2a)">
     <use style="fill-opacity:0;stroke:#000000;" x="332.98396" xlink:href="#m7064fa931f" y="180.732542"/>
    </g>
   </g>
   <g id="line2d_43">
    <g clip-path="url(#p2b78366c2a)">
     <use style="fill-opacity:0;stroke:#000000;" x="279.464126" xlink:href="#m7064fa931f" y="145.522125"/>
    </g>
   </g>
   <g id="line2d_44">
    <g clip-path="url(#p2b78366c2a)">
     <use style="fill-opacity:0;stroke:#000000;" x="275.238876" xlink:href="#m7064fa931f" y="144.113708"/>
    </g>
   </g>
   <g id="line2d_45">
    <g clip-path="url(#p2b78366c2a)">
     <use style="fill-opacity:0;stroke:#000000;" x="273.830459" xlink:href="#m7064fa931f" y="141.296875"/>
    </g>
   </g>
   <g id="line2d_46">
    <g clip-path="url(#p2b78366c2a)">
     <use style="fill-opacity:0;stroke:#000000;" x="266.788375" xlink:href="#m7064fa931f" y="137.071625"/>
    </g>
   </g>
   <g id="line2d_47">
    <g clip-path="url(#p2b78366c2a)">
     <use style="fill-opacity:0;stroke:#000000;" x="261.154709" xlink:href="#m7064fa931f" y="135.663208"/>
    </g>
   </g>
   <g id="line2d_48">
    <g clip-path="url(#p2b78366c2a)">
     <use style="fill-opacity:0;stroke:#000000;" x="216.085374" xlink:href="#m7064fa931f" y="106.086457"/>
    </g>
   </g>
   <g id="line2d_49">
    <g clip-path="url(#p2b78366c2a)">
     <use style="fill-opacity:0;stroke:#000000;" x="147.072956" xlink:href="#m7064fa931f" y="99.044374"/>
    </g>
   </g>
   <g id="line2d_50">
    <g clip-path="url(#p2b78366c2a)">
     <use style="fill-opacity:0;stroke:#000000;" x="155.523456" xlink:href="#m7064fa931f" y="83.55179"/>
    </g>
   </g>
   <g id="line2d_51">
    <g clip-path="url(#p2b78366c2a)">
     <use style="fill-opacity:0;stroke:#000000;" x="185.100207" xlink:href="#m7064fa931f" y="72.988665"/>
    </g>
   </g>
   <g id="line2d_52">
    <g clip-path="url(#p2b78366c2a)">
     <use style="fill-opacity:0;stroke:#000000;" x="194.959124" xlink:href="#m7064fa931f" y="156.789458"/>
    </g>
   </g>
   <g id="line2d_53">
    <g clip-path="url(#p2b78366c2a)">
     <use style="fill-opacity:0;stroke:#000000;" x="183.69179" xlink:href="#m7064fa931f" y="162.423125"/>
    </g>
   </g>
   <g id="line2d_54">
    <g clip-path="url(#p2b78366c2a)">
     <use style="fill-opacity:0;stroke:#000000;" x="176.649706" xlink:href="#m7064fa931f" y="164.320263"/>
    </g>
   </g>
   <g id="line2d_55">
    <g clip-path="url(#p2b78366c2a)">
     <use style="fill-opacity:0;stroke:#000000;" x="140.030872" xlink:href="#m7064fa931f" y="186.366209"/>
    </g>
   </g>
   <g id="line2d_56">
    <g clip-path="url(#p2b78366c2a)">
     <use style="fill-opacity:0;stroke:#000000;" x="109.045705" xlink:href="#m7064fa931f" y="201.858793"/>
    </g>
   </g>
   <g id="line2d_57">
    <g clip-path="url(#p2b78366c2a)">
     <use style="fill-opacity:0;stroke:#000000;" x="79.468954" xlink:href="#m7064fa931f" y="210.309293"/>
    </g>
   </g>
   <g id="line2d_58">
    <defs>
     <path d="M -0 4.242641 
L 4.242641 0 
L 0 -4.242641 
L -4.242641 -0 
z
" id="m77deb4be3b" style="stroke:#000000;stroke-linejoin:miter;"/>
    </defs>
    <g clip-path="url(#p2b78366c2a)">
     <use style="stroke:#000000;stroke-linejoin:miter;" x="390.729045" xlink:href="#m77deb4be3b" y="133.550583"/>
    </g>
   </g>
   <g id="line2d_59">
    <g clip-path="url(#p2b78366c2a)">
     <use style="stroke:#000000;stroke-linejoin:miter;" x="124.538288" xlink:href="#m77deb4be3b" y="35.665622"/>
    </g>
   </g>
   <g id="line2d_60">
    <g clip-path="url(#p2b78366c2a)">
     <use style="stroke:#000000;stroke-linejoin:miter;" x="51.30062" xlink:href="#m77deb4be3b" y="244.111294"/>
    </g>
   </g>
   <g id="line2d_61">
    <path clip-path="url(#p2b78366c2a)" d="M 447.065713 244.111294 
L 452.69938 265.237545 
" style="fill:none;stroke:#1f77b4;stroke-linecap:square;stroke-width:1.5;"/>
   </g>
   <g id="line2d_62">
    <path clip-path="url(#p2b78366c2a)" d="M 445.657297 239.886044 
L 447.065713 244.111294 
" style="fill:none;stroke:#1f77b4;stroke-linecap:square;stroke-width:1.5;"/>
   </g>
   <g id="line2d_63">
    <path clip-path="url(#p2b78366c2a)" d="M 445.657297 239.886044 
L 438.615213 246.928127 
" style="fill:none;stroke:#1f77b4;stroke-linecap:square;stroke-width:1.5;"/>
   </g>
   <g id="line2d_64">
    <path clip-path="url(#p2b78366c2a)" d="M 431.57313 230.027127 
L 445.657297 239.886044 
" style="fill:none;stroke:#1f77b4;stroke-linecap:square;stroke-width:1.5;"/>
   </g>
   <g id="line2d_65">
    <path clip-path="url(#p2b78366c2a)" d="M 382.278545 167.504693 
L 431.57313 230.027127 
" style="fill:none;stroke:#1f77b4;stroke-linecap:square;stroke-width:1.5;"/>
   </g>
   <g id="line2d_66">
    <path clip-path="url(#p2b78366c2a)" d="M 386.503795 149.747375 
L 382.278545 167.504693 
" style="fill:none;stroke:#1f77b4;stroke-linecap:square;stroke-width:1.5;"/>
   </g>
   <g id="line2d_67">
    <path clip-path="url(#p2b78366c2a)" d="M 390.729045 133.550583 
L 386.503795 149.747375 
" style="fill:none;stroke:#1f77b4;stroke-linecap:square;stroke-width:1.5;"/>
   </g>
   <g id="line2d_68">
    <path clip-path="url(#p2b78366c2a)" d="M 382.278545 167.504693 
L 354.110211 151.155792 
" style="fill:none;stroke:#1f77b4;stroke-linecap:square;stroke-width:1.5;"/>
   </g>
   <g id="line2d_69">
    <path clip-path="url(#p2b78366c2a)" d="M 354.110211 151.155792 
L 351.293378 162.423125 
" style="fill:none;stroke:#1f77b4;stroke-linecap:square;stroke-width:1.5;"/>
   </g>
   <g id="line2d_70">
    <path clip-path="url(#p2b78366c2a)" d="M 351.293378 162.423125 
L 332.98396 180.732542 
" style="fill:none;stroke:#1f77b4;stroke-linecap:square;stroke-width:1.5;"/>
   </g>
   <g id="line2d_71">
    <path clip-path="url(#p2b78366c2a)" d="M 332.98396 180.732542 
L 338.617627 190.591459 
" style="fill:none;stroke:#1f77b4;stroke-linecap:square;stroke-width:1.5;"/>
   </g>
   <g id="line2d_72">
    <path clip-path="url(#p2b78366c2a)" d="M 332.98396 180.732542 
L 311.85771 206.084043 
" style="fill:none;stroke:#1f77b4;stroke-linecap:square;stroke-width:1.5;"/>
   </g>
   <g id="line2d_73">
    <path clip-path="url(#p2b78366c2a)" d="M 304.815626 208.900876 
L 311.85771 206.084043 
" style="fill:none;stroke:#1f77b4;stroke-linecap:square;stroke-width:1.5;"/>
   </g>
   <g id="line2d_74">
    <path clip-path="url(#p2b78366c2a)" d="M 304.815626 208.900876 
L 323.125043 222.985043 
" style="fill:none;stroke:#1f77b4;stroke-linecap:square;stroke-width:1.5;"/>
   </g>
   <g id="line2d_75">
    <path clip-path="url(#p2b78366c2a)" d="M 354.110211 151.155792 
L 279.464126 145.522125 
" style="fill:none;stroke:#1f77b4;stroke-linecap:square;stroke-width:1.5;"/>
   </g>
   <g id="line2d_76">
    <path clip-path="url(#p2b78366c2a)" d="M 279.464126 145.522125 
L 275.238876 144.113708 
" style="fill:none;stroke:#1f77b4;stroke-linecap:square;stroke-width:1.5;"/>
   </g>
   <g id="line2d_77">
    <path clip-path="url(#p2b78366c2a)" d="M 275.238876 144.113708 
L 278.759917 139.888458 
" style="fill:none;stroke:#1f77b4;stroke-linecap:square;stroke-width:1.5;"/>
   </g>
   <g id="line2d_78">
    <path clip-path="url(#p2b78366c2a)" d="M 275.238876 144.113708 
L 273.830459 141.296875 
" style="fill:none;stroke:#1f77b4;stroke-linecap:square;stroke-width:1.5;"/>
   </g>
   <g id="line2d_79">
    <path clip-path="url(#p2b78366c2a)" d="M 273.830459 141.296875 
L 269.605209 145.522125 
" style="fill:none;stroke:#1f77b4;stroke-linecap:square;stroke-width:1.5;"/>
   </g>
   <g id="line2d_80">
    <path clip-path="url(#p2b78366c2a)" d="M 452.69938 265.237545 
L 368.194378 268.054378 
" style="fill:none;stroke:#1f77b4;stroke-linecap:square;stroke-width:1.5;"/>
   </g>
   <g id="line2d_81">
    <path clip-path="url(#p2b78366c2a)" d="M 286.506209 166.648375 
L 279.464126 145.522125 
" style="fill:none;stroke:#1f77b4;stroke-linecap:square;stroke-width:1.5;"/>
   </g>
   <g id="line2d_82">
    <path clip-path="url(#p2b78366c2a)" d="M 266.788375 137.071625 
L 261.154709 135.663208 
" style="fill:none;stroke:#ff7f0e;stroke-linecap:square;stroke-width:1.5;"/>
   </g>
   <g id="line2d_83">
    <path clip-path="url(#p2b78366c2a)" d="M 261.154709 135.663208 
L 258.337875 128.621124 
" style="fill:none;stroke:#ff7f0e;stroke-linecap:square;stroke-width:1.5;"/>
   </g>
   <g id="line2d_84">
    <path clip-path="url(#p2b78366c2a)" d="M 258.337875 128.621124 
L 240.028458 121.579041 
" style="fill:none;stroke:#ff7f0e;stroke-linecap:square;stroke-width:1.5;"/>
   </g>
   <g id="line2d_85">
    <path clip-path="url(#p2b78366c2a)" d="M 124.538288 35.665622 
L 155.523456 83.55179 
" style="fill:none;stroke:#ff7f0e;stroke-linecap:square;stroke-width:1.5;"/>
   </g>
   <g id="line2d_86">
    <path clip-path="url(#p2b78366c2a)" d="M 185.100207 72.988665 
L 182.283373 45.524539 
" style="fill:none;stroke:#ff7f0e;stroke-linecap:square;stroke-width:1.5;"/>
   </g>
   <g id="line2d_87">
    <path clip-path="url(#p2b78366c2a)" d="M 185.100207 72.988665 
L 155.523456 83.55179 
" style="fill:none;stroke:#ff7f0e;stroke-linecap:square;stroke-width:1.5;"/>
   </g>
   <g id="line2d_88">
    <path clip-path="url(#p2b78366c2a)" d="M 155.523456 83.55179 
L 147.072956 99.044374 
" style="fill:none;stroke:#ff7f0e;stroke-linecap:square;stroke-width:1.5;"/>
   </g>
   <g id="line2d_89">
    <path clip-path="url(#p2b78366c2a)" d="M 147.072956 99.044374 
L 123.129872 138.480041 
" style="fill:none;stroke:#ff7f0e;stroke-linecap:square;stroke-width:1.5;"/>
   </g>
   <g id="line2d_90">
    <path clip-path="url(#p2b78366c2a)" d="M 147.072956 99.044374 
L 138.622455 93.410707 
" style="fill:none;stroke:#ff7f0e;stroke-linecap:square;stroke-width:1.5;"/>
   </g>
   <g id="line2d_91">
    <path clip-path="url(#p2b78366c2a)" d="M 185.100207 72.988665 
L 191.790186 89.185457 
" style="fill:none;stroke:#ff7f0e;stroke-linecap:square;stroke-width:1.5;"/>
   </g>
   <g id="line2d_92">
    <path clip-path="url(#p2b78366c2a)" d="M 191.790186 89.185457 
L 216.085374 106.086457 
" style="fill:none;stroke:#ff7f0e;stroke-linecap:square;stroke-width:1.5;"/>
   </g>
   <g id="line2d_93">
    <path clip-path="url(#p2b78366c2a)" d="M 216.085374 106.086457 
L 221.719041 114.536957 
" style="fill:none;stroke:#ff7f0e;stroke-linecap:square;stroke-width:1.5;"/>
   </g>
   <g id="line2d_94">
    <path clip-path="url(#p2b78366c2a)" d="M 216.085374 106.086457 
L 232.986375 96.22754 
" style="fill:none;stroke:#ff7f0e;stroke-linecap:square;stroke-width:1.5;"/>
   </g>
   <g id="line2d_95">
    <path clip-path="url(#p2b78366c2a)" d="M 232.986375 96.22754 
L 240.028458 121.579041 
" style="fill:none;stroke:#ff7f0e;stroke-linecap:square;stroke-width:1.5;"/>
   </g>
   <g id="line2d_96">
    <path clip-path="url(#p2b78366c2a)" d="M 266.788375 137.071625 
L 272.422042 128.621124 
" style="fill:none;stroke:#ff7f0e;stroke-linecap:square;stroke-width:1.5;"/>
   </g>
   <g id="line2d_97">
    <path clip-path="url(#p2b78366c2a)" d="M 51.30062 244.111294 
L 79.468954 210.309293 
" style="fill:none;stroke:#2ca02c;stroke-linecap:square;stroke-width:1.5;"/>
   </g>
   <g id="line2d_98">
    <path clip-path="url(#p2b78366c2a)" d="M 79.468954 210.309293 
L 85.102621 208.900876 
" style="fill:none;stroke:#2ca02c;stroke-linecap:square;stroke-width:1.5;"/>
   </g>
   <g id="line2d_99">
    <path clip-path="url(#p2b78366c2a)" d="M 85.102621 208.900876 
L 109.045705 201.858793 
" style="fill:none;stroke:#2ca02c;stroke-linecap:square;stroke-width:1.5;"/>
   </g>
   <g id="line2d_100">
    <path clip-path="url(#p2b78366c2a)" d="M 109.045705 201.858793 
L 125.946705 208.900876 
" style="fill:none;stroke:#2ca02c;stroke-linecap:square;stroke-width:1.5;"/>
   </g>
   <g id="line2d_101">
    <path clip-path="url(#p2b78366c2a)" d="M 109.045705 201.858793 
L 118.904622 191.999876 
" style="fill:none;stroke:#2ca02c;stroke-linecap:square;stroke-width:1.5;"/>
   </g>
   <g id="line2d_102">
    <path clip-path="url(#p2b78366c2a)" d="M 118.904622 191.999876 
L 140.030872 186.366209 
" style="fill:none;stroke:#2ca02c;stroke-linecap:square;stroke-width:1.5;"/>
   </g>
   <g id="line2d_103">
    <path clip-path="url(#p2b78366c2a)" d="M 140.030872 186.366209 
L 135.805622 177.915709 
" style="fill:none;stroke:#2ca02c;stroke-linecap:square;stroke-width:1.5;"/>
   </g>
   <g id="line2d_104">
    <path clip-path="url(#p2b78366c2a)" d="M 140.030872 186.366209 
L 171.01604 169.465209 
" style="fill:none;stroke:#2ca02c;stroke-linecap:square;stroke-width:1.5;"/>
   </g>
   <g id="line2d_105">
    <path clip-path="url(#p2b78366c2a)" d="M 171.01604 169.465209 
L 176.649706 164.320263 
" style="fill:none;stroke:#2ca02c;stroke-linecap:square;stroke-width:1.5;"/>
   </g>
   <g id="line2d_106">
    <path clip-path="url(#p2b78366c2a)" d="M 176.649706 164.320263 
L 173.832873 155.381042 
" style="fill:none;stroke:#2ca02c;stroke-linecap:square;stroke-width:1.5;"/>
   </g>
   <g id="line2d_107">
    <path clip-path="url(#p2b78366c2a)" d="M 183.69179 162.423125 
L 189.325457 169.465209 
" style="fill:none;stroke:#2ca02c;stroke-linecap:square;stroke-width:1.5;"/>
   </g>
   <g id="line2d_108">
    <path clip-path="url(#p2b78366c2a)" d="M 183.69179 162.423125 
L 194.959124 156.789458 
" style="fill:none;stroke:#2ca02c;stroke-linecap:square;stroke-width:1.5;"/>
   </g>
   <g id="line2d_109">
    <path clip-path="url(#p2b78366c2a)" d="M 194.959124 156.789458 
L 185.100207 142.705291 
" style="fill:none;stroke:#2ca02c;stroke-linecap:square;stroke-width:1.5;"/>
   </g>
   <g id="line2d_110">
    <path clip-path="url(#p2b78366c2a)" d="M 194.959124 156.789458 
L 220.310624 149.747375 
" style="fill:none;stroke:#2ca02c;stroke-linecap:square;stroke-width:1.5;"/>
   </g>
   <g id="line2d_111">
    <path clip-path="url(#p2b78366c2a)" d="M 220.310624 149.747375 
L 235.803208 135.663208 
" style="fill:none;stroke:#2ca02c;stroke-linecap:square;stroke-width:1.5;"/>
   </g>
   <g id="line2d_112">
    <path clip-path="url(#p2b78366c2a)" d="M 220.310624 149.747375 
L 214.676957 144.113708 
" style="fill:none;stroke:#2ca02c;stroke-linecap:square;stroke-width:1.5;"/>
   </g>
   <g id="line2d_113">
    <path clip-path="url(#p2b78366c2a)" d="M 214.676957 144.113708 
L 227.352708 131.437958 
" style="fill:none;stroke:#2ca02c;stroke-linecap:square;stroke-width:1.5;"/>
   </g>
   <g id="line2d_114">
    <path clip-path="url(#p2b78366c2a)" d="M 227.352708 131.437958 
L 234.394791 125.804291 
" style="fill:none;stroke:#2ca02c;stroke-linecap:square;stroke-width:1.5;"/>
   </g>
   <g id="line2d_115">
    <path clip-path="url(#p2b78366c2a)" d="M 79.468954 210.309293 
L 75.243704 201.858793 
" style="fill:none;stroke:#2ca02c;stroke-linecap:square;stroke-width:1.5;"/>
   </g>
   <g id="line2d_116">
    <path clip-path="url(#p2b78366c2a)" d="M 235.803208 135.663208 
L 248.478958 138.480041 
" style="fill:none;stroke:#2ca02c;stroke-linecap:square;stroke-width:1.5;"/>
   </g>
   <g id="line2d_117">
    <path clip-path="url(#p2b78366c2a)" d="M 183.69179 162.423125 
L 176.649706 164.320263 
" style="fill:none;stroke:#2ca02c;stroke-linecap:square;stroke-width:1.5;"/>
   </g>
   <g id="text_1">
    <!-- Réseau hydraulique -->
    <g transform="translate(191.4525 20.52)scale(0.12 -0.12)">
     <defs>
      <path d="M 47.90625 36.1875 
Q 51.3125 35.25 53.78125 33.03125 
Q 56.25 30.8125 58.203125 26.8125 
L 68.796875 5.171875 
L 77.6875 5.171875 
L 77.6875 0 
L 60.5 0 
L 49.125 23.1875 
Q 45.84375 29.9375 43.109375 31.90625 
Q 40.375 33.890625 35.59375 33.890625 
L 24.703125 33.890625 
L 24.703125 5.171875 
L 35.015625 5.171875 
L 35.015625 0 
L 5.515625 0 
L 5.515625 5.171875 
L 14.796875 5.171875 
L 14.796875 67.671875 
L 5.515625 67.671875 
L 5.515625 72.90625 
L 42.484375 72.90625 
Q 53.125 72.90625 58.90625 67.828125 
Q 64.703125 62.75 64.703125 53.421875 
Q 64.703125 45.90625 60.46875 41.578125 
Q 56.25 37.25 47.90625 36.1875 
z
M 24.703125 39.109375 
L 39.109375 39.109375 
Q 46.484375 39.109375 50 42.59375 
Q 53.515625 46.09375 53.515625 53.421875 
Q 53.515625 60.75 50 64.203125 
Q 46.484375 67.671875 39.109375 67.671875 
L 24.703125 67.671875 
z
" id="DejaVuSerif-82"/>
      <path d="M 54.203125 25 
L 15.484375 25 
L 15.484375 24.609375 
Q 15.484375 14.109375 19.4375 8.765625 
Q 23.390625 3.421875 31.109375 3.421875 
Q 37.015625 3.421875 40.796875 6.515625 
Q 44.578125 9.625 46.09375 15.71875 
L 53.328125 15.71875 
Q 51.171875 7.171875 45.375 2.875 
Q 39.59375 -1.421875 30.171875 -1.421875 
Q 18.796875 -1.421875 11.890625 6.078125 
Q 4.984375 13.578125 4.984375 25.984375 
Q 4.984375 38.28125 11.765625 45.796875 
Q 18.5625 53.328125 29.59375 53.328125 
Q 41.359375 53.328125 47.65625 46.0625 
Q 53.953125 38.8125 54.203125 25 
z
M 43.609375 30.171875 
Q 43.3125 39.265625 39.765625 43.875 
Q 36.234375 48.484375 29.59375 48.484375 
Q 23.390625 48.484375 19.828125 43.84375 
Q 16.265625 39.203125 15.484375 30.171875 
z
M 36.40625 79.984375 
L 46.125 79.984375 
L 29.53125 61.625 
L 23.8125 61.625 
z
" id="DejaVuSerif-233"/>
      <path d="M 5.609375 2.875 
L 5.609375 14.984375 
L 10.796875 14.984375 
Q 10.984375 9.1875 14.421875 6.296875 
Q 17.875 3.421875 24.609375 3.421875 
Q 30.671875 3.421875 33.84375 5.6875 
Q 37.015625 7.953125 37.015625 12.3125 
Q 37.015625 15.71875 34.6875 17.8125 
Q 32.375 19.921875 24.90625 22.3125 
L 18.40625 24.515625 
Q 11.71875 26.65625 8.71875 29.875 
Q 5.71875 33.109375 5.71875 38.09375 
Q 5.71875 45.21875 10.9375 49.265625 
Q 16.15625 53.328125 25.390625 53.328125 
Q 29.5 53.328125 34.03125 52.25 
Q 38.578125 51.171875 43.40625 49.125 
L 43.40625 37.796875 
L 38.234375 37.796875 
Q 38.03125 42.828125 34.703125 45.65625 
Q 31.390625 48.484375 25.6875 48.484375 
Q 20.015625 48.484375 17.109375 46.484375 
Q 14.203125 44.484375 14.203125 40.484375 
Q 14.203125 37.203125 16.40625 35.21875 
Q 18.609375 33.25 25.203125 31.203125 
L 32.328125 29 
Q 39.703125 26.703125 42.9375 23.265625 
Q 46.1875 19.828125 46.1875 14.40625 
Q 46.1875 7.03125 40.546875 2.796875 
Q 34.90625 -1.421875 25 -1.421875 
Q 19.96875 -1.421875 15.1875 -0.34375 
Q 10.40625 0.734375 5.609375 2.875 
z
" id="DejaVuSerif-115"/>
      <path d="M 54.203125 25 
L 15.484375 25 
L 15.484375 24.609375 
Q 15.484375 14.109375 19.4375 8.765625 
Q 23.390625 3.421875 31.109375 3.421875 
Q 37.015625 3.421875 40.796875 6.515625 
Q 44.578125 9.625 46.09375 15.71875 
L 53.328125 15.71875 
Q 51.171875 7.171875 45.375 2.875 
Q 39.59375 -1.421875 30.171875 -1.421875 
Q 18.796875 -1.421875 11.890625 6.078125 
Q 4.984375 13.578125 4.984375 25.984375 
Q 4.984375 38.28125 11.765625 45.796875 
Q 18.5625 53.328125 29.59375 53.328125 
Q 41.359375 53.328125 47.65625 46.0625 
Q 53.953125 38.8125 54.203125 25 
z
M 43.609375 30.171875 
Q 43.3125 39.265625 39.765625 43.875 
Q 36.234375 48.484375 29.59375 48.484375 
Q 23.390625 48.484375 19.828125 43.84375 
Q 16.265625 39.203125 15.484375 30.171875 
z
" id="DejaVuSerif-101"/>
      <path d="M 39.796875 16.3125 
L 39.796875 27.296875 
L 28.21875 27.296875 
Q 21.53125 27.296875 18.25 24.40625 
Q 14.984375 21.53125 14.984375 15.578125 
Q 14.984375 10.15625 18.296875 6.984375 
Q 21.625 3.8125 27.296875 3.8125 
Q 32.90625 3.8125 36.34375 7.28125 
Q 39.796875 10.75 39.796875 16.3125 
z
M 48.78125 32.421875 
L 48.78125 5.171875 
L 56.78125 5.171875 
L 56.78125 0 
L 39.796875 0 
L 39.796875 5.609375 
Q 36.8125 2 32.90625 0.28125 
Q 29 -1.421875 23.78125 -1.421875 
Q 15.140625 -1.421875 10.0625 3.171875 
Q 4.984375 7.765625 4.984375 15.578125 
Q 4.984375 23.640625 10.796875 28.078125 
Q 16.609375 32.515625 27.203125 32.515625 
L 39.796875 32.515625 
L 39.796875 36.078125 
Q 39.796875 42 36.203125 45.234375 
Q 32.625 48.484375 26.125 48.484375 
Q 20.75 48.484375 17.578125 46.046875 
Q 14.40625 43.609375 13.625 38.8125 
L 8.984375 38.8125 
L 8.984375 49.3125 
Q 13.671875 51.3125 18.09375 52.3125 
Q 22.515625 53.328125 26.703125 53.328125 
Q 37.5 53.328125 43.140625 47.96875 
Q 48.78125 42.625 48.78125 32.421875 
z
" id="DejaVuSerif-97"/>
      <path d="M 35.40625 51.90625 
L 52.203125 51.90625 
L 52.203125 5.171875 
L 60.6875 5.171875 
L 60.6875 0 
L 43.21875 0 
L 43.21875 9.1875 
Q 40.71875 4 36.765625 1.28125 
Q 32.8125 -1.421875 27.59375 -1.421875 
Q 18.953125 -1.421875 14.875 3.484375 
Q 10.796875 8.40625 10.796875 18.890625 
L 10.796875 46.6875 
L 2.6875 46.6875 
L 2.6875 51.90625 
L 19.828125 51.90625 
L 19.828125 21.6875 
Q 19.828125 12.203125 22.140625 8.6875 
Q 24.46875 5.171875 30.421875 5.171875 
Q 36.671875 5.171875 39.9375 9.765625 
Q 43.21875 14.359375 43.21875 23.09375 
L 43.21875 46.6875 
L 35.40625 46.6875 
z
" id="DejaVuSerif-117"/>
      <path id="DejaVuSerif-32"/>
      <path d="M 4.109375 0 
L 4.109375 5.171875 
L 12.203125 5.171875 
L 12.203125 70.796875 
L 3.609375 70.796875 
L 3.609375 75.984375 
L 21.1875 75.984375 
L 21.1875 42.671875 
Q 23.6875 47.953125 27.65625 50.640625 
Q 31.640625 53.328125 36.921875 53.328125 
Q 45.515625 53.328125 49.5625 48.390625 
Q 53.609375 43.453125 53.609375 33.015625 
L 53.609375 5.171875 
L 61.625 5.171875 
L 61.625 0 
L 36.8125 0 
L 36.8125 5.171875 
L 44.578125 5.171875 
L 44.578125 30.171875 
Q 44.578125 39.703125 42.25 43.1875 
Q 39.9375 46.6875 33.984375 46.6875 
Q 27.734375 46.6875 24.453125 42.140625 
Q 21.1875 37.59375 21.1875 28.90625 
L 21.1875 5.171875 
L 29 5.171875 
L 29 0 
z
" id="DejaVuSerif-104"/>
      <path d="M 21.578125 -9.515625 
L 25 -0.875 
L 5.609375 46.6875 
L -0.296875 46.6875 
L -0.296875 51.90625 
L 23.578125 51.90625 
L 23.578125 46.6875 
L 15.28125 46.6875 
L 29.890625 10.984375 
L 44.484375 46.6875 
L 36.71875 46.6875 
L 36.71875 51.90625 
L 56.203125 51.90625 
L 56.203125 46.6875 
L 50.390625 46.6875 
L 26.609375 -11.71875 
Q 24.171875 -17.78125 21.1875 -20 
Q 18.21875 -22.21875 12.796875 -22.21875 
Q 10.5 -22.21875 8.078125 -21.828125 
Q 5.671875 -21.4375 3.21875 -20.703125 
L 3.21875 -10.796875 
L 7.8125 -10.796875 
Q 8.109375 -14.109375 9.5 -15.546875 
Q 10.890625 -17 13.8125 -17 
Q 16.5 -17 18.140625 -15.5 
Q 19.78125 -14.015625 21.578125 -9.515625 
z
" id="DejaVuSerif-121"/>
      <path d="M 52.484375 5.171875 
L 61.078125 5.171875 
L 61.078125 0 
L 43.5 0 
L 43.5 8.109375 
Q 40.875 3.21875 36.796875 0.890625 
Q 32.71875 -1.421875 26.703125 -1.421875 
Q 17.140625 -1.421875 11.0625 6.171875 
Q 4.984375 13.765625 4.984375 25.984375 
Q 4.984375 38.1875 11.03125 45.75 
Q 17.09375 53.328125 26.703125 53.328125 
Q 32.71875 53.328125 36.796875 51 
Q 40.875 48.6875 43.5 43.796875 
L 43.5 70.796875 
L 35.015625 70.796875 
L 35.015625 75.984375 
L 52.484375 75.984375 
z
M 43.5 23.390625 
L 43.5 28.515625 
Q 43.5 37.84375 39.90625 42.765625 
Q 36.328125 47.703125 29.5 47.703125 
Q 22.5625 47.703125 19.015625 42.234375 
Q 15.484375 36.765625 15.484375 25.984375 
Q 15.484375 15.234375 19.015625 9.71875 
Q 22.5625 4.203125 29.5 4.203125 
Q 36.328125 4.203125 39.90625 9.109375 
Q 43.5 14.015625 43.5 23.390625 
z
" id="DejaVuSerif-100"/>
      <path d="M 47.796875 52 
L 47.796875 39.015625 
L 42.625 39.015625 
Q 42.390625 42.875 40.484375 44.78125 
Q 38.578125 46.6875 34.90625 46.6875 
Q 28.265625 46.6875 24.71875 42.09375 
Q 21.1875 37.5 21.1875 28.90625 
L 21.1875 5.171875 
L 31.59375 5.171875 
L 31.59375 0 
L 4.109375 0 
L 4.109375 5.171875 
L 12.203125 5.171875 
L 12.203125 46.78125 
L 3.609375 46.78125 
L 3.609375 51.90625 
L 21.1875 51.90625 
L 21.1875 42.671875 
Q 23.828125 48.09375 27.96875 50.703125 
Q 32.125 53.328125 38.09375 53.328125 
Q 40.28125 53.328125 42.703125 52.984375 
Q 45.125 52.640625 47.796875 52 
z
" id="DejaVuSerif-114"/>
      <path d="M 20.515625 5.171875 
L 29 5.171875 
L 29 0 
L 2.875 0 
L 2.875 5.171875 
L 11.53125 5.171875 
L 11.53125 70.796875 
L 2.875 70.796875 
L 2.875 75.984375 
L 20.515625 75.984375 
z
" id="DejaVuSerif-108"/>
      <path d="M 9.71875 68.015625 
Q 9.71875 70.265625 11.34375 71.921875 
Q 12.984375 73.578125 15.28125 73.578125 
Q 17.53125 73.578125 19.15625 71.921875 
Q 20.796875 70.265625 20.796875 68.015625 
Q 20.796875 65.71875 19.1875 64.109375 
Q 17.578125 62.5 15.28125 62.5 
Q 12.984375 62.5 11.34375 64.109375 
Q 9.71875 65.71875 9.71875 68.015625 
z
M 21.1875 5.171875 
L 29.6875 5.171875 
L 29.6875 0 
L 3.609375 0 
L 3.609375 5.171875 
L 12.203125 5.171875 
L 12.203125 46.6875 
L 3.609375 46.6875 
L 3.609375 51.90625 
L 21.1875 51.90625 
z
" id="DejaVuSerif-105"/>
      <path d="M 52.484375 46.6875 
L 52.484375 -15.578125 
L 61.078125 -15.578125 
L 61.078125 -20.796875 
L 35.015625 -20.796875 
L 35.015625 -15.578125 
L 43.5 -15.578125 
L 43.5 8.109375 
Q 40.875 3.21875 36.796875 0.890625 
Q 32.71875 -1.421875 26.703125 -1.421875 
Q 17.140625 -1.421875 11.0625 6.171875 
Q 4.984375 13.765625 4.984375 25.984375 
Q 4.984375 38.1875 11.03125 45.75 
Q 17.09375 53.328125 26.703125 53.328125 
Q 32.71875 53.328125 36.796875 51 
Q 40.875 48.6875 43.5 43.796875 
L 43.5 51.90625 
L 61.078125 51.90625 
L 61.078125 46.6875 
z
M 43.5 28.515625 
Q 43.5 37.84375 39.90625 42.765625 
Q 36.328125 47.703125 29.5 47.703125 
Q 22.5625 47.703125 19.015625 42.234375 
Q 15.484375 36.765625 15.484375 25.984375 
Q 15.484375 15.234375 19.015625 9.71875 
Q 22.5625 4.203125 29.5 4.203125 
Q 36.328125 4.203125 39.90625 9.109375 
Q 43.5 14.015625 43.5 23.390625 
z
" id="DejaVuSerif-113"/>
     </defs>
     <use xlink:href="#DejaVuSerif-82"/>
     <use x="75.292969" xlink:href="#DejaVuSerif-233"/>
     <use x="134.472656" xlink:href="#DejaVuSerif-115"/>
     <use x="185.791016" xlink:href="#DejaVuSerif-101"/>
     <use x="244.970703" xlink:href="#DejaVuSerif-97"/>
     <use x="304.589844" xlink:href="#DejaVuSerif-117"/>
     <use x="368.994141" xlink:href="#DejaVuSerif-32"/>
     <use x="400.78125" xlink:href="#DejaVuSerif-104"/>
     <use x="465.185547" xlink:href="#DejaVuSerif-121"/>
     <use x="521.679688" xlink:href="#DejaVuSerif-100"/>
     <use x="585.693359" xlink:href="#DejaVuSerif-114"/>
     <use x="633.496094" xlink:href="#DejaVuSerif-97"/>
     <use x="693.115234" xlink:href="#DejaVuSerif-117"/>
     <use x="757.519531" xlink:href="#DejaVuSerif-108"/>
     <use x="789.501953" xlink:href="#DejaVuSerif-105"/>
     <use x="821.484375" xlink:href="#DejaVuSerif-113"/>
     <use x="885.498047" xlink:href="#DejaVuSerif-117"/>
     <use x="949.902344" xlink:href="#DejaVuSerif-101"/>
    </g>
   </g>
   <g id="legend_1">
    <g id="patch_2">
     <path d="M 396.317187 78.554375 
L 486.2 78.554375 
Q 488.2 78.554375 488.2 76.554375 
L 488.2 33.52 
Q 488.2 31.52 486.2 31.52 
L 396.317187 31.52 
Q 394.317187 31.52 394.317187 33.52 
L 394.317187 76.554375 
Q 394.317187 78.554375 396.317187 78.554375 
z
" style="fill:#ffffff;opacity:0.8;stroke:#cccccc;stroke-linejoin:miter;"/>
    </g>
    <g id="line2d_118">
     <path d="M 398.317187 39.618437 
L 418.317187 39.618437 
" style="fill:none;stroke:#1f77b4;stroke-linecap:square;stroke-width:1.5;"/>
    </g>
    <g id="line2d_119"/>
    <g id="text_2">
     <!-- Réseau n°1 -->
     <g transform="translate(426.317187 43.118437)scale(0.1 -0.1)">
      <defs>
       <path d="M 4.109375 0 
L 4.109375 5.171875 
L 12.203125 5.171875 
L 12.203125 46.6875 
L 3.609375 46.6875 
L 3.609375 51.90625 
L 21.1875 51.90625 
L 21.1875 42.671875 
Q 23.6875 47.953125 27.65625 50.640625 
Q 31.640625 53.328125 36.921875 53.328125 
Q 45.515625 53.328125 49.5625 48.390625 
Q 53.609375 43.453125 53.609375 33.015625 
L 53.609375 5.171875 
L 61.625 5.171875 
L 61.625 0 
L 36.8125 0 
L 36.8125 5.171875 
L 44.578125 5.171875 
L 44.578125 30.171875 
Q 44.578125 39.703125 42.234375 43.234375 
Q 39.890625 46.78125 33.984375 46.78125 
Q 27.734375 46.78125 24.453125 42.203125 
Q 21.1875 37.640625 21.1875 28.90625 
L 21.1875 5.171875 
L 29 5.171875 
L 29 0 
z
" id="DejaVuSerif-110"/>
       <path d="M 25 67.484375 
Q 21.296875 67.484375 18.75 64.921875 
Q 16.21875 62.359375 16.21875 58.59375 
Q 16.21875 54.890625 18.71875 52.390625 
Q 21.234375 49.90625 25 49.90625 
Q 28.71875 49.90625 31.25 52.421875 
Q 33.796875 54.9375 33.796875 58.59375 
Q 33.796875 62.25 31.203125 64.859375 
Q 28.609375 67.484375 25 67.484375 
z
M 25 74.21875 
Q 28.125 74.21875 31 73.015625 
Q 33.890625 71.828125 35.984375 69.578125 
Q 38.234375 67.390625 39.359375 64.59375 
Q 40.484375 61.8125 40.484375 58.59375 
Q 40.484375 52.15625 35.96875 47.6875 
Q 31.453125 43.21875 24.90625 43.21875 
Q 18.3125 43.21875 13.90625 47.609375 
Q 9.515625 52 9.515625 58.59375 
Q 9.515625 65.140625 14 69.671875 
Q 18.5 74.21875 25 74.21875 
z
" id="DejaVuSerif-176"/>
       <path d="M 14.203125 0 
L 14.203125 5.171875 
L 26.90625 5.171875 
L 26.90625 65.828125 
L 12.203125 56.296875 
L 12.203125 62.703125 
L 29.984375 74.21875 
L 36.71875 74.21875 
L 36.71875 5.171875 
L 49.421875 5.171875 
L 49.421875 0 
z
" id="DejaVuSerif-49"/>
      </defs>
      <use xlink:href="#DejaVuSerif-82"/>
      <use x="75.292969" xlink:href="#DejaVuSerif-233"/>
      <use x="134.472656" xlink:href="#DejaVuSerif-115"/>
      <use x="185.791016" xlink:href="#DejaVuSerif-101"/>
      <use x="244.970703" xlink:href="#DejaVuSerif-97"/>
      <use x="304.589844" xlink:href="#DejaVuSerif-117"/>
      <use x="368.994141" xlink:href="#DejaVuSerif-32"/>
      <use x="400.78125" xlink:href="#DejaVuSerif-110"/>
      <use x="465.185547" xlink:href="#DejaVuSerif-176"/>
      <use x="515.185547" xlink:href="#DejaVuSerif-49"/>
     </g>
    </g>
    <g id="line2d_120">
     <path d="M 398.317187 54.296562 
L 418.317187 54.296562 
" style="fill:none;stroke:#ff7f0e;stroke-linecap:square;stroke-width:1.5;"/>
    </g>
    <g id="line2d_121"/>
    <g id="text_3">
     <!-- Réseau n°2 -->
     <g transform="translate(426.317187 57.796562)scale(0.1 -0.1)">
      <defs>
       <path d="M 12.796875 55.515625 
L 7.328125 55.515625 
L 7.328125 68.5 
Q 12.546875 71.296875 17.84375 72.75 
Q 23.140625 74.21875 28.21875 74.21875 
Q 39.59375 74.21875 46.1875 68.703125 
Q 52.78125 63.1875 52.78125 53.71875 
Q 52.78125 43.015625 37.84375 28.125 
Q 36.671875 27 36.078125 26.421875 
L 17.671875 8.015625 
L 48.09375 8.015625 
L 48.09375 17 
L 53.8125 17 
L 53.8125 0 
L 6.78125 0 
L 6.78125 5.328125 
L 28.90625 27.390625 
Q 36.234375 34.71875 39.359375 40.84375 
Q 42.484375 46.96875 42.484375 53.71875 
Q 42.484375 61.078125 38.640625 65.234375 
Q 34.8125 69.390625 28.078125 69.390625 
Q 21.09375 69.390625 17.28125 65.921875 
Q 13.484375 62.453125 12.796875 55.515625 
z
" id="DejaVuSerif-50"/>
      </defs>
      <use xlink:href="#DejaVuSerif-82"/>
      <use x="75.292969" xlink:href="#DejaVuSerif-233"/>
      <use x="134.472656" xlink:href="#DejaVuSerif-115"/>
      <use x="185.791016" xlink:href="#DejaVuSerif-101"/>
      <use x="244.970703" xlink:href="#DejaVuSerif-97"/>
      <use x="304.589844" xlink:href="#DejaVuSerif-117"/>
      <use x="368.994141" xlink:href="#DejaVuSerif-32"/>
      <use x="400.78125" xlink:href="#DejaVuSerif-110"/>
      <use x="465.185547" xlink:href="#DejaVuSerif-176"/>
      <use x="515.185547" xlink:href="#DejaVuSerif-50"/>
     </g>
    </g>
    <g id="line2d_122">
     <path d="M 398.317187 68.974688 
L 418.317187 68.974688 
" style="fill:none;stroke:#2ca02c;stroke-linecap:square;stroke-width:1.5;"/>
    </g>
    <g id="line2d_123"/>
    <g id="text_4">
     <!-- Réseau n°3 -->
     <g transform="translate(426.317187 72.474688)scale(0.1 -0.1)">
      <defs>
       <path d="M 9.71875 69.828125 
Q 15.4375 71.96875 20.671875 73.09375 
Q 25.921875 74.21875 30.515625 74.21875 
Q 41.21875 74.21875 47.21875 69.59375 
Q 53.21875 64.984375 53.21875 56.78125 
Q 53.21875 50.203125 49.0625 45.78125 
Q 44.921875 41.359375 37.3125 39.796875 
Q 46.296875 38.53125 51.25 33.28125 
Q 56.203125 28.03125 56.203125 19.671875 
Q 56.203125 9.46875 49.34375 4.015625 
Q 42.484375 -1.421875 29.59375 -1.421875 
Q 23.875 -1.421875 18.421875 -0.1875 
Q 12.984375 1.03125 7.625 3.515625 
L 7.625 17.671875 
L 13.09375 17.671875 
Q 13.578125 10.640625 17.828125 7.03125 
Q 22.078125 3.421875 29.78125 3.421875 
Q 37.25 3.421875 41.578125 7.734375 
Q 45.90625 12.0625 45.90625 19.578125 
Q 45.90625 28.171875 41.453125 32.59375 
Q 37.015625 37.015625 28.421875 37.015625 
L 23.78125 37.015625 
L 23.78125 42 
L 26.21875 42 
Q 34.765625 42 39.03125 45.53125 
Q 43.3125 49.078125 43.3125 56.203125 
Q 43.3125 62.59375 39.796875 65.984375 
Q 36.28125 69.390625 29.6875 69.390625 
Q 23.09375 69.390625 19.453125 66.265625 
Q 15.828125 63.140625 15.1875 56.984375 
L 9.71875 56.984375 
z
" id="DejaVuSerif-51"/>
      </defs>
      <use xlink:href="#DejaVuSerif-82"/>
      <use x="75.292969" xlink:href="#DejaVuSerif-233"/>
      <use x="134.472656" xlink:href="#DejaVuSerif-115"/>
      <use x="185.791016" xlink:href="#DejaVuSerif-101"/>
      <use x="244.970703" xlink:href="#DejaVuSerif-97"/>
      <use x="304.589844" xlink:href="#DejaVuSerif-117"/>
      <use x="368.994141" xlink:href="#DejaVuSerif-32"/>
      <use x="400.78125" xlink:href="#DejaVuSerif-110"/>
      <use x="465.185547" xlink:href="#DejaVuSerif-176"/>
      <use x="515.185547" xlink:href="#DejaVuSerif-51"/>
     </g>
    </g>
   </g>
  </g>
 </g>
 <defs>
  <clipPath id="p2b78366c2a">
   <rect height="250.68" width="482.4" x="10.8" y="26.52"/>
  </clipPath>
 </defs>
</svg>
